<svg width="580" height="484" xmlns="http://www.w3.org/2000/svg" xmlns:xlink="http://www.w3.org/1999/xlink" xml:space="preserve" overflow="hidden"><g transform="translate(-1399 -280)"><rect x="1402.5" y="283.5" width="94.9999" height="94.9999" stroke="#FFFFFF" stroke-width="6.875" stroke-miterlimit="8" stroke-opacity="0" fill="#FFD677" fill-opacity="0.290196"/><rect x="1497.5" y="283.5" width="96.0002" height="94.9999" stroke="#FFFFFF" stroke-width="6.875" stroke-miterlimit="8" stroke-opacity="0" fill="#FFD677" fill-opacity="0.14902"/><rect x="1593.5" y="283.5" width="94.9999" height="94.9999" stroke="#FFFFFF" stroke-width="6.875" stroke-miterlimit="8" stroke-opacity="0" fill="#FFD677" fill-opacity="0.0588235"/><rect x="1402.5" y="378.5" width="94.9999" height="95.9999" stroke="#FFFFFF" stroke-width="6.875" stroke-miterlimit="8" stroke-opacity="0" fill="#FFD677" fill-opacity="0.180392"/><rect x="1497.5" y="378.5" width="96.0002" height="95.9999" stroke="#FFFFFF" stroke-width="6.875" stroke-miterlimit="8" stroke-opacity="0" fill="#FFD677" fill-opacity="0.121569"/><rect x="1593.5" y="378.5" width="94.9999" height="95.9999" stroke="#FFFFFF" stroke-width="6.875" stroke-miterlimit="8" stroke-opacity="0" fill="#FFD677" fill-opacity="0.0392157"/><rect x="1402.5" y="474.5" width="94.9999" height="95.0002" stroke="#FFFFFF" stroke-width="6.875" stroke-miterlimit="8" stroke-opacity="0" fill="#FFD677" fill-opacity="0.258824"/><rect x="1497.5" y="474.5" width="96.0002" height="95.0002" stroke="#FFFFFF" stroke-width="6.875" stroke-miterlimit="8" stroke-opacity="0" fill="#FFD677" fill-opacity="0.0705882"/><rect x="1593.5" y="474.5" width="94.9999" height="95.0002" stroke="#FFFFFF" stroke-width="6.875" stroke-miterlimit="8" stroke-opacity="0" fill="#FFD677" fill-opacity="0.0196078"/><rect x="1402.5" y="569.5" width="94.9999" height="95.9999" stroke="#FFFFFF" stroke-width="6.875" stroke-miterlimit="8" stroke-opacity="0" fill="#FFD677" fill-opacity="0.341176"/><rect x="1497.5" y="569.5" width="96.0002" height="95.9999" stroke="#FFFFFF" stroke-width="6.875" stroke-miterlimit="8" stroke-opacity="0" fill="#FFD677" fill-opacity="0.258824"/><rect x="1593.5" y="569.5" width="94.9999" height="95.9999" stroke="#FFFFFF" stroke-width="6.875" stroke-miterlimit="8" stroke-opacity="0" fill="#FFD677" fill-opacity="0.14902"/><rect x="1688.5" y="569.5" width="95.9999" height="95.9999" stroke="#FFFFFF" stroke-width="6.875" stroke-miterlimit="8" stroke-opacity="0" fill="#FFD677" fill-opacity="0.0588235"/><rect x="1784.5" y="569.5" width="95.0002" height="95.9999" stroke="#FFFFFF" stroke-width="6.875" stroke-miterlimit="8" stroke-opacity="0" fill="#FFD677" fill-opacity="0.0588235"/><rect x="1402.5" y="665.5" width="94.9999" height="94.9999" stroke="#FFFFFF" stroke-width="6.875" stroke-miterlimit="8" stroke-opacity="0" fill="#FFD677" fill-opacity="0.431373"/><rect x="1497.5" y="665.5" width="96.0002" height="94.9999" stroke="#FFFFFF" stroke-width="6.875" stroke-miterlimit="8" stroke-opacity="0" fill="#FFD677" fill-opacity="0.380392"/><rect x="1593.5" y="665.5" width="94.9999" height="94.9999" stroke="#FFFFFF" stroke-width="6.875" stroke-miterlimit="8" stroke-opacity="0" fill="#FFD677" fill-opacity="0.239216"/><rect x="1688.5" y="665.5" width="95.9999" height="94.9999" stroke="#FFFFFF" stroke-width="6.875" stroke-miterlimit="8" stroke-opacity="0" fill="#FFD677" fill-opacity="0.141176"/><rect x="1784.5" y="665.5" width="95.0002" height="94.9999" stroke="#FFFFFF" stroke-width="6.875" stroke-miterlimit="8" stroke-opacity="0" fill="#FFD677" fill-opacity="0.0588235"/><rect x="1879.5" y="665.5" width="95.9999" height="94.9999" stroke="#FFFFFF" stroke-width="6.875" stroke-miterlimit="8" stroke-opacity="0" fill="#FFD677" fill-opacity="0.0509804"/><rect x="1402.5" y="737.5" width="155" height="22" stroke="#FFFFFF" stroke-width="6.875" stroke-miterlimit="8" stroke-opacity="0" fill="#E39F45" fill-opacity="0.74902"/><rect x="1434.5" y="652.5" width="85.9999" height="15.0001" stroke="#FFFFFF" stroke-width="6.875" stroke-miterlimit="8" stroke-opacity="0" fill="#713821"/><rect x="1434.5" y="667.5" width="85.9999" height="58.0001" stroke="#FFFFFF" stroke-width="6.875" stroke-miterlimit="8" stroke-opacity="0" fill="#7B472B"/><rect x="1448.5" y="652.5" width="58.0001" height="73.0002" stroke="#FFFFFF" stroke-width="6.875" stroke-miterlimit="8" stroke-opacity="0" fill="#A75321"/><rect x="1462.5" y="652.5" width="29.9999" height="73.0002" stroke="#FFFFFF" stroke-width="6.875" stroke-miterlimit="8" stroke-opacity="0" fill="#D1723D"/><rect x="1448.5" y="667.5" width="58.0001" height="58.0001" stroke="#FFFFFF" stroke-width="6.875" stroke-miterlimit="8" stroke-opacity="0" fill="#D1723D"/><rect x="1448.5" y="682.5" width="58.0001" height="29.0002" stroke="#FFFFFF" stroke-width="6.875" stroke-miterlimit="8" stroke-opacity="0" fill="#DBAE56"/><rect x="1462.5" y="667.5" width="28.9999" height="58.0001" stroke="#FFFFFF" stroke-width="6.875" stroke-miterlimit="8" stroke-opacity="0" fill="#DBAE56"/><rect x="1462.5" y="682.5" width="29.9999" height="29.0002" stroke="#FFFFFF" stroke-width="6.875" stroke-miterlimit="8" stroke-opacity="0" fill="#DCDD71"/><rect x="1462.5" y="682.5" width="14.9998" height="14.0001" stroke="#FFFFFF" stroke-width="6.875" stroke-miterlimit="8" stroke-opacity="0" fill="#E2E2BC"/><rect x="1477.5" y="696.5" width="15.0001" height="15.0001" stroke="#FFFFFF" stroke-width="6.875" stroke-miterlimit="8" stroke-opacity="0" fill="#E2E2BC"/><rect x="1434.5" y="711.5" width="14.0001" height="14.0001" stroke="#FFFFFF" stroke-width="6.875" stroke-miterlimit="8" stroke-opacity="0" fill="#713821"/><rect x="1506.5" y="711.5" width="13.9998" height="14.0001" stroke="#FFFFFF" stroke-width="6.875" stroke-miterlimit="8" stroke-opacity="0" fill="#713821"/><rect x="1434.5" y="725.5" width="85.9999" height="13.9998" stroke="#FFFFFF" stroke-width="6.875" stroke-miterlimit="8" stroke-opacity="0" fill="#373C49"/><rect x="1448.5" y="725.5" width="58.0001" height="13.9998" stroke="#FFFFFF" stroke-width="6.875" stroke-miterlimit="8" stroke-opacity="0" fill="#3F4758"/><rect x="1434.5" y="638.5" width="85.9999" height="15.0001" stroke="#FFFFFF" stroke-width="6.875" stroke-miterlimit="8" stroke-opacity="0" fill="#373C49"/><rect x="1448.5" y="638.5" width="58.0001" height="14.0001" stroke="#FFFFFF" stroke-width="6.875" stroke-miterlimit="8" stroke-opacity="0" fill="#3F4758"/><rect x="1448.5" y="624.5" width="58.0001" height="13.9998" stroke="#FFFFFF" stroke-width="6.875" stroke-miterlimit="8" stroke-opacity="0" fill="#7B472B"/><rect x="1462.5" y="624.5" width="29.9999" height="13.9998" stroke="#FFFFFF" stroke-width="6.875" stroke-miterlimit="8" stroke-opacity="0" fill="#713821"/><rect x="1448.5" y="609.5" width="58.0001" height="15.0001" stroke="#FFFFFF" stroke-width="6.875" stroke-miterlimit="8" stroke-opacity="0" fill="#373C49"/><rect x="1462.5" y="609.5" width="29.9999" height="15.0001" stroke="#FFFFFF" stroke-width="6.875" stroke-miterlimit="8" stroke-opacity="0" fill="#3F4758"/><rect x="1462.5" y="598.5" width="10" height="11" stroke="#FFFFFF" stroke-width="6.875" stroke-miterlimit="8" stroke-opacity="0" fill="#373C49"/><rect x="1462.5" y="588.5" width="10" height="11" stroke="#FFFFFF" stroke-width="6.875" stroke-miterlimit="8" stroke-opacity="0" fill="#3F4758"/><rect x="1472.5" y="588.5" width="10" height="11" stroke="#FFFFFF" stroke-width="6.875" stroke-miterlimit="8" stroke-opacity="0" fill="#373C49"/><rect x="1482.5" y="598.5" width="8.99988" height="11" stroke="#FFFFFF" stroke-width="6.875" stroke-miterlimit="8" stroke-opacity="0" fill="#373C49"/><rect x="1482.5" y="588.5" width="8.99988" height="11" stroke="#FFFFFF" stroke-width="6.875" stroke-miterlimit="8" stroke-opacity="0" fill="#3F4758"/><rect x="0" y="0" width="143" height="12.9997" stroke="#FFFFFF" stroke-width="6.875" stroke-miterlimit="8" stroke-opacity="0" fill="#E39F45" fill-opacity="0.74902" transform="matrix(1 0 0 -1 1482.5 759.5)"/><rect x="0" y="0" width="16.0002" height="45.9997" stroke="#FFFFFF" stroke-width="6.875" stroke-miterlimit="8" stroke-opacity="0" fill="#E39F45" fill-opacity="0.74902" transform="matrix(1 0 0 -1 1402.5 759.5)"/></g></svg>