<?xml version="1.0" ?>
<svg viewBox="0 0 512 512" xmlns="http://www.w3.org/2000/svg">
    <path
        d="M118.2 199.9L63.09 261.1l-22.12-22.11c-9.375-9.375-24.56-9.375-33.94 0s-9.375 24.56 0 33.94l40 40C51.53 317.5 57.66 320 63.1 320c.2187 0 .4065 0 .6253-.0156c6.594-.1719 12.81-3.031 17.22-7.922l72-80c8.875-9.859 8.062-25.03-1.781-33.91C142.2 189.3 127.1 190.1 118.2 199.9zM118.2 39.94L63.09 101.1l-22.12-22.11c-9.375-9.375-24.56-9.375-33.94 0s-9.375 24.56 0 33.94l40 40C51.53 157.5 57.66 160 63.1 160c.2187 0 .4065 0 .6253-.0156c6.594-.1719 12.81-3.031 17.22-7.922l72-80c8.875-9.859 8.062-25.03-1.781-33.91C142.2 29.31 127.1 30.09 118.2 39.94zM48 367.1c-26.51 0-48 21.49-48 48c0 26.51 21.49 48 48 48s48-21.49 48-48C96 389.5 74.51 367.1 48 367.1zM256 128h224c17.67 0 32-14.33 32-32s-14.33-32-32-32h-224C238.3 64 224 78.33 224 96S238.3 128 256 128zM480 224h-224C238.3 224 224 238.3 224 256s14.33 32 32 32h224c17.67 0 32-14.33 32-32S497.7 224 480 224zM480 384H192c-17.67 0-32 14.33-32 32s14.33 32 32 32h288c17.67 0 32-14.33 32-32S497.7 384 480 384z" />
</svg>