<?xml version="1.0" ?>
<svg stroke="none" stroke-width="0" viewBox="0 0 32 32" xmlns="http://www.w3.org/2000/svg">
    <defs>
        <linearGradient id="grad1" x1="0%" y1="0%" x2="0%" y2="100%">
            <stop offset="0%" style="stop-color:#ff333c;stop-opacity:1" />
            <stop offset="100%" style="stop-color:#ffac33;stop-opacity:1" />
        </linearGradient>
        <linearGradient id="grad2" x1="0%" y1="0%" x2="0%" y2="100%">
            <stop offset="0%" style="stop-color:#efde6b;stop-opacity:1" />
            <stop offset="100%" style="stop-color:#58d600;stop-opacity:1" />
        </linearGradient>
        <linearGradient id="grad3" x1="0%" y1="0%" x2="0%" y2="100%">
            <stop offset="0%" style="stop-color:#67ff33;stop-opacity:1" />
            <stop offset="100%" style="stop-color:#00f0db;stop-opacity:1" />
        </linearGradient>
    </defs>
    <path fill="url(#grad1)"
        d="M9,7H7V3A1,1,0,0,0,5,3V7H3A1,1,0,0,0,2,8v3a1,1,0,0,0,1,1H5V29a1,1,0,0,0,2,0V12H9a1,1,0,0,0,1-1V8A1,1,0,0,0,9,7Z" />
    <path fill="url(#grad2)"
        d="M19,20H17V3a1,1,0,0,0-2,0V20H13a1,1,0,0,0-1,1v3a1,1,0,0,0,1,1h2v4a1,1,0,0,0,2,0V25h2a1,1,0,0,0,1-1V21A1,1,0,0,0,19,20Z" />
    <path fill="url(#grad3)"
        d="M29,7H27V3a1,1,0,0,0-2,0V7H23a1,1,0,0,0-1,1v3a1,1,0,0,0,1,1h2V29a1,1,0,0,0,2,0V12h2a1,1,0,0,0,1-1V8A1,1,0,0,0,29,7Z" />
</svg>