<?xml version="1.0" ?>
<svg viewBox="0 0 52 52" xmlns="http://www.w3.org/2000/svg">
    <defs>
        <linearGradient id="grad1" x1="0%" y1="0%" x2="0%" y2="100%">
            <stop offset="0%" style="stop-color:#3379ff;stop-opacity:1" />
            <stop offset="100%" style="stop-color:#ff4d33;stop-opacity:1" />
        </linearGradient>
        <linearGradient id="grad2" x1="0%" y1="0%" x2="0%" y2="100%">
            <stop offset="0%" style="stop-color:#ff4d33;stop-opacity:1" />
            <stop offset="100%" style="stop-color:#edff33;stop-opacity:1" />
        </linearGradient>
    </defs>
    <g stroke="none" stroke-width="0">
        <path fill="url(#grad1)"
            d="M47,23.5H5a2,2,0,0,1-2-2V2A2,2,0,0,1,7,2V19.5H45V2a2,2,0,0,1,4,0V21.5A2,2,0,0,1,47,23.5Z" />
        <path fill="url(#grad2)"
            d="M47,52a2,2,0,0,1-2-2V32.5H7V50a2,2,0,0,1-4,0V30.5a2,2,0,0,1,2-2H47a2,2,0,0,1,2,2V50A2,2,0,0,1,47,52Z" />
    </g>
</svg>