<?xml version="1.0" ?>
<svg viewBox="0 0 256 256" stroke="none" stroke-width="0" xmlns="http://www.w3.org/2000/svg">
    <defs>
        <linearGradient id="grad1" x1="0%" y1="0%" x2="0%" y2="100%">
            <stop offset="0%" style="stop-color:#f433ff;stop-opacity:1" />
            <stop offset="100%" style="stop-color:#4c33ff;stop-opacity:1" />
        </linearGradient>
    </defs>
    <path fill="url(#grad1)"
        d="M32,64a8,8,0,0,1,8-8H216a8,8,0,0,1,0,16H40A8,8,0,0,1,32,64Zm8,72H216a8,8,0,0,0,0-16H40a8,8,0,0,0,0,16Zm104,48H40a8,8,0,0,0,0,16H144a8,8,0,0,0,0-16Zm88,0H216V168a8,8,0,0,0-16,0v16H184a8,8,0,0,0,0,16h16v16a8,8,0,0,0,16,0V200h16a8,8,0,0,0,0-16Z" />
</svg>