<?xml version="1.0" ?>
<svg height="8.4666mm"
   style="shape-rendering:geometricPrecision; text-rendering:geometricPrecision; image-rendering:optimizeQuality; fill-rule:evenodd; clip-rule:evenodd"
   version="1.1" viewBox="0 0 846.66 846.66" width="8.4666mm" xml:space="preserve" xmlns="http://www.w3.org/2000/svg"
   stroke="none" stroke-width="0"
   xmlns:xlink="http://www.w3.org/1999/xlink">
   <g>
      <path
         d="M98.55 371.41l68.11 0 0 -340.44c0,-11.4 9.25,-20.65 20.65,-20.65l472.04 0c11.4,0 20.65,9.25 20.65,20.65l0 469.55 68.11 0c11.4,0 20.65,9.24 20.65,20.65l0 294.52c0,11.4 -9.25,20.65 -20.65,20.65l-649.56 0c-11.4,0 -20.65,-9.25 -20.65,-20.65l0 -423.63c0,-11.4 9.25,-20.65 20.65,-20.65zm183.57 -235.06c-27.16,0 -27.16,-41.3 0,-41.3l282.42 0c27.16,0 27.16,41.3 0,41.3l-282.42 0zm0 185.58c-27.16,0 -27.16,-41.3 0,-41.3l282.42 0c27.16,0 27.16,41.3 0,41.3l-282.42 0zm0 -92.79c-27.16,0 -27.16,-41.3 0,-41.3l282.42 0c27.16,0 27.16,41.3 0,41.3l-282.42 0zm-74.16 142.27l68.11 0c7.56,0 14.18,4.07 17.77,10.13l78.08 118.98 266.78 0 0 -448.9 -430.74 0 0 319.79zm56.99 41.3l-145.75 0 0 382.33 608.26 0 0 -253.22 -366.66 -0.03c-6.73,0 -13.31,-3.29 -17.27,-9.33l-78.58 -119.75z" />
   </g>
</svg>