<?xml version="1.0" ?>
<svg viewBox="-2 -2 36 36" xmlns="http://www.w3.org/2000/svg">
    <path
        d="M9,7H7V3A1,1,0,0,0,5,3V7H3A1,1,0,0,0,2,8v3a1,1,0,0,0,1,1H5V29a1,1,0,0,0,2,0V12H9a1,1,0,0,0,1-1V8A1,1,0,0,0,9,7Z" />
    <path
        d="M19,20H17V3a1,1,0,0,0-2,0V20H13a1,1,0,0,0-1,1v3a1,1,0,0,0,1,1h2v4a1,1,0,0,0,2,0V25h2a1,1,0,0,0,1-1V21A1,1,0,0,0,19,20Z" />
    <path
        d="M29,7H27V3a1,1,0,0,0-2,0V7H23a1,1,0,0,0-1,1v3a1,1,0,0,0,1,1h2V29a1,1,0,0,0,2,0V12h2a1,1,0,0,0,1-1V8A1,1,0,0,0,29,7Z" />
</svg>