<?xml version="1.0" ?>
<svg viewBox="-5 -5 42 42" xmlns="http://www.w3.org/2000/svg">
    <g fill="none" stroke-linejoin="round" stroke-width="2">
        <rect height="10" width="30" x="1" y="1" />
        <polyline points="1 21 1 11 31 11 31 21" />
        <polyline points="17 31 1 31 1 21 18 21" />
        <line x1="10" x2="4" y1="6" y2="6" />
        <line x1="5" x2="23" y1="16" y2="16" />
        <line x1="25" x2="27" y1="16" y2="16" />
        <line x1="5" x2="7" y1="26" y2="26" />
        <line x1="9" x2="11" y1="26" y2="26" />
        <line x1="13" x2="15" y1="26" y2="26" />
        <line x1="12" x2="14" y1="6" y2="6" />
        <line x1="16" x2="18" y1="6" y2="6" />
        <line x1="20" x2="22" y1="6" y2="6" />
        <line x1="24" x2="26" y1="6" y2="6" />
        <polyline points="28 27 24 31 20 27" />
        <line x1="24" x2="24" y1="31" y2="19" />
    </g>
</svg>