<?xml version="1.0" encoding="UTF-8"?>
<svg xmlns="http://www.w3.org/2000/svg" viewBox="0 0 512 512">
  <defs>
    <style>
      .cls-1 {
        fill: #f1a82b;
        stroke: #f1a82b;
      }

      .cls-1, .cls-2, .cls-3, .cls-4, .cls-5, .cls-6, .cls-7, .cls-8, .cls-9, .cls-10 {
        fill-rule: evenodd;
      }

      .cls-11, .cls-12 {
        opacity: .3;
      }

      .cls-2, .cls-12 {
        fill: #fff;
      }

      .cls-3 {
        fill: #f29702;
        stroke: #f29702;
      }

      .cls-4 {
        fill: #f3a92e;
        stroke: #f3a92e;
      }

      .cls-5 {
        fill: #f2a62c;
        stroke: #f2a62c;
      }

      .cls-6 {
        fill: #fdc461;
        stroke: #fdc461;
      }

      .cls-7 {
        fill: #f2ad2e;
        stroke: #f2ad2e;
      }

      .cls-8 {
        fill: #f7b343;
        stroke: #f7b343;
      }

      .cls-9 {
        fill: #e89c24;
        stroke: #e89c24;
      }

      .cls-10 {
        fill: #ea9b24;
        stroke: #ea9b24;
      }
    </style>
  </defs>
  <g id="item2">
    <g>
      <path class="cls-6" d="M448,0h64v64h-64V0h0Z"/>
      <path class="cls-1" d="M64,0h64v64h-64V0h0ZM128,0v64h64V0h-64ZM64,64v64h64v-64h-64ZM128,64v64h64v-64h-64ZM64,128v64h64v-64h-64ZM128,128v64h64v-64h-64Z"/>
      <path class="cls-9" d="M0,0h64v64H0V0h0ZM320,0v64h64V0h-64ZM384,0v64h64V0h-64ZM320,64v64h64v-64h-64ZM384,128v64h64v-64h-64ZM448,128v64h64v-64h-64Z"/>
      <path class="cls-3" d="M0,192h64v64H0v-64h0ZM0,256v64h64v-64H0ZM448,320v64h64v-64h-64Z"/>
      <path class="cls-7" d="M64,256h64v64h-64v-64h0ZM192,256v64h64v-64h-64ZM256,256v64h64v-64h-64ZM0,320v64h64v-64H0ZM64,320v64h64v-64h-64ZM256,320v64h64v-64h-64ZM320,320v64h64v-64h-64ZM192,384v64h64v-64h-64Z"/>
      <path class="cls-4" d="M192,0h64v64h-64V0h0ZM256,0v64h64V0h-64ZM0,64v64h64v-64H0ZM192,64v64h64v-64h-64ZM256,64v64h64v-64h-64ZM384,64v64h64v-64h-64ZM448,64v64h64v-64h-64ZM0,128v64h64v-64H0ZM192,128v64h64v-64h-64ZM256,128v64h64v-64h-64ZM320,128v64h64v-64h-64ZM64,192v64h64v-64h-64ZM128,192v64h64v-64h-64ZM192,192v64h64v-64h-64ZM256,192v64h64v-64h-64ZM320,192v64h64v-64h-64ZM384,192v64h64v-64h-64ZM448,192v64h64v-64h-64ZM128,256v64h64v-64h-64ZM320,256v64h64v-64h-64ZM384,256v64h64v-64h-64ZM448,256v64h64v-64h-64ZM128,320v64h64v-64h-64ZM192,320v64h64v-64h-64ZM384,320v64h64v-64h-64ZM0,384v64h64v-64H0ZM64,384v64h64v-64h-64ZM256,384v64h64v-64h-64ZM320,384v64h64v-64h-64ZM384,384v64h64v-64h-64ZM448,384v64h64v-64h-64Z"/>
      <path class="cls-8" d="M128,384h64v64h-64v-64h0ZM64,448v64h64v-64h-64ZM128,448v64h64v-64h-64Z"/>
      <path class="cls-5" d="M0,448h64v64H0v-64h0ZM192,448v64h64v-64h-64ZM256,448v64h64v-64h-64ZM384,448v64h64v-64h-64Z"/>
      <path class="cls-10" d="M320,448h64v64h-64v-64h0ZM448,448v64h64v-64h-64Z"/>
    </g>
    <path class="cls-2" d="M234.75,126.26c-3.75-2.61-8.22-4.02-12.81-4.02h-39.49l-1.54.05c-11.68.79-20.92,10.54-20.92,22.45v115.03l.05,1.54c.79,11.71,10.52,20.97,22.4,20.97h154.68l1.54-.05c11.68-.79,20.92-10.54,20.92-22.45v-90.02l-.05-1.54-.16-1.58c-1.52-10.95-10.9-19.38-22.24-19.38h-77.12l-23.7-19.79-1.56-1.19h0ZM274.73,162.25v22.46c0,4.14,3.35,7.5,7.48,7.5h7.48v10.03h-2.49c-4.13,0-7.48,3.36-7.48,7.5s3.35,7.5,7.48,7.5h2.49v15h-2.49c-4.13,0-7.48,3.36-7.48,7.5s3.35,7.5,7.48,7.5h2.49v20.03h-107.24l-1.02-.07c-3.65-.5-6.47-3.64-6.47-7.43v-72.53h46.97s1.96-.08,1.96-.08c4.55-.4,8.88-2.18,12.41-5.13l23.69-19.79h14.73ZM304.66,262.28h2.49c4.13,0,7.48-3.36,7.48-7.5s-3.35-7.5-7.48-7.5h-2.49v-15h2.49c4.13,0,7.48-3.36,7.48-7.5s-3.35-7.5-7.48-7.5h-2.49v-25.06h7.48c4.13,0,7.48-3.36,7.48-7.5v-22.46h17.5l1.02.07c3.65.5,6.47,3.64,6.47,7.43v90.02l-.07,1.02c-.5,3.66-3.63,6.48-7.42,6.48h-32.46v-5h0ZM304.66,162.25v14.95h-14.97v-14.95h14.97ZM182.45,137.24h39.49l1.04.07c1.37.19,2.67.77,3.75,1.67l18.87,15.76-18.87,15.78-.85.61c-1.18.73-2.54,1.13-3.94,1.13h-46.97v-27.51l.07-1.02c.5-3.66,3.63-6.48,7.42-6.48h0Z"/>
  </g>
  <g id="Topped">
    <rect class="cls-12" width="32" height="512"/>
    <rect class="cls-12" x="256" y="-224" width="32" height="480" transform="translate(256 288) rotate(-90)"/>
    <rect class="cls-11" x="224" y="256" width="32" height="480" transform="translate(-256 736) rotate(-90)"/>
    <rect class="cls-11" x="480" width="32" height="512"/>
  </g>
</svg>