<?xml version="1.0" encoding="UTF-8"?>
<svg stroke-width="0" xmlns="http://www.w3.org/2000/svg" version="1.1" viewBox="0 0 512 512">
    <path
        d="M357.5,322h-55.8c-8.3,0-15-6.7-15-15s6.7-15,15-15h55.8c38.7-.5,69.8-32.2,69.3-71-.5-38.1-31.2-68.8-69.3-69.3-1.9,0-3.9,0-6.1.3-5.8.5-11.3-2.4-14.2-7.4-27.2-46.9-87.3-62.9-134.2-35.7-25.2,14.6-42.6,39.6-47.5,68.3-1.3,7.4-7.8,12.8-15.4,12.5h-1.1c-28.3-.7-51.7,21.6-52.4,49.9-.7,28.3,21.6,51.7,49.9,52.4.8,0,1.7,0,2.5,0h74.7c8.3,0,15,6.7,15,15s-6.7,15-15,15h-74.7c-44.8,0-81.1-36.4-81.1-81.3,0-40.7,30.2-75.1,70.5-80.4,18.5-68.3,88.9-108.7,157.2-90.2,29.5,8,55.2,26.3,72.4,51.6,55.3.7,99.6,46.1,98.9,101.4-.7,54.6-44.9,98.5-99.5,98.9Z" />
    <g>
        <path
            d="M210.1,335.5c4,0,7.8,1.6,10.6,4.4l37.6,37.6,37.6-37.6c6.1-5.6,15.6-5.1,21.2,1,5.2,5.7,5.2,14.5,0,20.2l-48.2,48.2c-5.9,5.9-15.4,5.9-21.2,0l-48.2-48.2c-5.9-5.9-5.9-15.4,0-21.2,2.8-2.8,6.6-4.4,10.6-4.4h0Z" />
        <path d="M258.3,218.9c8.3,0,15,6.7,15,15v164.8c0,8.3-6.7,15-15,15s-15-6.7-15-15v-164.8c0-8.3,6.7-15,15-15Z" />
    </g>
</svg>