<?xml version="1.0" encoding="UTF-8"?>
<svg xmlns="http://www.w3.org/2000/svg" viewBox="0 0 512 512">
	<defs>
		<style>
			.cls-1, .cls-2 {
			fill: #a563f1;
			}

			.cls-3, .cls-4, .cls-5, .cls-6, .cls-7, .cls-8, .cls-9, .cls-10, .cls-2 {
			fill-rule: evenodd;
			}

			.cls-3, .cls-11 {
			fill: #955bea;
			}

			.cls-4, .cls-12 {
			fill: #b37df7;
			}

			.cls-13, .cls-5 {
			fill: #a667f3;
			}

			.cls-14, .cls-15 {
			opacity: .3;
			}

			.cls-6, .cls-16 {
			fill: #ac66f2;
			}

			.cls-17, .cls-10 {
			fill: #ca9cfd;
			}

			.cls-15 {
			fill: #fff;
			}

			.cls-7, .cls-18 {
			fill: #8b38f2;
			}

			.cls-19, .cls-8 {
			fill: #975ae8;
			}

			.cls-9, .cls-20 {
			fill: #a264f2;
			}
		</style>
	</defs>
	<g id="item4">
		<g>
			<g>
				<polygon class="cls-10" points="448 0 512 0 512 64 448 64 448 0 448 0"/>
				<path class="cls-17" d="M513.5,65.5h-67V-1.5h67v67ZM449.5,62.5h61V1.5h-61v61Z"/>
			</g>
			<g>
				<path class="cls-2" d="M64,0h64v64h-64V0h0ZM128,0v64h64V0h-64ZM64,64v64h64v-64h-64ZM128,64v64h64v-64h-64ZM64,128v64h64v-64h-64ZM128,128v64h64v-64h-64Z"/>
				<path class="cls-1" d="M193.5,193.5H62.5V-1.5h131v195ZM129.5,190.5h61v-61h-61v61ZM65.5,190.5h61v-61h-61v61ZM129.5,126.5h61v-61h-61v61ZM65.5,126.5h61v-61h-61v61ZM129.5,62.5h61V1.5h-61v61ZM65.5,62.5h61V1.5h-61v61Z"/>
			</g>
			<g>
				<path class="cls-8" d="M0,0h64v64H0V0h0ZM320,0v64h64V0h-64ZM384,0v64h64V0h-64ZM320,64v64h64v-64h-64ZM384,128v64h64v-64h-64ZM448,128v64h64v-64h-64Z"/>
				<path class="cls-19" d="M513.5,193.5h-131v-64h-64V-1.5h131v67h-64v61h128v67ZM449.5,190.5h61v-61h-61v61ZM385.5,190.5h61v-61h-61v61ZM321.5,126.5h61v-61h-61v61ZM385.5,62.5h61V1.5h-61v61ZM321.5,62.5h61V1.5h-61v61ZM65.5,65.5H-1.5V-1.5h67v67ZM1.5,62.5h61V1.5H1.5v61Z"/>
			</g>
			<g>
				<path class="cls-7" d="M0,192h64v64H0v-64h0ZM0,256v64h64v-64H0ZM448,320v64h64v-64h-64Z"/>
				<path class="cls-18" d="M513.5,385.5h-67v-67h67v67ZM449.5,382.5h61v-61h-61v61ZM65.5,321.5H-1.5v-131h67v131ZM1.5,318.5h61v-61H1.5v61ZM1.5,254.5h61v-61H1.5v61Z"/>
			</g>
			<g>
				<path class="cls-6" d="M64,256h64v64h-64v-64h0ZM192,256v64h64v-64h-64ZM256,256v64h64v-64h-64ZM0,320v64h64v-64H0ZM64,320v64h64v-64h-64ZM256,320v64h64v-64h-64ZM320,320v64h64v-64h-64ZM192,384v64h64v-64h-64Z"/>
				<path class="cls-16" d="M257.5,449.5h-67v-67h64v-61h-64v-67h131v64h64v67h-128v64ZM193.5,446.5h61v-61h-61v61ZM321.5,382.5h61v-61h-61v61ZM257.5,382.5h61v-61h-61v61ZM257.5,318.5h61v-61h-61v61ZM193.5,318.5h61v-61h-61v61ZM129.5,385.5H-1.5v-67H62.5v-64h67v131ZM65.5,382.5h61v-61h-61v61ZM1.5,382.5h61v-61H1.5v61ZM65.5,318.5h61v-61h-61v61Z"/>
			</g>
			<g>
				<path class="cls-5" d="M192,0h64v64h-64V0h0ZM256,0v64h64V0h-64ZM0,64v64h64v-64H0ZM192,64v64h64v-64h-64ZM256,64v64h64v-64h-64ZM384,64v64h64v-64h-64ZM448,64v64h64v-64h-64ZM0,128v64h64v-64H0ZM192,128v64h64v-64h-64ZM256,128v64h64v-64h-64ZM320,128v64h64v-64h-64ZM64,192v64h64v-64h-64ZM128,192v64h64v-64h-64ZM192,192v64h64v-64h-64ZM256,192v64h64v-64h-64ZM320,192v64h64v-64h-64ZM384,192v64h64v-64h-64ZM448,192v64h64v-64h-64ZM128,256v64h64v-64h-64ZM320,256v64h64v-64h-64ZM384,256v64h64v-64h-64ZM448,256v64h64v-64h-64ZM128,320v64h64v-64h-64ZM192,320v64h64v-64h-64ZM384,320v64h64v-64h-64ZM0,384v64h64v-64H0ZM64,384v64h64v-64h-64ZM256,384v64h64v-64h-64ZM320,384v64h64v-64h-64ZM384,384v64h64v-64h-64ZM448,384v64h64v-64h-64Z"/>
				<path class="cls-13" d="M513.5,449.5H254.5v-64h-125v64H-1.5v-67H126.5v-125H62.5v-64H-1.5V62.5h67v128h125V-1.5h131V126.5h61V62.5h131v67h-128v61h128v131h-64v61h64v67ZM449.5,446.5h61v-61h-61v61ZM385.5,446.5h61v-61h-61v61ZM321.5,446.5h61v-61h-61v61ZM257.5,446.5h61v-61h-61v61ZM65.5,446.5h61v-61h-61v61ZM1.5,446.5h61v-61H1.5v61ZM385.5,382.5h61v-61h-61v61ZM318.5,382.5h64v-61h-64v-64h-125v61h64v64h61ZM193.5,382.5h61v-61h-61v61ZM129.5,382.5h61v-61h-61v61ZM449.5,318.5h61v-61h-61v61ZM385.5,318.5h61v-61h-61v61ZM321.5,318.5h61v-61h-61v61ZM129.5,318.5h61v-61h-61v61ZM449.5,254.5h61v-61h-61v61ZM385.5,254.5h61v-61h-61v61ZM321.5,254.5h61v-61h-61v61ZM257.5,254.5h61v-61h-61v61ZM193.5,254.5h61v-61h-61v61ZM129.5,254.5h61v-61h-61v61ZM65.5,254.5h61v-61h-61v61ZM321.5,190.5h61v-61h-61v61ZM257.5,190.5h61v-61h-61v61ZM193.5,190.5h61v-61h-61v61ZM1.5,190.5h61v-61H1.5v61ZM449.5,126.5h61v-61h-61v61ZM385.5,126.5h61v-61h-61v61ZM257.5,126.5h61v-61h-61v61ZM193.5,126.5h61v-61h-61v61ZM1.5,126.5h61v-61H1.5v61ZM257.5,62.5h61V1.5h-61v61ZM193.5,62.5h61V1.5h-61v61Z"/>
			</g>
			<g>
				<path class="cls-9" d="M0,448h64v64H0v-64h0ZM192,448v64h64v-64h-64ZM256,448v64h64v-64h-64ZM384,448v64h64v-64h-64Z"/>
				<path class="cls-20" d="M449.5,513.5h-67v-67h67v67ZM385.5,510.5h61v-61h-61v61ZM321.5,513.5h-131v-67h131v67ZM257.5,510.5h61v-61h-61v61ZM193.5,510.5h61v-61h-61v61ZM65.5,513.5H-1.5v-67h67v67ZM1.5,510.5h61v-61H1.5v61Z"/>
			</g>
			<g>
				<path class="cls-3" d="M320,448h64v64h-64v-64h0ZM448,448v64h64v-64h-64Z"/>
				<path class="cls-11" d="M513.5,513.5h-67v-67h67v67ZM449.5,510.5h61v-61h-61v61ZM385.5,513.5h-67v-67h67v67ZM321.5,510.5h61v-61h-61v61Z"/>
			</g>
			<g>
				<path class="cls-4" d="M128,384h64v64h-64v-64h0ZM64,448v64h64v-64h-64ZM128,448v64h64v-64h-64Z"/>
				<path class="cls-12" d="M193.5,513.5H62.5v-67h64v-64h67v131ZM129.5,510.5h61v-61h-61v61ZM65.5,510.5h61v-61h-61v61ZM129.5,446.5h61v-61h-61v61Z"/>
			</g>
		</g>
	</g>
	<g id="Topped">
		<rect class="cls-15" width="32" height="512"/>
		<rect class="cls-15" x="256" y="-224" width="32" height="480" transform="translate(256 288) rotate(-90)"/>
		<rect class="cls-14" x="224" y="256" width="32" height="480" transform="translate(-256 736) rotate(-90)"/>
		<rect class="cls-14" x="480" width="32" height="512"/>
	</g>
</svg>