<?xml version="1.0" encoding="UTF-8"?>
<svg xmlns="http://www.w3.org/2000/svg" xmlns:xlink="http://www.w3.org/1999/xlink" viewBox="0 0 512 512">
  <defs>
    <style>
      .cls-1 {
        fill: #2b8fc8;
        stroke: #2b8fc8;
      }

      .cls-1, .cls-2, .cls-3, .cls-4, .cls-5, .cls-6, .cls-7, .cls-8 {
        fill-rule: evenodd;
      }

      .cls-9, .cls-10 {
        fill: #fff;
      }

      .cls-11, .cls-10 {
        opacity: .3;
      }

      .cls-2 {
        fill: #40aaeb;
        stroke: #40aaeb;
      }

      .cls-12, .cls-13, .cls-14 {
        fill: none;
      }

      .cls-15 {
        clip-path: url(#clippath-1);
      }

      .cls-3 {
        fill: #1e77b1;
        stroke: #1e77b1;
      }

      .cls-4 {
        fill: #237eb3;
        stroke: #237eb3;
      }

      .cls-5 {
        fill: #2783b6;
        stroke: #2783b6;
      }

      .cls-13, .cls-14 {
        clip-rule: evenodd;
      }

      .cls-6 {
        fill: #327eb2;
        stroke: #327eb2;
      }

      .cls-7 {
        fill: #1d78af;
        stroke: #1d78af;
      }

      .cls-16 {
        clip-path: url(#clippath-2);
      }

      .cls-14 {
        clip-path: url(#clippath);
      }

      .cls-8 {
        fill: #1f78af;
        stroke: #1f78af;
      }
    </style>
    <clipPath id="clippath">
      <polygon class="cls-13" points="134.01 340 385.57 340 385.57 88.9 134.01 88.9 134.01 340 134.01 340"/>
    </clipPath>
    <clipPath id="clippath-1">
      <polygon class="cls-14" points="134.01 88.9 385.57 88.9 385.57 340 134.01 340 134.01 88.9 134.01 88.9"/>
    </clipPath>
    <clipPath id="clippath-2">
      <polygon class="cls-12" points="134.01 340 385.57 340 385.57 88.9 134.01 88.9 134.01 340 134.01 340"/>
    </clipPath>
  </defs>
  <g id="item5">
    <g>
      <polygon class="cls-2" points="0 0 64 0 64 64 0 64 0 0 0 0"/>
      <polygon class="cls-3" points="64 0 128 0 128 64 64 64 64 0 64 0"/>
      <polygon class="cls-5" points="128 0 192 0 192 64 128 64 128 0 128 0"/>
      <polygon class="cls-5" points="192 0 256 0 256 64 192 64 192 0 192 0"/>
      <polygon class="cls-7" points="256 0 320 0 320 64 256 64 256 0 256 0"/>
      <polygon class="cls-7" points="320 0 384 0 384 64 320 64 320 0 320 0"/>
      <polygon class="cls-6" points="384 0 448 0 448 64 384 64 384 0 384 0"/>
      <polygon class="cls-6" points="448 0 512 0 512 64 448 64 448 0 448 0"/>
      <polygon class="cls-3" points="0 64 64 64 64 128 0 128 0 64 0 64"/>
      <polygon class="cls-3" points="64 64 128 64 128 128 64 128 64 64 64 64"/>
      <polygon class="cls-5" points="128 64 192 64 192 128 128 128 128 64 128 64"/>
      <polygon class="cls-5" points="192 64 256 64 256 128 192 128 192 64 192 64"/>
      <polygon class="cls-7" points="256 64 320 64 320 128 256 128 256 64 256 64"/>
      <polygon class="cls-7" points="320 64 384 64 384 128 320 128 320 64 320 64"/>
      <polygon class="cls-6" points="384 64 448 64 448 128 384 128 384 64 384 64"/>
      <polygon class="cls-1" points="448 64 512 64 512 128 448 128 448 64 448 64"/>
      <polygon class="cls-5" points="0 128 64 128 64 192 0 192 0 128 0 128"/>
      <polygon class="cls-5" points="64 128 128 128 128 192 64 192 64 128 64 128"/>
      <polygon class="cls-5" points="128 128 192 128 192 192 128 192 128 128 128 128"/>
      <polygon class="cls-6" points="192 128 256 128 256 192 192 192 192 128 192 128"/>
      <polygon class="cls-5" points="256 128 320 128 320 192 256 192 256 128 256 128"/>
      <polygon class="cls-5" points="320 128 384 128 384 192 320 192 320 128 320 128"/>
      <polygon class="cls-1" points="384 128 448 128 448 192 384 192 384 128 384 128"/>
      <polygon class="cls-6" points="448 128 512 128 512 192 448 192 448 128 448 128"/>
      <polygon class="cls-6" points="0 192 64 192 64 256 0 256 0 192 0 192"/>
      <polygon class="cls-6" points="64 192 128 192 128 256 64 256 64 192 64 192"/>
      <polygon class="cls-6" points="128 192 192 192 192 256 128 256 128 192 128 192"/>
      <polygon class="cls-6" points="192 192 256 192 256 256 192 256 192 192 192 192"/>
      <polygon class="cls-5" points="256 192 320 192 320 256 256 256 256 192 256 192"/>
      <polygon class="cls-5" points="320 192 384 192 384 256 320 256 320 192 320 192"/>
      <polygon class="cls-6" points="384 192 448 192 448 256 384 256 384 192 384 192"/>
      <polygon class="cls-6" points="448 192 512 192 512 256 448 256 448 192 448 192"/>
      <polygon class="cls-6" points="0 256 64 256 64 320 0 320 0 256 0 256"/>
      <polygon class="cls-6" points="64 256 128 256 128 320 64 320 64 256 64 256"/>
      <polygon class="cls-6" points="128 256 192 256 192 320 128 320 128 256 128 256"/>
      <polygon class="cls-6" points="192 256 256 256 256 320 192 320 192 256 192 256"/>
      <polygon class="cls-5" points="256 256 320 256 320 320 256 320 256 256 256 256"/>
      <polygon class="cls-6" points="320 256 384 256 384 320 320 320 320 256 320 256"/>
      <polygon class="cls-6" points="384 256 448 256 448 320 384 320 384 256 384 256"/>
      <polygon class="cls-6" points="448 256 512 256 512 320 448 320 448 256 448 256"/>
      <polygon class="cls-6" points="0 320 64 320 64 384 0 384 0 320 0 320"/>
      <polygon class="cls-3" points="64 320 128 320 128 384 64 384 64 320 64 320"/>
      <polygon class="cls-6" points="128 320 192 320 192 384 128 384 128 320 128 320"/>
      <polygon class="cls-6" points="192 320 256 320 256 384 192 384 192 320 192 320"/>
      <polygon class="cls-5" points="256 320 320 320 320 384 256 384 256 320 256 320"/>
      <polygon class="cls-7" points="320 320 384 320 384 384 320 384 320 320 320 320"/>
      <polygon class="cls-6" points="384 320 448 320 448 384 384 384 384 320 384 320"/>
      <polygon class="cls-6" points="448 320 512 320 512 384 448 384 448 320 448 320"/>
      <polygon class="cls-6" points="0 384 64 384 64 448 0 448 0 384 0 384"/>
      <polygon class="cls-1" points="64 384 128 384 128 448 64 448 64 384 64 384"/>
      <polygon class="cls-6" points="128 384 192 384 192 448 128 448 128 384 128 384"/>
      <polygon class="cls-7" points="192 384 256 384 256 448 192 448 192 384 192 384"/>
      <polygon class="cls-7" points="256 384 320 384 320 448 256 448 256 384 256 384"/>
      <polygon class="cls-7" points="320 384 384 384 384 448 320 448 320 384 320 384"/>
      <polygon class="cls-6" points="384 384 448 384 448 448 384 448 384 384 384 384"/>
      <polygon class="cls-6" points="448 384 512 384 512 448 448 448 448 384 448 384"/>
      <polygon class="cls-8" points="0 448 64 448 64 512 0 512 0 448 0 448"/>
      <polygon class="cls-8" points="64 448 128 448 128 512 64 512 64 448 64 448"/>
      <polygon class="cls-1" points="128 448 192 448 192 512 128 512 128 448 128 448"/>
      <polygon class="cls-4" points="192 448 256 448 256 512 192 512 192 448 192 448"/>
      <polygon class="cls-4" points="256 448 320 448 320 512 256 512 256 448 256 448"/>
      <polygon class="cls-7" points="320 448 384 448 384 512 320 512 320 448 320 448"/>
      <polygon class="cls-7" points="384 448 448 448 448 512 384 512 384 448 384 448"/>
      <polygon class="cls-4" points="448 448 512 448 512 512 448 512 448 448 448 448"/>
    </g>
    <g class="cls-15">
      <g class="cls-16">
        <path class="cls-9" d="M309.75,246.96h-27.35c-4.07,0-7.35-3.28-7.35-7.34s3.28-7.34,7.35-7.34h27.35c18.97-.24,34.22-15.76,33.97-34.74-.25-18.64-15.29-33.67-33.97-33.91-.93,0-1.91,0-2.99.15-2.84.24-5.54-1.17-6.96-3.62-13.33-22.95-42.79-30.78-65.79-17.47-12.35,7.14-20.88,19.38-23.28,33.42-.64,3.62-3.82,6.26-7.55,6.12h-.54c-13.87-.34-25.34,10.57-25.69,24.42-.34,13.85,10.59,25.3,24.46,25.64h37.84c4.07,0,7.35,3.28,7.35,7.34s-3.28,7.34-7.35,7.34h-36.62c-21.96,0-39.76-17.81-39.76-39.78,0-19.92,14.8-36.75,34.56-39.34,9.07-33.42,43.58-53.19,77.06-44.14,14.46,3.91,27.06,12.87,35.49,25.25,27.11.34,48.82,22.56,48.48,49.62-.34,26.72-22.01,48.2-48.78,48.39h.05Z"/>
        <path class="cls-9" d="M237.5,253.56c1.96,0,3.82.78,5.2,2.15l18.43,18.4,18.43-18.4c2.99-2.74,7.65-2.5,10.39.49,2.55,2.79,2.55,7.1,0,9.88l-23.63,23.59c-2.89,2.89-7.55,2.89-10.39,0l-23.63-23.59c-2.89-2.89-2.89-7.54,0-10.37,1.37-1.37,3.24-2.15,5.2-2.15h0Z"/>
        <path class="cls-9" d="M261.12,196.51c4.07,0,7.35,3.28,7.35,7.34v80.64c0,4.06-3.28,7.34-7.35,7.34s-7.35-3.28-7.35-7.34v-80.64c0-4.06,3.28-7.34,7.35-7.34h0Z"/>
      </g>
    </g>
  </g>
  <g id="_图层_7" data-name="图层 7">
    <rect class="cls-10" width="32" height="512"/>
    <rect class="cls-10" x="256" y="-224" width="32" height="480" transform="translate(256 288) rotate(-90)"/>
    <rect class="cls-11" x="224" y="256" width="32" height="480" transform="translate(-256 736) rotate(-90)"/>
    <rect class="cls-11" x="480" width="32" height="512"/>
  </g>
</svg>