<?xml version="1.0" encoding="UTF-8"?>
<svg xmlns="http://www.w3.org/2000/svg" xmlns:xlink="http://www.w3.org/1999/xlink" viewBox="0 0 512 512">
  <defs>
    <style>
      .cls-1 {
        fill: #47b130;
        stroke: #47b130;
      }

      .cls-1, .cls-2, .cls-3, .cls-4, .cls-5, .cls-6, .cls-7, .cls-8 {
        fill-rule: evenodd;
        stroke-miterlimit: 10;
      }

      .cls-2 {
        fill: #4fb23a;
        stroke: #4fb23a;
      }

      .cls-3 {
        fill: #75eb58;
        stroke: #75eb58;
      }

      .cls-9, .cls-10 {
        fill: #fff;
      }

      .cls-11, .cls-10 {
        opacity: .3;
      }

      .cls-12, .cls-13, .cls-14 {
        fill: none;
      }

      .cls-15 {
        clip-path: url(#clippath-1);
      }

      .cls-4 {
        fill: #49af31;
        stroke: #49af31;
      }

      .cls-5 {
        fill: #48af2f;
        stroke: #48af2f;
      }

      .cls-13, .cls-14 {
        clip-rule: evenodd;
      }

      .cls-6 {
        fill: #54b63a;
        stroke: #54b63a;
      }

      .cls-16 {
        clip-path: url(#clippath-2);
      }

      .cls-7 {
        fill: #5dc840;
        stroke: #5dc840;
      }

      .cls-8 {
        fill: #4fb336;
        stroke: #4fb336;
      }

      .cls-14 {
        clip-path: url(#clippath);
      }
    </style>
    <clipPath id="clippath">
      <polygon class="cls-13" points="147 308.52 359.52 308.52 359.52 96 147 96 147 308.52 147 308.52"/>
    </clipPath>
    <clipPath id="clippath-1">
      <polygon class="cls-14" points="147 308.52 147 96 359.52 96 359.52 308.52 147 308.52 147 308.52"/>
    </clipPath>
    <clipPath id="clippath-2">
      <polygon class="cls-12" points="359.52 308.52 359.52 96 147 96 147 308.52 359.52 308.52 359.52 308.52"/>
    </clipPath>
  </defs>
  <g id="item1">
    <g>
      <path class="cls-3" d="M0,0h64v64H0V0h0Z"/>
      <path class="cls-1" d="M64,0h64v64h-64V0h0ZM0,64v64h64v-64H0ZM64,64v64h64v-64h-64ZM64,320v64h64v-64h-64Z"/>
      <path class="cls-6" d="M128,0h64v64h-64V0h0ZM192,0v64h64V0h-64ZM128,64v64h64v-64h-64ZM192,64v64h64v-64h-64ZM0,128v64h64v-64H0ZM64,128v64h64v-64h-64ZM128,128v64h64v-64h-64ZM256,128v64h64v-64h-64ZM320,128v64h64v-64h-64ZM256,192v64h64v-64h-64ZM320,192v64h64v-64h-64ZM256,256v64h64v-64h-64ZM256,320v64h64v-64h-64Z"/>
      <path class="cls-2" d="M384,0h64v64h-64V0h0ZM448,0v64h64V0h-64ZM384,64v64h64v-64h-64ZM192,128v64h64v-64h-64ZM448,128v64h64v-64h-64ZM0,192v64h64v-64H0ZM64,192v64h64v-64h-64ZM128,192v64h64v-64h-64ZM192,192v64h64v-64h-64ZM384,192v64h64v-64h-64ZM448,192v64h64v-64h-64ZM0,256v64h64v-64H0ZM64,256v64h64v-64h-64ZM128,256v64h64v-64h-64ZM192,256v64h64v-64h-64ZM320,256v64h64v-64h-64ZM384,256v64h64v-64h-64ZM448,256v64h64v-64h-64ZM0,320v64h64v-64H0ZM128,320v64h64v-64h-64ZM192,320v64h64v-64h-64ZM384,320v64h64v-64h-64ZM448,320v64h64v-64h-64ZM0,384v64h64v-64H0ZM128,384v64h64v-64h-64ZM384,384v64h64v-64h-64ZM448,384v64h64v-64h-64Z"/>
      <path class="cls-4" d="M0,448h64v64H0v-64h0ZM64,448v64h64v-64h-64Z"/>
      <path class="cls-7" d="M448,64h64v64h-64v-64h0ZM384,128v64h64v-64h-64ZM64,384v64h64v-64h-64ZM128,448v64h64v-64h-64Z"/>
      <path class="cls-5" d="M256,0h64v64h-64V0h0ZM320,0v64h64V0h-64ZM256,64v64h64v-64h-64ZM320,64v64h64v-64h-64ZM320,320v64h64v-64h-64ZM192,384v64h64v-64h-64ZM256,384v64h64v-64h-64ZM320,384v64h64v-64h-64ZM320,448v64h64v-64h-64ZM384,448v64h64v-64h-64Z"/>
      <path class="cls-8" d="M192,448h64v64h-64v-64h0ZM256,448v64h64v-64h-64ZM448,448v64h64v-64h-64Z"/>
    </g>
    <g class="cls-15">
      <g class="cls-16">
        <path class="cls-9" d="M161.25,281.06V122.52h13.22v158.54h-13.22ZM174.48,137.79v-15.27h158.53v15.27h-158.53ZM333.01,175.36v-52.84h13.21v52.84h-13.21ZM161.25,281.06v-13.22h66.07v13.22h-66.07ZM294.21,281.04v-92.47h25.6v92.47h-25.6ZM260.76,247.61v-25.6h92.48v25.6h-92.48Z"/>
      </g>
    </g>
  </g>
  <g id="Topped">
    <rect class="cls-10" width="32" height="512"/>
    <rect class="cls-10" x="256" y="-224" width="32" height="480" transform="translate(256 288) rotate(-90)"/>
    <rect class="cls-11" x="224" y="256" width="32" height="480" transform="translate(-256 736) rotate(-90)"/>
    <rect class="cls-11" x="480" width="32" height="512"/>
  </g>
</svg>