<?xml version="1.0" encoding="UTF-8"?>
<svg xmlns="http://www.w3.org/2000/svg" viewBox="0 0 512 512">
  <defs>
    <style>
      .cls-1 {
        fill: #2faf86;
        stroke: #2faf86;
      }

      .cls-1, .cls-2, .cls-3, .cls-4, .cls-5, .cls-6, .cls-7, .cls-8, .cls-9 {
        fill-rule: evenodd;
      }

      .cls-1, .cls-2, .cls-3, .cls-4, .cls-6, .cls-7, .cls-8, .cls-9 {
        stroke-miterlimit: 10;
      }

      .cls-2 {
        fill: #30b18a;
        stroke: #30b18a;
      }

      .cls-3 {
        fill: #40c89a;
        stroke: #40c89a;
      }

      .cls-10, .cls-11 {
        opacity: .3;
      }

      .cls-4 {
        fill: #36b38a;
        stroke: #36b38a;
      }

      .cls-5, .cls-11 {
        fill: #fff;
      }

      .cls-6 {
        fill: #31af87;
        stroke: #31af87;
      }

      .cls-7 {
        fill: #3ab68c;
        stroke: #3ab68c;
      }

      .cls-8 {
        fill: #3bb28f;
        stroke: #3bb28f;
      }

      .cls-9 {
        fill: #58ebbc;
        stroke: #58ebbc;
      }
    </style>
  </defs>
  <g id="item3">
    <polygon class="cls-9" points="0 0 64 0 64 64 0 64 0 0 0 0"/>
    <path class="cls-2" d="M64,0h64v64h-64V0h0ZM0,64v64h64v-64H0ZM64,64v64h64v-64h-64ZM64,320v64h64v-64h-64Z"/>
    <path class="cls-7" d="M128,0h64v64h-64V0h0ZM192,0v64h64V0h-64ZM128,64v64h64v-64h-64ZM192,64v64h64v-64h-64ZM0,128v64h64v-64H0ZM64,128v64h64v-64h-64ZM128,128v64h64v-64h-64ZM256,128v64h64v-64h-64ZM320,128v64h64v-64h-64ZM256,192v64h64v-64h-64ZM320,192v64h64v-64h-64ZM256,256v64h64v-64h-64ZM256,320v64h64v-64h-64Z"/>
    <path class="cls-8" d="M384,0h64v64h-64V0h0ZM448,0v64h64V0h-64ZM384,64v64h64v-64h-64ZM192,128v64h64v-64h-64ZM448,128v64h64v-64h-64ZM0,192v64h64v-64H0ZM64,192v64h64v-64h-64ZM128,192v64h64v-64h-64ZM192,192v64h64v-64h-64ZM384,192v64h64v-64h-64ZM448,192v64h64v-64h-64ZM0,256v64h64v-64H0ZM64,256v64h64v-64h-64ZM128,256v64h64v-64h-64ZM192,256v64h64v-64h-64ZM320,256v64h64v-64h-64ZM384,256v64h64v-64h-64ZM448,256v64h64v-64h-64ZM0,320v64h64v-64H0ZM128,320v64h64v-64h-64ZM192,320v64h64v-64h-64ZM384,320v64h64v-64h-64ZM448,320v64h64v-64h-64ZM0,384v64h64v-64H0ZM128,384v64h64v-64h-64ZM384,384v64h64v-64h-64ZM448,384v64h64v-64h-64Z"/>
    <path class="cls-6" d="M0,448h64v64H0v-64h0ZM64,448v64h64v-64h-64Z"/>
    <path class="cls-3" d="M448,64h64v64h-64v-64h0ZM384,128v64h64v-64h-64ZM64,384v64h64v-64h-64ZM128,448v64h64v-64h-64Z"/>
    <path class="cls-1" d="M256,0h64v64h-64V0h0ZM320,0v64h64V0h-64ZM256,64v64h64v-64h-64ZM320,64v64h64v-64h-64ZM320,320v64h64v-64h-64ZM192,384v64h64v-64h-64ZM256,384v64h64v-64h-64ZM320,384v64h64v-64h-64ZM320,448v64h64v-64h-64ZM384,448v64h64v-64h-64Z"/>
    <path class="cls-4" d="M192,448h64v64h-64v-64h0ZM256,448v64h64v-64h-64ZM448,448v64h64v-64h-64Z"/>
    <path class="cls-5" d="M331.63,282.28h-143.68c-13.57,0-23.95-10.4-23.95-24.01v-120.03c0-8.8,7.18-16,15.96-16h135.7v16h-135.7v120.03c0,4.8,3.19,8,7.98,8h143.68c4.79,0,7.98-3.2,7.98-8v-88.02h-127.72v80.02h-15.97v-80.02c0-8.8,7.18-16,15.97-16h127.72c8.78,0,15.96,7.2,15.96,16v88.02c0,13.6-10.38,24.01-23.95,24.01h0Z"/>
  </g>
  <g id="Topped">
    <rect class="cls-11" width="32" height="512"/>
    <rect class="cls-11" x="256" y="-224" width="32" height="480" transform="translate(256 288) rotate(-90)"/>
    <rect class="cls-10" x="224" y="256" width="32" height="480" transform="translate(-256 736) rotate(-90)"/>
    <rect class="cls-10" x="480" width="32" height="512"/>
  </g>
</svg>