<?xml version="1.0" ?>
<svg height="32px" viewBox="-2 -2 36 36" width="32px" xmlns="http://www.w3.org/2000/svg">
    <path stroke="none"
        d="M16,30c-3.74,0-7.255-1.456-9.899-4.101C1.779,21.578,0.753,15.025,3.547,9.595C3.8,9.104,4.402,8.911,4.894,9.163   c0.491,0.252,0.685,0.855,0.432,1.347C2.931,15.165,3.81,20.781,7.515,24.485C9.781,26.752,12.794,28,16,28   c3.205,0,6.219-1.248,8.485-3.515S28,19.205,28,16c0-3.206-1.248-6.219-3.515-8.485S19.206,4,16,4   c-3.206,0-6.219,1.249-8.485,3.515c-0.391,0.391-1.023,0.391-1.414,0s-0.391-1.023,0-1.414C8.745,3.457,12.26,2,16,2   c3.74,0,7.256,1.457,9.899,4.101C28.544,8.745,30,12.26,30,16c0,3.739-1.456,7.255-4.101,9.899C23.256,28.544,19.74,30,16,30z" />
    <path stroke="none" d="M16,22c-0.552,0-1-0.447-1-1V11c0-0.552,0.448-1,1-1s1,0.448,1,1v10C17,21.553,16.552,22,16,22z" />
    <path stroke="none" d="M21,17H11c-0.552,0-1-0.448-1-1s0.448-1,1-1h10c0.553,0,1,0.448,1,1S21.553,17,21,17z" />
</svg>