<?xml version="1.0" encoding="UTF-8"?>
<svg id="_图层_1" data-name="图层 1" xmlns="http://www.w3.org/2000/svg" viewBox="0 0 16 16">
  <defs>
    <style>
      .cls-1 {
        fill: #010101;
        fill-rule: evenodd;
      }
    </style>
  </defs>
  <polygon class="cls-1" points="3.56 0 7.11 0 7.11 1.78 3.56 1.78 3.56 0 3.56 0"/>
  <polygon class="cls-1" points="8.89 0 12.44 0 12.44 1.78 8.89 1.78 8.89 0 8.89 0"/>
  <polygon class="cls-1" points="1.78 1.78 3.56 1.78 3.56 3.56 1.78 3.56 1.78 1.78 1.78 1.78"/>
  <polygon class="cls-1" points="7.11 1.78 8.89 1.78 8.89 3.56 7.11 3.56 7.11 1.78 7.11 1.78"/>
  <polygon class="cls-1" points="12.44 1.78 14.22 1.78 14.22 3.56 12.44 3.56 12.44 1.78 12.44 1.78"/>
  <polygon class="cls-1" points="0 3.56 1.78 3.56 1.78 8.89 0 8.89 0 3.56 0 3.56"/>
  <polygon class="cls-1" points="14.22 3.56 16 3.56 16 8.89 14.22 8.89 14.22 3.56 14.22 3.56"/>
  <polygon class="cls-1" points="1.78 8.89 3.56 8.89 3.56 10.67 1.78 10.67 1.78 8.89 1.78 8.89"/>
  <polygon class="cls-1" points="12.44 8.89 14.22 8.89 14.22 10.67 12.44 10.67 12.44 8.89 12.44 8.89"/>
  <polygon class="cls-1" points="3.56 10.67 5.33 10.67 5.33 12.44 3.56 12.44 3.56 10.67 3.56 10.67"/>
  <polygon class="cls-1" points="10.67 10.67 12.44 10.67 12.44 12.44 10.67 12.44 10.67 10.67 10.67 10.67"/>
  <polygon class="cls-1" points="5.33 12.44 7.11 12.44 7.11 14.22 5.33 14.22 5.33 12.44 5.33 12.44"/>
  <polygon class="cls-1" points="8.89 12.44 10.67 12.44 10.67 14.22 8.89 14.22 8.89 12.44 8.89 12.44"/>
  <polygon class="cls-1" points="7.11 14.22 8.89 14.22 8.89 16 7.11 16 7.11 14.22 7.11 14.22"/>
</svg>