<?xml version="1.0" encoding="UTF-8"?>
<svg id="_图层_1" data-name="图层 1" xmlns="http://www.w3.org/2000/svg" viewBox="0 0 16 16">
  <defs>
    <style>
      .cls-1 {
        fill: #010101;
      }

      .cls-1, .cls-2, .cls-3 {
        fill-rule: evenodd;
      }

      .cls-2 {
        fill: gray;
      }

      .cls-4 {
        fill: #4d4d4d;
      }

      .cls-3 {
        fill: #ccc;
      }
    </style>
  </defs>
  <polygon class="cls-2" points="12.46 3.55 12.46 1.77 10.68 1.77 8.9 1.77 8.9 3.55 7.11 3.55 7.11 1.77 5.33 1.77 3.55 1.77 3.55 3.55 1.77 3.55 1.77 5.33 1.77 7.11 1.77 8.89 3.55 8.89 3.55 10.67 5.33 10.67 5.33 12.45 7.11 12.45 7.11 14.23 8.9 14.23 8.9 12.45 10.68 12.45 10.68 10.67 12.46 10.67 12.46 8.89 14.24 8.89 14.24 7.11 14.24 5.33 14.24 3.55 12.46 3.55"/>
  <polygon class="cls-3" points="3.56 3.55 5.34 3.55 5.34 5.33 3.56 5.33 3.56 3.55 3.56 3.55"/>
  <g>
    <rect class="cls-4" x="1.78" y="7.11" width="1.78" height="1.78"/>
    <rect class="cls-4" x="12.45" y="7.11" width="1.78" height="1.78"/>
    <rect class="cls-4" x="3.56" y="8.89" width="1.78" height="1.78"/>
    <rect class="cls-4" x="10.67" y="8.89" width="1.78" height="1.78"/>
    <rect class="cls-4" x="5.34" y="10.67" width="1.78" height="1.78"/>
    <rect class="cls-4" x="8.89" y="10.67" width="1.78" height="1.78"/>
    <rect class="cls-4" x="7.12" y="12.45" width="1.78" height="1.78"/>
  </g>
  <path class="cls-1" d="M3.56,0h3.56v1.78h-3.56V0h0ZM8.89,0v1.78h3.56V0h-3.56ZM1.78,1.78v1.78h1.78v-1.78h-1.78ZM7.11,1.78v1.78h1.78v-1.78h-1.78ZM12.44,1.78v1.78h1.78v-1.78h-1.78ZM0,3.56v5.33h1.78V3.56H0ZM14.22,3.56v5.33h1.78V3.56h-1.78ZM1.78,8.89v1.78h1.78v-1.78h-1.78ZM12.44,8.89v1.78h1.78v-1.78h-1.78ZM3.56,10.67v1.78h1.78v-1.78h-1.78ZM10.67,10.67v1.78h1.78v-1.78h-1.78ZM5.33,12.44v1.78h1.78v-1.78h-1.78ZM8.89,12.44v1.78h1.78v-1.78h-1.78ZM7.11,14.22v1.78h1.78v-1.78h-1.78Z"/>
</svg>