<?xml version="1.0" encoding="UTF-8"?>
<svg id="_图层_1" data-name="图层 1" xmlns="http://www.w3.org/2000/svg" viewBox="0 0 16 16">
  <defs>
    <style>
      .cls-1 {
        fill: #4cdef8;
      }

      .cls-1, .cls-2, .cls-3, .cls-4, .cls-5, .cls-6 {
        fill-rule: evenodd;
      }

      .cls-2 {
        fill: #010101;
      }

      .cls-3 {
        fill: #b4eff5;
      }

      .cls-4 {
        fill: #f7fdfd;
      }

      .cls-5 {
        fill: #036279;
      }

      .cls-6 {
        fill: #89f1ff;
      }
    </style>
  </defs>
  <path class="cls-1" d="M3.55,1.77h1.78v1.78h-1.78v-1.78h0ZM5.33,1.77v1.78h1.78v-1.78h-1.78ZM8.89,1.77v1.78h1.78v-1.78h-1.78ZM10.67,1.77v1.78h1.78v-1.78h-1.78ZM1.77,3.55v1.78h1.78v-1.78h-1.78ZM3.55,3.55v1.78h1.78v-1.78h-1.78ZM5.33,3.55v1.78h1.78v-1.78h-1.78ZM7.11,3.55v1.78h1.78v-1.78h-1.78ZM8.89,3.55v1.78h1.78v-1.78h-1.78ZM10.67,3.55v1.78h1.78v-1.78h-1.78ZM12.45,3.55v1.78h1.78v-1.78h-1.78ZM1.77,5.33v1.78h1.78v-1.78h-1.78ZM3.55,5.33v1.78h1.78v-1.78h-1.78ZM5.33,5.33v1.78h1.78v-1.78h-1.78ZM7.11,5.33v1.78h1.78v-1.78h-1.78ZM8.89,5.33v1.78h1.78v-1.78h-1.78ZM10.67,5.33v1.78h1.78v-1.78h-1.78ZM12.45,5.33v1.78h1.78v-1.78h-1.78ZM1.77,7.11v1.78h1.78v-1.78h-1.78ZM3.55,7.11v1.78h1.78v-1.78h-1.78ZM5.33,7.11v1.78h1.78v-1.78h-1.78ZM7.11,7.11v1.78h1.78v-1.78h-1.78ZM8.89,7.11v1.78h1.78v-1.78h-1.78ZM10.67,7.11v1.78h1.78v-1.78h-1.78ZM12.45,7.11v1.78h1.78v-1.78h-1.78ZM3.55,8.89v1.78h1.78v-1.78h-1.78ZM5.33,8.89v1.78h1.78v-1.78h-1.78ZM7.11,8.89v1.78h1.78v-1.78h-1.78ZM8.89,8.89v1.78h1.78v-1.78h-1.78ZM10.67,8.89v1.78h1.78v-1.78h-1.78ZM5.33,10.67v1.78h1.78v-1.78h-1.78ZM7.11,10.67v1.78h1.78v-1.78h-1.78ZM8.89,10.67v1.78h1.78v-1.78h-1.78ZM7.11,12.45v1.78h1.78v-1.78h-1.78Z"/>
  <polygon class="cls-6" points="7.11 3.55 8.89 3.55 8.89 5.32 7.11 5.32 7.11 3.55 7.11 3.55"/>
  <polygon class="cls-3" points="7.11 5.32 8.89 5.32 8.89 7.1 7.11 7.1 7.11 5.32 7.11 5.32"/>
  <polygon class="cls-3" points="1.78 7.1 3.56 7.1 3.56 8.88 1.78 8.88 1.78 7.1 1.78 7.1"/>
  <polygon class="cls-6" points="3.56 7.1 5.33 7.1 5.33 8.88 3.56 8.88 3.56 7.1 3.56 7.1"/>
  <polygon class="cls-1" points="7.11 7.1 8.89 7.1 8.89 8.88 7.11 8.88 7.11 7.1 7.11 7.1"/>
  <polygon class="cls-6" points="10.67 7.1 12.44 7.1 12.44 8.88 10.67 8.88 10.67 7.1 10.67 7.1"/>
  <polygon class="cls-3" points="12.44 7.1 14.22 7.1 14.22 8.88 12.44 8.88 12.44 7.1 12.44 7.1"/>
  <polygon class="cls-1" points="3.56 8.88 5.33 8.88 5.33 10.66 3.56 10.66 3.56 8.88 3.56 8.88"/>
  <polygon class="cls-6" points="5.33 8.88 7.11 8.88 7.11 10.66 5.33 10.66 5.33 8.88 5.33 8.88"/>
  <polygon class="cls-4" points="7.11 8.88 8.89 8.88 8.89 10.66 7.11 10.66 7.11 8.88 7.11 8.88"/>
  <polygon class="cls-6" points="8.89 8.88 10.67 8.88 10.67 10.66 8.89 10.66 8.89 8.88 8.89 8.88"/>
  <polygon class="cls-1" points="10.67 8.88 12.44 8.88 12.44 10.66 10.67 10.66 10.67 8.88 10.67 8.88"/>
  <polygon class="cls-1" points="5.33 10.66 7.11 10.66 7.11 12.43 5.33 12.43 5.33 10.66 5.33 10.66"/>
  <polygon class="cls-6" points="7.11 10.66 8.89 10.66 8.89 12.43 7.11 12.43 7.11 10.66 7.11 10.66"/>
  <polygon class="cls-1" points="8.89 10.66 10.67 10.66 10.67 12.43 8.89 12.43 8.89 10.66 8.89 10.66"/>
  <polygon class="cls-1" points="7.11 12.43 8.89 12.43 8.89 14.21 7.11 14.21 7.11 12.43 7.11 12.43"/>
  <path class="cls-2" d="M3.56,0h3.56v1.78h-3.56V0h0ZM8.89,0v1.78h3.56V0h-3.56ZM1.78,1.78v1.78h1.78v-1.78h-1.78ZM7.11,1.78v1.78h1.78v-1.78h-1.78ZM12.44,1.78v1.78h1.78v-1.78h-1.78ZM0,3.56v5.33h1.78V3.56H0ZM14.22,3.56v5.33h1.78V3.56h-1.78ZM1.78,8.89v1.78h1.78v-1.78h-1.78ZM12.44,8.89v1.78h1.78v-1.78h-1.78ZM3.56,10.67v1.78h1.78v-1.78h-1.78ZM10.67,10.67v1.78h1.78v-1.78h-1.78ZM5.33,12.44v1.78h1.78v-1.78h-1.78ZM8.89,12.44v1.78h1.78v-1.78h-1.78ZM7.11,14.22v1.78h1.78v-1.78h-1.78Z"/>
  <polygon class="cls-5" points="5.33 5.32 5.33 3.55 3.56 3.55 3.56 5.33 3.56 7.1 3.56 7.11 5.33 7.11 5.33 8.88 7.11 8.88 7.11 7.11 7.11 5.33 7.11 5.32 5.33 5.32"/>
  <polygon class="cls-5" points="10.67 3.55 10.67 5.32 8.89 5.32 8.89 5.33 8.89 7.11 8.89 8.88 10.67 8.88 10.67 7.11 12.44 7.11 12.44 7.1 12.44 5.33 12.44 3.55 10.67 3.55"/>
</svg>