<svg width="24" height="24" xmlns="http://www.w3.org/2000/svg" xmlns:xlink="http://www.w3.org/1999/xlink" xml:space="preserve" overflow="hidden">
    <g transform="translate(-628 -348)">
        <path d="M644 353 644 355 642 355 642 353 644 353ZM640 357 640 355 642 355 642 357 640 357ZM638 359 638 357 640 357 640 359 638 359ZM638 361 636 361 636 359 638 359 638 361ZM640 363 640 361 638 361 638 363 640 363ZM640 363 642 363 642 365 640 365 640 363ZM644 367 644 365 642 365 642 367 644 367Z" 
              fill="#FFFFFF"/>
    </g>
</svg>