<svg width="24" height="24" xmlns="http://www.w3.org/2000/svg" xmlns:xlink="http://www.w3.org/1999/xlink" xml:space="preserve" overflow="hidden">
    <g transform="translate(-205 -321)">
        <path d="M210 326 212 326 212 328 210 328 210 326ZM214 330 212 330 212 328 214 328 214 330ZM216 332 214 332 214 330 216 330 216 332ZM218 332 216 332 216 334 214 334 214 336 212 336 212 338 210 338 210 340 212 340 212 338 214 338 214 336 216 336 216 334 218 334 218 336 220 336 220 338 222 338 222 340 224 340 224 338 222 338 222 336 220 336 220 334 218 334 218 332ZM220 330 220 332 218 332 218 330 220 330ZM222 328 222 330 220 330 220 328 222 328ZM222 328 222 326 224 326 224 328 222 328Z" 
              fill="#FFFFFF"/>
    </g>
</svg>