<?xml version="1.0" ?>
<svg version="1.1" viewBox="64 64 384 384" xml:space="preserve" xmlns="http://www.w3.org/2000/svg"
    xmlns:xlink="http://www.w3.org/1999/xlink">
    <defs>
        <linearGradient id="grad1" x1="0%" y1="0%" x2="0%" y2="100%">
            <stop offset="0%" style="stop-color:#ff333c;stop-opacity:1" />
            <stop offset="100%" style="stop-color:#ff4dc5;stop-opacity:1" />
        </linearGradient>
    </defs>
    <path stroke="none" stroke-width="0" fill="url(#grad1)"
        d="M417.3,233.8c-6.7-3-16.9-7.6-17.9-11.4c-1-3.8,5.7-12.8,10.1-18.7c6.9-9.2,12.8-17.1,10.4-25.2c-0.8-2.8-3.1-6.7-9-8.9    c-19.7-7.4-43.3-8.2-66.6-2.2c-8.4,2.2-16.6,5.2-24.1,9c2-8.8,3-18,3-27.3c0-24-6.7-46.8-18.8-63.9c-3.7-5.2-7.9-6.4-10.9-6.4    c-8.5-0.2-14.6,7.5-21.8,16.4c-4.6,5.8-11.6,14.5-15.5,14.5s-10.9-8.7-15.5-14.5c-7.2-8.9-13.3-16.6-21.8-16.4    c-3,0.1-7.3,1.3-10.9,6.4c-12.2,17.2-18.8,39.9-18.8,63.9c0,9.3,1,18.5,3,27.3c-7.6-3.8-15.7-6.8-24.1-9    c-23.3-6-46.9-5.3-66.6,2.2c-5.9,2.2-8.2,6.1-9,8.9c-2.4,8.1,3.5,16.1,10.4,25.2c4.4,5.9,11.1,14.9,10.1,18.7    c-1,3.8-11.2,8.4-17.9,11.4c-10.5,4.7-19.5,8.7-21.4,17c-0.7,2.9-0.6,7.3,3.5,12.2c13.6,16.1,33.9,28.3,57.1,34.3    c5.6,1.4,11.2,2.5,16.7,3.2c-4,4.4-7.7,9.2-11.2,14.3c-13.4,20-20.4,42.6-19.9,63.6c0.2,6.3,3.1,9.7,5.5,11.4    c6.9,4.9,16.3,1.9,27.3-1.5c7-2.2,17.7-5.6,21-3.4c3.3,2.2,4.2,13.3,4.9,20.7c1,11.4,1.8,21.3,9,25.8c1.6,1,3.8,1.9,6.7,1.9    c1.7,0,3.7-0.3,6-1.2c19.7-7.5,37.8-22.7,51.2-42.7c1.7-2.6,3.3-5.2,4.8-7.8c1.5,2.7,3.1,5.3,4.8,7.8c13.4,20,31.5,35.1,51.2,42.7    c2.2,0.9,4.2,1.2,6,1.2c2.9,0,5.1-0.9,6.7-1.9c7.2-4.5,8-14.3,9-25.8c0.6-7.4,1.6-18.5,4.9-20.7c3.3-2.2,13.9,1.2,21,3.4    c10.9,3.4,20.4,6.4,27.3,1.5c2.4-1.7,5.3-5.1,5.5-11.4c0.5-21-6.5-43.6-19.9-63.6c-3.4-5.1-7.2-9.9-11.2-14.4    c5.6-0.7,11.2-1.7,16.7-3.2c23.3-6.1,43.6-18.2,57.1-34.3c4.1-4.8,4.2-9.3,3.5-12.2C436.8,242.6,427.7,238.5,417.3,233.8z     M219.6,94.3c2.5,1.9,6.5,7,9.1,10.2c7.6,9.4,16.1,20.1,27.2,20.1s19.7-10.7,27.2-20.1c2.6-3.2,6.7-8.3,9.1-10.2    c10.2,14.6,15.7,34,15.7,54.8c0,14.7-2.9,29-8.3,41.4c-2.2,5-4.8,9.7-7.8,13.9c-4.3,6.1-9.3,11.1-14.7,14.7c-4.4,3-9.1,5-13.8,6    v-17.8c11.1-3.3,19.3-13.6,19.3-25.7c0-14.8-12-26.8-26.8-26.8s-26.8,12-26.8,26.8c0,12.2,8.2,22.5,19.3,25.7V225    c-4.1-0.9-8.1-2.5-12-4.9c-2.8-6.4-6.7-12.6-11.6-18.5c-3.9-4.6-8.4-8.9-13.4-12.9c-5-12-7.6-25.6-7.6-39.7    C203.9,128.4,209.5,108.9,219.6,94.3z M272.3,255.4c0.6,2.4,1.4,4.7,2.4,6.9c0,0,0,0.1,0,0.1c1.1,2.5,2.3,4.9,3.8,7.2    c-4.6,1.4-8.9,3.5-12.8,6.2l-0.1,0.1c-0.4,0.3-0.9,0.6-1.3,0.9c-3,2.2-5.7,4.6-8.2,7.4c-2.5-2.8-5.2-5.2-8.2-7.4    c-0.4-0.3-0.9-0.6-1.3-0.9l-0.1-0.1c-4-2.7-8.3-4.7-12.8-6.2c1.5-2.3,2.7-4.7,3.8-7.3c1-2.3,1.8-4.6,2.4-7    c1.4-5.4,1.9-11.1,1.4-16.8c4.9,1.5,9.8,2.3,14.8,2.3c5,0,10-0.8,14.8-2.3C270.4,244.3,270.9,250,272.3,255.4z M256,193.3    C256,193.3,256,193.3,256,193.3C256,193.3,256,193.3,256,193.3c-6.6,0-11.9-5.3-11.9-11.8c0-6.5,5.3-11.8,11.8-11.8    s11.8,5.3,11.8,11.8C267.8,188,262.5,193.3,256,193.3z M88.7,253.8c2.4-1.9,8.4-4.6,12.2-6.3c11-4.9,23.5-10.5,26.3-21.3    c2.8-10.8-5.4-21.7-12.6-31.4c-2.5-3.3-6.4-8.5-7.6-11.4c16.7-6.2,36.9-6.7,57-1.5c13.7,3.6,26.4,9.6,36.8,17.5    c4.8,3.7,9.1,7.7,12.7,11.9c4.5,5.3,7.8,10.8,10,16.6c2.9,7.6,3.6,15.2,2,22.4l-24.7-6.8c-0.2-11.6-7.9-22.2-19.7-25.5    c-2.3-0.6-4.7-1-7.1-1c-12,0-22.6,8.1-25.8,19.7c-3.9,14.3,4.5,29,18.7,33c2.3,0.6,4.7,1,7.1,1c9.4,0,18-5,22.8-12.7l22.3,6.2    c-0.7,1-1.6,2-2.4,3c-8.4,0-17.1,1.7-26,5c-8.6,3.3-16.9,8.1-24.8,14.2c-9.3,0.1-18.8-1.1-28.2-3.5    C117.7,277.6,100.3,267.3,88.7,253.8z M185.4,247C185.4,247.1,185.4,247.1,185.4,247C185.4,247.1,185.4,247.1,185.4,247    c-1.4,5.1-6.1,8.7-11.4,8.7c-1.1,0-2.1-0.1-3.2-0.4c-6.3-1.7-10-8.3-8.2-14.5c1.4-5.1,6.1-8.7,11.4-8.7c1.1,0,2.1,0.1,3.2,0.4    C183.5,234.3,187.2,240.8,185.4,247z M195.2,417.9c-1-2.9-1.6-9.4-1.9-13.5c-1-12-2.2-25.7-11.5-31.8c-9.3-6.2-22.3-2.1-33.8,1.6    c-3.9,1.2-10.2,3.2-13.3,3.4c-0.3-17.8,5.8-37,17.4-54.3c6.1-9.1,13.3-17,21.3-23.6c7.2-5.9,14.9-10.4,22.8-13.4    c8.1-3.1,15.9-4.4,23.2-4c4.6,0.3,8.9,1.3,12.8,3l-18.3,23.8c-3.1-1.2-6.4-1.9-9.7-1.9c-8.4,0-16.1,3.8-21.3,10.5    c-9,11.7-6.8,28.6,4.9,37.6c4.7,3.6,10.4,5.6,16.3,5.6c0,0,0,0,0,0c8.4,0,16.1-3.8,21.3-10.5c4.4-5.7,6.3-12.7,5.3-19.8    c-0.6-4.5-2.3-8.8-4.9-12.4l18.7-24.3c1,1.1,2,2.3,2.9,3.5c-3.9,8.3-6.1,18.1-6.4,28.5c-0.3,12.4,2.1,25.7,6.9,38.6    c-2.5,5.7-5.6,11.3-9.2,16.7C227.2,398.3,211.7,411.4,195.2,417.9z M211.3,324.5C211.3,324.5,211.3,324.5,211.3,324.5    C211.3,324.5,211.3,324.5,211.3,324.5c2.5,1.9,4.1,4.7,4.5,7.9c0.4,3.1-0.4,6.2-2.4,8.7c-2.3,2.9-5.7,4.6-9.4,4.6    c-2.6,0-5.1-0.8-7.2-2.5c-5.2-4-6.1-11.4-2.2-16.6c2.3-2.9,5.7-4.6,9.4-4.6C206.8,322.1,209.2,322.9,211.3,324.5z M377.3,377.4    c-3.1-0.2-9.3-2.2-13.3-3.4c-11.5-3.6-24.5-7.7-33.8-1.5c-9.3,6.2-10.4,19.8-11.5,31.8c-0.4,4.1-0.9,10.6-1.9,13.5    c-16.6-6.5-32-19.5-43.5-36.8c-4.2-6.2-7.6-12.8-10.4-19.4c-4.9-11.9-7.3-24.1-7-35.4c0.3-9.7,2.5-18.5,6.6-25.5    c1.4-2.5,3.1-4.8,5-6.9l18.7,24.3c-2.6,3.6-4.3,7.8-4.9,12.4c-0.9,7.1,1,14.1,5.3,19.8c5.1,6.6,12.9,10.5,21.3,10.5    c6,0,11.6-1.9,16.3-5.6c11.7-9,13.9-25.9,4.9-37.6c-5.1-6.6-12.9-10.5-21.3-10.5c-3.4,0-6.7,0.6-9.7,1.9l-18.3-23.8    c3.1-1.3,6.3-2.2,9.8-2.7c6.1,5.2,13.4,9.5,21.8,12.7c9,3.4,18.7,5.4,29.1,6c7.3,6.2,13.9,13.6,19.5,22    C371.5,340.4,377.6,359.7,377.3,377.4z M300.7,324.5C300.7,324.5,300.7,324.5,300.7,324.5c2.1-1.6,4.6-2.5,7.2-2.5    c3.7,0,7.1,1.7,9.4,4.6c4,5.2,3,12.6-2.2,16.6c-2.1,1.6-4.6,2.5-7.2,2.5c-3.7,0-7.1-1.7-9.4-4.6c-1.9-2.5-2.8-5.6-2.4-8.7    C296.6,329.3,298.2,326.5,300.7,324.5C300.7,324.5,300.7,324.5,300.7,324.5z M374.2,282.8c-10.3,2.7-20.5,3.8-30.6,3.5    c-9.7-0.3-18.7-2.1-26.9-5.2c-7.7-2.9-14.2-6.9-19.3-11.8l-0.6-0.6c-1.4-1.5-2.8-3-3.9-4.6l22.3-6.2c4.8,7.7,13.4,12.7,22.8,12.7    c0,0,0,0,0,0c2.4,0,4.8-0.3,7.1-1c14.3-3.9,22.6-18.7,18.7-33c-3.2-11.6-13.8-19.7-25.8-19.7c-2.4,0-4.8,0.3-7.1,1    c-11.7,3.2-19.5,13.9-19.7,25.5l-24.7,6.8c-1.4-6.6-1-13.4,1.3-20.3c6.1-4.4,11.6-10.2,16.5-17c3.2-4.5,6-9.4,8.4-14.6    c10.1-7.4,22.3-13.1,35.4-16.5c20.1-5.2,40.3-4.7,57,1.5c-1.2,2.9-5.1,8.1-7.6,11.4c-7.2,9.7-15.4,20.6-12.6,31.4    c2.8,10.8,15.3,16.4,26.3,21.3c3.8,1.7,9.7,4.4,12.2,6.3C411.7,267.3,394.3,277.6,374.2,282.8z M334.8,232.5    c1-0.3,2.1-0.4,3.2-0.4c5.3,0,10,3.6,11.4,8.7c1.7,6.3-2,12.8-8.2,14.5c-1,0.3-2.1,0.4-3.2,0.4h0c-5.3,0-10-3.6-11.4-8.7    c0,0,0,0,0,0c0,0,0,0,0,0C324.8,240.8,328.5,234.3,334.8,232.5z" />
</svg>