<?xml version="1.0" ?>
<svg enable-background="new 0 0 32 32" height="32px" id="svg2" version="1.1" viewBox="0 0 32 32" width="32px"
    xml:space="preserve" xmlns="http://www.w3.org/2000/svg" xmlns:svg="http://www.w3.org/2000/svg">
    <path
        d="M26,20.101v-8.201c2.281-0.463,4-2.48,4-4.899c0-2.762-2.239-5-5-5s-5,2.238-5,5c0,2.419,1.719,4.436,4,4.899v8.201    c-0.638,0.13-1.229,0.384-1.754,0.731L11.168,9.755C11.691,8.964,12,8.019,12,7c0-2.762-2.239-5-5-5S2,4.238,2,7    c0,2.419,1.718,4.436,4,4.899v8.201C3.718,20.563,2,22.58,2,25c0,2.763,2.239,5,5,5s5-2.237,5-5c0-2.42-1.718-4.437-4-4.899    v-8.201c0.638-0.13,1.229-0.383,1.754-0.73l11.078,11.077C20.309,23.036,20,23.981,20,25c0,2.763,2.24,5,5,5s5-2.237,5-5    C30,22.58,28.281,20.564,26,20.101z" />
</svg>