<?xml version="1.0" ?>
<svg enable-background="new 0 0 48 48" height="48px" version="1.1" viewBox="0 0 48 48" width="48px" xml:space="preserve"
    xmlns="http://www.w3.org/2000/svg" xmlns:xlink="http://www.w3.org/1999/xlink">
    <defs>
        <linearGradient id="grad1" x1="0%" y1="0%" x2="100%" y2="0%">
            <stop offset="0%" style="stop-color:#b04dff;stop-opacity:1" />
            <stop offset="100%" style="stop-color:#4e4dff;stop-opacity:1" />
        </linearGradient>
        <linearGradient id="grad2" x1="0%" y1="0%" x2="100%" y2="0%">
            <stop offset="0%" style="stop-color:#476aff;stop-opacity:1" />
            <stop offset="100%" style="stop-color:#47dbff;stop-opacity:1" />
        </linearGradient>
    </defs>
    <g stroke="none" stroke-width="0" fill="url(#grad1)">
        <rect height="2" width="3" x="9" y="22" />
        <path
            d="M12,20H2.846C1.276,20,0,18.654,0,17V3c0-1.654,1.276-3,2.846-3h20.309C24.724,0,26,1.346,26,3v12h-2V3     c0-0.551-0.379-1-0.846-1H2.846C2.379,2,2,2.449,2,3v14c0,0.551,0.379,1,0.846,1H12V20z" />
        <path d="M9,24H5c-0.553,0-1-0.448-1-1s0.447-1,1-1h4c0.553,0,1,0.448,1,1S9.553,24,9,24z" />
        <rect height="2" width="26" y="14" />
    </g>
    <g stroke="none" stroke-width="0" fill="url(#grad2)">
        <path d="M31,48c-0.553,0-1-0.448-1-1v-4c0-0.552,0.447-1,1-1s1,0.448,1,1v4C32,47.552,31.553,48,31,48z" />
        <path d="M39.646,48H22c-0.553,0-1-0.448-1-1s0.447-1,1-1h17.646c0.553,0,1,0.448,1,1S40.199,48,39.646,48z" />
        <path
            d="M43.8,44H18.2c-2.316,0-4.2-2.063-4.2-4.6V22.6c0-2.536,1.884-4.6,4.2-4.6h25.6c2.316,0,4.2,2.063,4.2,4.6V39.4     C48,41.937,46.116,44,43.8,44z M18.2,20c-1.213,0-2.2,1.166-2.2,2.6V39.4c0,1.434,0.987,2.6,2.2,2.6h25.6     c1.213,0,2.2-1.166,2.2-2.6V22.6c0-1.434-0.987-2.6-2.2-2.6H18.2z" />
        <path d="M47,38H15c-0.553,0-1-0.448-1-1s0.447-1,1-1h32c0.553,0,1,0.448,1,1S47.553,38,47,38z" />
        <paths
            d="M31,39c-0.553,0-1,0.447-1,1c0,0.552,0.447,1,1,1c0.552,0,1-0.448,1-1C32,39.447,31.552,39,31,39L31,39z" />
    </g>
</svg>