<?xml version="1.0" ?>
<svg height="32" id="icon" viewBox="0 0 32 32" width="32" xmlns="http://www.w3.org/2000/svg">
  <defs>
    <linearGradient id="grad1" x1="0%" y1="0%" x2="100%" y2="100%">
      <stop offset="0%" style="stop-color:#9b23e0;stop-opacity:1" />
      <stop offset="100%" style="stop-color:#ef25b4;stop-opacity:1" />
    </linearGradient>
  </defs>
  <path stroke="none" stroke-width="0" fill="#c720c4"
    d="M29.707,19.293l-3-3a.9994.9994,0,0,0-1.414,0L16,25.5859V30h4.4141l9.2929-9.293A.9994.9994,0,0,0,29.707,19.293ZM19.5859,28H18V26.4141l5-5L24.5859,23ZM26,21.5859,24.4141,20,26,18.4141,27.5859,20Z" />
  <rect stroke="none" stroke-width="0" height="2" transform="translate(3 35) rotate(-90)" width="4" x="17" y="15"
    fill="#ef2539" />
  <rect stroke="none" stroke-width="0" height="2" transform="translate(0 30) rotate(-90)" width="6" x="12" y="14"
    fill="#ecc23e" />
  <rect stroke="none" stroke-width="0" height="2" transform="translate(-2 24) rotate(-90)" width="10" x="6" y="12"
    fill="#87c000" />
  <path stroke="none" stroke-width="0" fill="url(#grad1)"
    d="M12,30H6a2.0021,2.0021,0,0,1-2-2V4A2.0021,2.0021,0,0,1,6,2H22a2.0021,2.0021,0,0,1,2,2V14H22V4H6V28h6Z" />
</svg>