<?xml version="1.0" ?>
<svg style="enable-background:new 0 0 24 24;" version="1.1" viewBox="0 0 24 24" xml:space="preserve"
    xmlns="http://www.w3.org/2000/svg" stroke="none" stroke-width="0"  xmlns:xlink="http://www.w3.org/1999/xlink">
    <path
        d="M11.3,15.7c0.1,0.1,0.2,0.2,0.3,0.2C11.7,16,11.9,16,12,16s0.3,0,0.4-0.1c0.1-0.1,0.2-0.1,0.3-0.2l4-4    c0.4-0.4,0.4-1,0-1.4s-1-0.4-1.4,0L13,12.6V5c0-0.6-0.4-1-1-1s-1,0.4-1,1v7.6l-2.3-2.3c-0.4-0.4-1-0.4-1.4,0s-0.4,1,0,1.4    L11.3,15.7z" />
    <path
        d="M19,13c-0.6,0-1,0.4-1,1v2c0,1.1-0.9,2-2,2H8c-1.1,0-2-0.9-2-2v-2c0-0.6-0.4-1-1-1s-1,0.4-1,1v2c0,2.2,1.8,4,4,4h8    c2.2,0,4-1.8,4-4v-2C20,13.4,19.6,13,19,13z" />
</svg>