<?xml version="1.0" ?>
<svg version="1.1" viewBox="-16 -16 160 160" stroke="none" stroke-width="0" xml:space="preserve" xmlns="http://www.w3.org/2000/svg"
	xmlns:xlink="http://www.w3.org/1999/xlink">
	<path
		d="M24.027,89.479c-3.992,0-7.577,1.612-10.209,4.234V93.71c-2.625,2.627-4.239,6.207-4.239,10.186   c0,3.975,1.614,7.542,4.239,10.164c2.632,2.623,6.217,4.228,10.209,4.228c3.997,0,7.593-1.6,10.221-4.22l0.011-0.007   c2.627-2.622,4.232-6.192,4.241-10.164c-0.009-3.979-1.614-7.549-4.252-10.182C31.613,91.095,28.024,89.479,24.027,89.479z" />
	<path d="M13.818,114.067c0,0,0,0,0-0.007c-0.003,0-0.003,0-0.003,0L13.818,114.067z" />
	<path d="M34.248,93.71v0.003c0.007,0,0.007,0,0.007,0L34.248,93.71z" />
	<path
		d="M86.503,41.512C66.789,21.796,39.619,9.591,9.627,9.579v20.776c48.5,0.032,87.926,39.519,87.961,88.066h20.833   C118.406,88.416,106.212,61.232,86.503,41.512z" />
	<path
		d="M9.59,46.588v20.785c13.567,0.008,26.402,5.337,36.004,14.955c9.602,9.586,14.91,22.438,14.931,36.056h0.008v0.037H81.4   c-0.017-19.797-8.065-37.729-21.074-50.749C47.313,54.655,29.388,46.602,9.59,46.588z" />
</svg>