<?xml version="1.0" encoding="UTF-8"?>
<svg id="_图层_1" data-name="图层 1" xmlns="http://www.w3.org/2000/svg" version="1.1" viewBox="0 0 200 200">
    <defs>
        <linearGradient id="grad1" x1="0%" y1="0%" x2="100%" y2="0%">
            <stop offset="0%" style="stop-color:#73caf3;stop-opacity:1" />
            <stop offset="100%" style="stop-color:#5081f3;stop-opacity:1" />
        </linearGradient>
        <style>
            .cls-2,
            .cls-3 {
                stroke-width: 0px;
            }

            .cls-2 {
                fill: #345eab;
            }

            .cls-3 {
                fill: #2abced;
            }
        </style>
    </defs>
    <polygon fill="url(#grad1)" points="176 100 24 180.6 24 19.4 176 100" />
    <g>
        <path class="cls-2"
            d="M135.9,178.1h-5.1c-3.9,0-7.2-2.9-7.7-6.8-1.7-.5-3.4-1.2-5-2.1-3.1,2.4-7.5,2.2-10.2-.6l-3.5-3.6c-2.8-2.8-3.1-7.2-.6-10.3-.8-1.6-1.5-3.2-2-4.9-3.9-.5-6.8-3.8-6.8-7.7v-5.1c0-3.9,2.9-7.2,6.8-7.7.5-1.7,1.2-3.4,2-5-2.4-3.1-2.2-7.5.6-10.3l3.6-3.5c2.8-2.8,7.2-3.1,10.2-.6,1.6-.8,3.2-1.5,4.9-2.1.5-3.9,3.8-6.8,7.7-6.8h5.1c3.9,0,7.2,2.9,7.7,6.8,1.7.5,3.4,1.2,5,2.1,3.1-2.4,7.5-2.2,10.2.6l3.5,3.6c2.8,2.8,3.1,7.2.6,10.3.8,1.6,1.5,3.3,2,5,3.8.5,6.7,3.7,6.8,7.6v5.1c0,3.9-2.9,7.2-6.8,7.7-.5,1.7-1.2,3.4-2,5,2.4,3.1,2.2,7.5-.6,10.3l-3.6,3.5c-2.8,2.8-7.2,3.1-10.2.6-1.6.8-3.3,1.5-5,2.1-.5,3.8-3.7,6.8-7.6,6.8ZM117.7,163.5c.5,0,.9.1,1.3.4,2.3,1.3,4.7,2.3,7.2,3,1.2.3,2,1.4,1.9,2.6v.9c0,1.4,1.1,2.6,2.6,2.6h5.1c1.4,0,2.6-1.2,2.6-2.6v-1c0-1.2.8-2.3,1.9-2.6,2.5-.7,5-1.7,7.2-3,1-.6,2.3-.4,3.1.4l.7.7c1,1,2.6,1,3.6,0,0,0,0,0,0,0l3.6-3.6c1-1,1-2.6,0-3.6,0,0,0,0,0,0l-.7-.7c-.8-.8-1-2.1-.4-3.1,1.3-2.3,2.3-4.7,3-7.3.3-1.2,1.4-2,2.6-1.9h.9c1.4,0,2.6-1.2,2.6-2.6v-5.1c0-1.4-1.1-2.6-2.6-2.6h-1c-1.2,0-2.3-.8-2.6-1.9-.7-2.6-1.7-5-3-7.3-.6-1-.4-2.3.4-3.1l.7-.7c1-1,1-2.6,0-3.6,0,0,0,0,0,0l-3.5-3.6c-1-1-2.6-1-3.6,0,0,0,0,0,0,0l-.7.7c-.8.8-2.1,1-3.1.4-2.3-1.3-4.7-2.3-7.2-3-1.2-.3-2-1.4-1.9-2.6v-.9c0-1.4-1.1-2.6-2.6-2.6h-5.1c-1.4,0-2.6,1.2-2.6,2.6v1c0,1.2-.8,2.3-1.9,2.6-2.5.7-5,1.7-7.2,3-1,.6-2.3.4-3.1-.4l-.7-.8c-1-1-2.6-1-3.6,0,0,0,0,0,0,0l-3.6,3.6c-1,1-1,2.6,0,3.6,0,0,0,0,0,0l.7.7c.8.8,1,2.1.4,3.1-1.3,2.3-2.3,4.7-3,7.3-.3,1.2-1.4,2-2.6,1.9h-.9c-1.4,0-2.6,1.2-2.6,2.6v5.1c0,1.4,1.1,2.6,2.6,2.6h1c1.2,0,2.3.8,2.6,1.9.7,2.6,1.7,5,3,7.3.6,1,.4,2.3-.4,3.1l-.7.7c-1,1-1,2.6,0,3.6,0,0,0,0,0,0l3.5,3.6c1,1,2.6,1,3.6,0,0,0,0,0,0,0l.7-.7c.5-.5,1.1-.7,1.8-.7Z" />
        <path class="cls-3"
            d="M133.3,157.5c-9.9,0-17.9-8.1-17.9-18s8-18,17.9-18,17.9,8.1,17.9,18-8,18-17.9,18ZM133.3,126.6c-7.1,0-12.8,5.8-12.8,12.9s5.7,12.9,12.8,12.9,12.8-5.8,12.8-12.9-5.7-12.9-12.8-12.9Z" />
    </g>
</svg>