<?xml version="1.0" ?>
<svg xmlns="http://www.w3.org/2000/svg" xmlns:xlink="http://www.w3.org/1999/xlink" xmlns:serif="http://www.serif.com/"
    width="100%" height="100%" viewBox="0 0 64 64"
    style="fill-rule:evenodd;clip-rule:evenodd;stroke-linejoin:round;stroke-miterlimit:2;" stroke="none" stroke-width="0">
    <defs>
        <linearGradient id="pathGradient" x1="0%" y1="0%" x2="100%" y2="100%">
            <stop offset="0%" style="stop-color: #00ff32; stop-opacity: 1" />
            <stop offset="100%" style="stop-color: #00d363; stop-opacity: 1" />
        </linearGradient>
        <linearGradient id="pathGradient1" x1="0%" y1="0%" x2="100%" y2="100%">
            <stop offset="0%" style="stop-color: #1cfcdb; stop-opacity: 1" />
            <stop offset="100%" style="stop-color: #16b6cd; stop-opacity: 1" />
        </linearGradient>
        <linearGradient id="pathGradient2" x1="0%" y1="0%" x2="100%" y2="100%">
            <stop offset="0%" style="stop-color: #1bbfff; stop-opacity: 1" />
            <stop offset="100%" style="stop-color: #167bd8; stop-opacity: 1" />
        </linearGradient>
    </defs>
    <g fill="url(#pathGradient)" transform="matrix(1.625,0,0,1.04,-70.125,31.88)">
        <path
            d="M62.231,3C62.231,1.938 61.68,1.077 61,1.077L45,1.077C44.32,1.077 43.769,1.938 43.769,3L43.769,28C43.769,29.062 44.32,29.923 45,29.923L61,29.923C61.68,29.923 62.231,29.062 62.231,28L62.231,3ZM59.769,4.923L59.769,26.077C59.769,26.077 46.231,26.077 46.231,26.077C46.231,26.077 46.231,4.923 46.231,4.923L59.769,4.923Z" />
    </g>
    <g fill="url(#pathGradient1)" transform="matrix(1.625,0,0,1.04,-54.125,15.88)">
        <path
            d="M54.307,29.923L61,29.923C61.68,29.923 62.231,29.062 62.231,28L62.231,3C62.231,1.938 61.68,1.077 61,1.077L45,1.077C44.32,1.077 43.769,1.938 43.769,3L43.769,13.376C43.769,14.437 44.321,15.299 45,15.299C45.679,15.299 46.231,14.437 46.231,13.376L46.231,4.923C46.231,4.923 59.769,4.923 59.769,4.923C59.769,4.923 59.769,26.077 59.769,26.077C59.769,26.077 54.307,26.077 54.307,26.077C53.628,26.077 53.076,26.939 53.076,28C53.076,29.061 53.628,29.923 54.307,29.923Z" />
    </g>
    <g fill="url(#pathGradient2)" transform="matrix(1.625,0,0,1.04,-38.125,-0.12)">
        <path
            d="M54.307,29.923L61,29.923C61.68,29.923 62.231,29.062 62.231,28L62.231,3C62.231,1.938 61.68,1.077 61,1.077L45,1.077C44.32,1.077 43.769,1.938 43.769,3L43.769,13.376C43.769,14.437 44.321,15.299 45,15.299C45.679,15.299 46.231,14.437 46.231,13.376L46.231,4.923C46.231,4.923 59.769,4.923 59.769,4.923C59.769,4.923 59.769,26.077 59.769,26.077C59.769,26.077 54.307,26.077 54.307,26.077C53.628,26.077 53.076,26.939 53.076,28C53.076,29.061 53.628,29.923 54.307,29.923Z" />
    </g>
</svg>