<?xml version="1.0" ?>
<svg fill="none" height="24" viewBox="1 1 22 22" width="24" xmlns="http://www.w3.org/2000/svg">
    <path clip-rule="evenodd"
        d="M3 6H21V18H3L3 6ZM1 6C1 4.89543 1.89543 4 3 4H21C22.1046 4 23 4.89543 23 6V18C23 19.1046 22.1046 20 21 20H3C1.89543 20 1 19.1046 1 18V6ZM7 15C6.44772 15 6 14.5523 6 14V13H5C4.44772 13 4 12.5523 4 12C4 11.4477 4.44772 11 5 11H6V10C6 9.44772 6.44772 9 7 9C7.55229 9 8 9.44772 8 10V11H9C9.55228 11 10 11.4477 10 12C10 12.5523 9.55229 13 9 13H8V14C8 14.5523 7.55228 15 7 15ZM17 11C17.5523 11 18 10.5523 18 10C18 9.44772 17.5523 9 17 9C16.4477 9 16 9.44772 16 10C16 10.5523 16.4477 11 17 11ZM18 14C18 14.5523 17.5523 15 17 15C16.4477 15 16 14.5523 16 14C16 13.4477 16.4477 13 17 13C17.5523 13 18 13.4477 18 14ZM18 12C18 12.5523 18.4477 13 19 13C19.5523 13 20 12.5523 20 12C20 11.4477 19.5523 11 19 11C18.4477 11 18 11.4477 18 12ZM15 13C14.4477 13 14 12.5523 14 12C14 11.4477 14.4477 11 15 11C15.5523 11 16 11.4477 16 12C16 12.5523 15.5523 13 15 13Z"
        fill-rule="evenodd" stroke="none" />
</svg>