<?xml version="1.0" ?>
<svg viewBox="0 0 512 512" xmlns="http://www.w3.org/2000/svg">
    <path
        d="M152 256h144C309.3 256 320 245.3 320 232S309.3 208 296 208h-144C138.8 208 128 218.8 128 232S138.8 256 152 256zM152 160h208C373.3 160 384 149.3 384 136S373.3 112 360 112h-208C138.8 112 128 122.8 128 136S138.8 160 152 160zM152 352h272c13.25 0 24-10.75 24-24S437.3 304 424 304h-272C138.8 304 128 314.8 128 328S138.8 352 152 352zM488 432H48V56C48 42.75 37.25 32 24 32S0 42.75 0 56V448c0 17.59 14.41 32 32 32h456c13.25 0 24-10.75 24-24S501.3 432 488 432z" />
</svg>