<?xml version="1.0" ?>
<svg enable-background="new 0 0 800 800" id="Layer_1" version="1.1" viewBox="0 0 800 800"
    xml:space="preserve" xmlns="http://www.w3.org/2000/svg" xmlns:xlink="http://www.w3.org/1999/xlink">
     <path
            d="M196.3,427.7c6.4,6.4,13.9,9.6,22.4,9.6h138.7v293.3c0,18.1,13.9,32,32,32h53.3c18.1,0,32-13.9,32-32V437.3H656   c18.1,0,32-13.9,32-32v-256c0-18.1-13.9-32-32-32H474.7V64c0-18.1-13.9-32-32-32h-53.3c-18.1,0-32,13.9-32,32v53.3H218.7   c-8.5,0-17.1,3.2-22.4,9.6l-128,128c-12.8,12.8-12.8,33.1,0,44.8L196.3,427.7z M231.5,181.3H624v192H231.5l-96-96L231.5,181.3z" />
</svg>