<?xml version="1.0" ?>
<svg viewBox="0 0 32 32" xmlns="http://www.w3.org/2000/svg">
    <path
        d="M29,0H3A3,3,0,0,0,0,3V29a3,3,0,0,0,3,3H29a3,3,0,0,0,3-3V3A3,3,0,0,0,29,0Zm1,29a1,1,0,0,1-1,1H3a1,1,0,0,1-1-1V3A1,1,0,0,1,3,2H29a1,1,0,0,1,1,1Z" />
    <path d="M24,5a3,3,0,1,0,3,3A3,3,0,0,0,24,5Zm0,4a1,1,0,1,1,1-1A1,1,0,0,1,24,9Z" />
    <path
        d="M24,21a3,3,0,0,0-2.82,2H18.82a3,3,0,0,0-5.63,0H10.82A3,3,0,0,0,9,21.18V18.82A3,3,0,0,0,10.82,17h2.37A3,3,0,1,0,17,13.18V10.82A3,3,0,1,0,13.18,7H10.82a3,3,0,1,0,0,2h2.37A3,3,0,0,0,15,10.82v2.37A3,3,0,0,0,13.18,15H10.82A3,3,0,1,0,7,18.82v2.37A3,3,0,1,0,10.82,25h2.37a3,3,0,0,0,5.63,0h2.37A3,3,0,1,0,24,21ZM8,9A1,1,0,1,1,9,8,1,1,0,0,1,8,9Zm8-2a1,1,0,1,1-1,1A1,1,0,0,1,16,7Zm0,8a1,1,0,1,1-1,1A1,1,0,0,1,16,15ZM8,15a1,1,0,1,1-1,1A1,1,0,0,1,8,15ZM8,25a1,1,0,1,1,1-1A1,1,0,0,1,8,25Zm8,0a1,1,0,1,1,1-1A1,1,0,0,1,16,25Zm8,0a1,1,0,1,1,1-1A1,1,0,0,1,24,25Z" />
    <path d="M24,13a3,3,0,1,0,3,3A3,3,0,0,0,24,13Zm0,4a1,1,0,1,1,1-1A1,1,0,0,1,24,17Z" />
</svg>