<?xml version="1.0" ?>
<svg viewBox="0 0 512 512" xmlns="http://www.w3.org/2000/svg">
    <path stroke="null" stroke-width="0"
        d="M340 312.8C319.2 337.8 288.5 352.1 256 352.1s-63.21-14.38-84.04-39.38c-8.477-10.25-23.61-11.5-33.79-3.125c-10.17 8.5-11.5 23.62-3.027 33.75C165.1 379.4 209.3 400 256 400s90.94-20.62 120.9-56.63c8.598-10.12 7.145-25.25-3.027-33.75S348.5 302.5 340 312.8zM175.1 240c17.8 0 32.09-14.25 32.09-32s-14.29-32-32.09-32c-17.68 0-31.97 14.25-31.97 32S158.3 240 175.1 240zM336 180.1c-25.79 0-55.85 16.88-59.85 42.13c-1.695 11.12 11.5 18.12 19.74 10.75l9.566-8.5c14.77-13.12 46.14-13.12 61.03 0l9.354 8.406c8.477 7.375 21.86 .4687 20.04-10.66C392 196.1 361.7 180.1 336 180.1zM256 0C114.6 0 0 114.6 0 256s114.6 256 256 256s256-114.6 256-256S397.4 0 256 0zM256 464c-114.7 0-208-93.31-208-208S141.3 48 256 48s208 93.31 208 208S370.7 464 256 464z" />
</svg>