<?xml version="1.0" ?>
<svg viewBox="0 0 512 512" xmlns="http://www.w3.org/2000/svg">
    <path stroke="none" stroke-width="0"
        d="M256 312c-33.54 0-65.15 14.75-86.82 40.63c-8.477 10.12-7.023 25.25 3.148 33.75s25.31 7.25 33.79-3c24.82-29.62 74.96-29.62 99.78 0c8.113 9.75 23.25 11.88 33.79 3c10.17-8.5 11.5-23.62 3.148-33.75C321.1 326.8 289.5 312 256 312zM208 240c10.29 0 19.86-6.75 23.01-17.12C234.8 210.3 227.5 196.8 214.9 193l-80.04-24c-12.84-3.875-26.16 3.375-29.91 16.12C101.2 197.8 108.4 211.3 121.1 215l28.21 8.5C146.2 228.4 143.1 233.8 143.1 240c0 17.62 14.38 32 32.06 32C193.8 272 208 257.8 208 240zM407 185.1c-3.754-12.75-17.07-19.88-29.91-16.12l-80.04 24c-12.59 3.75-19.86 17.25-16.11 29.88C284.1 233.3 293.8 240 304 240c0 17.75 14.2 32 31.1 32c17.68 0 32.06-14.25 32.06-32c0-6.25-2.271-11.75-5.419-16.62l28.21-8.5C403.6 211.3 410.8 197.8 407 185.1zM256 0C114.6 0 0 114.6 0 256s114.6 256 256 256s256-114.6 256-256S397.4 0 256 0zM256 464c-114.7 0-208-93.31-208-208S141.3 48 256 48s208 93.31 208 208S370.7 464 256 464z" />
</svg>