<?xml version="1.0" ?>
<svg viewBox="0 0 512 512" xmlns="http://www.w3.org/2000/svg">
    <path stroke="none" stroke-width="0"
        d="M336 240c17.68 0 31.99-14.25 31.99-32s-14.31-32-31.99-32c-17.8 0-32.02 14.25-32.02 32S318.2 240 336 240zM175.1 240c17.8 0 32.02-14.25 32.02-32s-14.22-32-32.02-32c-17.68 0-31.99 14.25-31.99 32S158.3 240 175.1 240zM340 312.6C319.2 337.6 288.5 352 256 352s-63.21-14.25-84.04-39.38c-8.477-10.25-23.61-11.5-33.79-3.125C128 318 126.7 333.1 135.1 343.3c29.91 36 74.11 56.73 120.9 56.73s90.94-20.73 120.9-56.73c8.598-10.12 7.145-25.25-3.027-33.75C363.7 301.1 348.5 302.4 340 312.6zM256 0C114.6 0 0 114.6 0 256s114.6 256 256 256s256-114.6 256-256S397.4 0 256 0zM256 464c-114.7 0-208-93.31-208-208S141.3 48 256 48s208 93.31 208 208S370.7 464 256 464z" />
</svg>