<?xml version="1.0" ?>
<svg enable-background="new 0 0 32 32" height="32px" version="1.1" viewBox="0 0 32 32" width="32px"
    xmlns="http://www.w3.org/2000/svg" stroke="none" stroke-width="0" xmlns:xlink="http://www.w3.org/1999/xlink">
    <path
        d="M31.286,0.469C30.923,0.164,30.468,0,30.001,0c-0.115,0-0.232,0.01-0.348,0.031l-17.002,3  C11.695,3.199,10.999,4.029,10.999,5v2v1v14.17C9.984,21.434,8.667,21,7.205,21c-0.85,0-1.7,0.141-2.529,0.416  C2.778,22.049,1.256,23.318,0.5,24.9c-0.584,1.223-0.659,2.553-0.214,3.746C1.047,30.684,3.209,32,5.794,32  c0.85,0,1.7-0.139,2.528-0.416c1.897-0.631,3.419-1.9,4.175-3.48c0.325-0.682,0.477-1.396,0.483-2.104h0.018V10  c0.115,0,0.232-0.01,0.348-0.029l16.655-2.939V19.17C28.985,18.434,27.669,18,26.206,18c-0.85,0-1.701,0.141-2.529,0.416  c-1.898,0.633-3.42,1.902-4.174,3.484c-0.584,1.223-0.66,2.553-0.215,3.746C20.05,27.684,22.21,29,24.796,29  c0.85,0,1.701-0.139,2.529-0.416c1.896-0.631,3.418-1.9,4.174-3.48c0.326-0.682,0.477-1.396,0.484-2.104h0.018V5V4V2  C32.001,1.41,31.739,0.848,31.286,0.469z M7.688,29.688c-2.396,0.799-4.873,0.018-5.529-1.74c-0.658-1.76,0.751-3.834,3.146-4.633  c2.396-0.799,4.873-0.02,5.529,1.74C11.493,26.814,10.084,28.889,7.688,29.688z M26.653,26.688c-2.398,0.799-4.875,0.018-5.531-1.74  c-0.658-1.76,0.752-3.834,3.146-4.633c2.398-0.799,4.875-0.02,5.531,1.74C30.458,23.814,29.05,25.889,26.653,26.688z M29.96,5  L12.958,8V7V5L29.96,2v2V5z" />
</svg>