<?xml version="1.0" ?>
<svg viewBox="0 0 512 512" xmlns="http://www.w3.org/2000/svg">
    <path stroke="none" stroke-width="0"
        d="M256 0C114.6 0 0 114.6 0 256s114.6 256 256 256s256-114.6 256-256S397.4 0 256 0zM256 464c-114.7 0-208-93.31-208-208S141.3 48 256 48s208 93.31 208 208S370.7 464 256 464zM175.1 240c17.8 0 32.09-14.25 32.09-32s-14.29-32-32.09-32c-17.68 0-31.97 14.25-31.97 32S158.3 240 175.1 240zM336 240c17.68 0 31.97-14.25 31.97-32s-14.29-32-31.97-32c-17.8 0-32.09 14.25-32.09 32S318.2 240 336 240zM256 272c-86.31 0-121.2 65.16-127.6 99.63C126 384.6 134.5 396.1 147.5 399.5c12.81 2.438 25.5-6 28.09-18.91C176.8 374.4 189.7 320 256 320s79.19 54.38 80.41 60.38C338.5 391.9 348.6 400 359.1 400c1.469 0 2.938-.125 4.406-.4062c13.03-2.406 21.62-14.94 19.22-27.97C377.2 337.2 342.3 272 256 272z" />
</svg>