<?xml version="1.0" ?>
<svg height="32" id="icon" viewBox="0 0 32 32" width="32" xmlns="http://www.w3.org/2000/svg">
  <path stroke="none" stroke-width="0"
    d="M16,2a8,8,0,1,0,8,8A8.0092,8.0092,0,0,0,16,2Zm5.91,7H19.4724a15.2457,15.2457,0,0,0-.7917-4.36A6.0088,6.0088,0,0,1,21.91,9ZM16.022,15.999h-.0076c-.3813-.1206-1.3091-1.8213-1.479-4.999h2.9292C17.2952,14.1763,16.3711,15.877,16.022,15.999ZM14.5354,9c.1694-3.1763,1.0935-4.877,1.4426-4.999h.0076c.3813.1206,1.3091,1.8213,1.479,4.999ZM13.3193,4.64A15.2457,15.2457,0,0,0,12.5276,9H10.09A6.0088,6.0088,0,0,1,13.3193,4.64ZM10.09,11h2.4373a15.2457,15.2457,0,0,0,.7917,4.36A6.0088,6.0088,0,0,1,10.09,11Zm8.59,4.36A15.2457,15.2457,0,0,0,19.4724,11H21.91A6.0088,6.0088,0,0,1,18.6807,15.36Z" />
  <path stroke="none" stroke-width="0"
    d="M28,30H4a2.0021,2.0021,0,0,1-2-2V22a2.0021,2.0021,0,0,1,2-2H28a2.0021,2.0021,0,0,1,2,2v6A2.0021,2.0021,0,0,1,28,30ZM4,22v6H28V22Z" />
  <circle cx="7" cy="25" r="1" />
</svg>