<?xml version="1.0" ?>
<svg viewBox="0 0 512 512" xmlns="http://www.w3.org/2000/svg">
    <path stroke="none" stroke-width="0"
        d="M336.1 240c17.68 0 31.95-14.25 31.95-32s-14.27-32-31.95-32c-17.8 0-32.07 14.25-32.07 32S318.3 240 336.1 240zM335.1 272H176c-26.48 0-47.95 21.47-47.95 47.95L128 336c0 26.51 21.51 48 48.02 48h159.9c26.51 0 48.02-21.49 48.02-48L383.1 320C383.1 293.5 362.5 272 335.1 272zM184 352H176c-8.822 0-15.98-7.178-15.98-16L160 319.1C160 311.2 167.2 304 176 304h8V352zM240 352H216l.026-48H240V352zM296 352H272V304h23.97L296 352zM351.1 336c0 8.822-7.154 16-15.98 16H328V304h7.953c8.822 0 16.02 7.178 16.02 16L351.1 336zM175.9 240c17.8 0 32.07-14.25 32.07-32s-14.27-32-32.07-32c-17.68 0-31.95 14.25-31.95 32S158.3 240 175.9 240zM256 0C114.6 0 0 114.6 0 256s114.6 256 256 256s256-114.6 256-256S397.4 0 256 0zM256 464c-114.7 0-208-93.31-208-208S141.3 48 256 48s208 93.31 208 208S370.7 464 256 464z" />
</svg>