<?xml version="1.0" ?>
<svg
    version="1.1" viewBox="-16 -16 544 544" xml:space="preserve"
    xmlns="http://www.w3.org/2000/svg" xmlns:xlink="http://www.w3.org/1999/xlink">
    <path
        d="M511,215.9l-110.2-140c-1-1.3-2.6-2.1-4.2-2.4c-9.5-12.6-25.2-20.7-43.9-20.7h-30  c-6,31.4-33.6,55.1-66.7,55.1s-60.7-23.7-66.7-55.1h-30.8c-19.4,0-36.5,8.8-46.4,22.3c-0.3,0.3-0.6,0.5-0.9,0.8L1,215.9  c-1.1,1.4-1.5,3.3-1.1,5c0.4,1.7,1.6,3.2,3.3,4.1l99.8,52.5l0.1,179.7h303.2l0.1-178.2L508.8,225c1.7-0.9,2.9-2.4,3.3-4.1  C512.5,219.2,512.1,217.3,511,215.9z"
        stroke="#000" fill="#0000" stroke-width="20" />
</svg>