<?xml version="1.0" ?>
<svg viewBox="0 0 512 512" xmlns="http://www.w3.org/2000/svg">
    <path stroke="none" stroke-width="0"
        d="M276.9 344.4C298.6 335.3 311.9 321 311.9 308c0-19.25-28.7-41.5-71.45-44C236.7 263.6 233.1 266.4 232.3 270.3C231.4 274 233.4 277.9 236.1 279.4l16.95 7.25c12.96 5.5 20.71 13.5 20.71 21.5s-7.75 16-20.71 21.5l-16.95 7.125c-5.691 2.5-5.934 12.25 0 14.88l16.95 7.125c12.96 5.5 20.71 13.5 20.71 21.5s-7.75 16-20.71 21.5L236.1 409c-3.633 1.5-5.57 5.375-4.723 9.25c.8477 3.5 4.117 6.125 7.871 6.125h.4844c42.75-2.5 71.45-24.75 71.45-44C312.1 367.4 298.7 353.1 276.9 344.4zM175.9 176c-17.68 0-31.97 14.25-31.97 32s14.29 32 31.97 32c17.8 0 32.09-14.25 32.09-32S193.7 176 175.9 176zM336.1 176c-17.8 0-32.07 14.25-32.07 32s14.27 32 32.07 32c17.68 0 31.95-14.25 31.95-32S353.7 176 336.1 176zM256 0C114.6 0 0 114.6 0 256s114.6 256 256 256s256-114.6 256-256S397.4 0 256 0zM256 464c-114.7 0-208-93.31-208-208S141.3 48 256 48s208 93.31 208 208S370.7 464 256 464z" />
</svg>