<?xml version="1.0" ?>
<svg height="8.4666mm" version="1.1" viewBox="0 0 846.66 846.66" width="8.4666mm" xml:space="preserve"
      xmlns="http://www.w3.org/2000/svg" xmlns:xlink="http://www.w3.org/1999/xlink">
      <path
            d="M577.67 587.86l0 -255.4c0,-2.19 0.34,-4.3 0.97,-6.28 10.69,-45.18 -2.41,-91.89 -21.87,-132.79l-266.88 0c-19.65,41.32 -32.8,88.57 -21.54,134.15 0.4,1.65 0.59,3.3 0.6,4.92l0.04 255.4c51.66,29.8 103.11,44.7 154.34,44.7 51.23,0 102.68,-14.9 154.34,-44.7zm-21.05 -435.79c9.41,-20.38 15.01,-37.87 16.79,-52.45 3.24,-26.62 -6.37,-39.32 -32.41,-45.04 -17.77,-3.91 -41.44,-3.98 -71.01,-0.21 -0.87,0.11 -1.73,0.16 -2.59,0.16l-88.14 0.08c-1.5,0 -2.97,-0.16 -4.38,-0.47 -28.73,-3.53 -51.81,-3.39 -69.22,0.44 -26.04,5.71 -35.65,18.42 -32.41,45.04 1.78,14.58 7.38,32.07 16.79,52.45l266.58 0zm-112.63 623.77l80.64 19.7c26.32,6.37 16.65,46.39 -9.68,40.03l-91.62 -22.38 -91.62 22.38c-26.33,6.36 -36,-33.66 -9.68,-40.03l80.64 -19.7 0 -102.66c-54.78,-3.7 -109.37,-22.12 -163.77,-55.25 -6.66,-3.43 -11.22,-10.38 -11.22,-18.39l0 -264.87c-12.78,-55.43 2.17,-111.98 26.47,-162.05 -12.21,-25.84 -19.51,-48.51 -21.89,-67.99 -5.86,-48.08 17.6,-80.06 64.69,-90.4 21.68,-4.76 49.34,-5.07 82.95,-0.94l86.86 0c33.62,-4.13 61.28,-3.82 82.96,0.94 47.08,10.34 70.54,42.32 64.68,90.4 -2.38,19.48 -9.68,42.15 -21.89,67.99 24.3,50.06 39.26,106.63 26.48,162.05l-0.05 264.87c-0.01,6.94 -3.52,13.72 -9.88,17.59 -54.83,33.64 -109.85,52.32 -165.07,56.05l0 102.66z" />
</svg>