<?xml version="1.0" ?>
<svg enable-background="new 0 0 32 32" height="32px" version="1.1" viewBox="0 0 32 32"
    width="32px" xml:space="preserve" xmlns="http://www.w3.org/2000/svg" xmlns:svg="http://www.w3.org/2000/svg">
    <path
            d="M22,8h-4V2h-4v6h-4l6,6L22,8z M23,14c-2.143,0-4.106,0.751-5.652,2H2v8h12.059C14.557,28.5,18.367,32,23,32   c4.971,0,9-4.028,9-8.999C32,18.029,27.971,14,23,14z M8,22.001H4v-2h4V22.001z M23,30c-3.865-0.008-6.994-3.135-7-6.999   c0.006-3.865,3.135-6.995,7-7c3.864,0.006,6.991,3.135,6.999,7C29.991,26.865,26.864,29.992,23,30z" />
        <path
            d="M28,24v-2.001h-1.663c-0.063-0.212-0.145-0.413-0.245-0.606l1.187-1.187l-1.416-1.415l-1.165,1.166   c-0.22-0.123-0.452-0.221-0.697-0.294V18h-2v1.662c-0.229,0.068-0.446,0.158-0.652,0.27l-1.141-1.14l-1.415,1.415l1.14,1.14   c-0.112,0.207-0.202,0.424-0.271,0.653H18v2h1.662c0.073,0.246,0.172,0.479,0.295,0.698l-1.165,1.163l1.413,1.416l1.188-1.187   c0.192,0.101,0.394,0.182,0.605,0.245V28H24v-1.665c0.229-0.068,0.445-0.158,0.651-0.27l1.212,1.212l1.414-1.416l-1.212-1.21   c0.111-0.206,0.201-0.423,0.27-0.651H28z M22.999,24.499c-0.829-0.002-1.498-0.671-1.501-1.5c0.003-0.829,0.672-1.498,1.501-1.501   c0.829,0.003,1.498,0.672,1.5,1.501C24.497,23.828,23.828,24.497,22.999,24.499z" />
</svg>