<?xml version="1.0" encoding="UTF-8"?>
<svg id="_图层_1" data-name="图层 1" xmlns="http://www.w3.org/2000/svg" viewBox="0 0 16 16">
  <defs>
    <style>
      .cls-1, .cls-2 {
        fill: #dad893;
      }

      .cls-3 {
        fill: #dfdce2;
      }

      .cls-3, .cls-4, .cls-5, .cls-6, .cls-7, .cls-8, .cls-9, .cls-10, .cls-2, .cls-11, .cls-12, .cls-13, .cls-14 {
        fill-rule: evenodd;
      }

      .cls-4, .cls-15 {
        fill: #e3dedf;
      }

      .cls-16 {
        fill: #a76c31;
      }

      .cls-17, .cls-8 {
        fill: #42440e;
      }

      .cls-5 {
        fill: #15161b;
      }

      .cls-6, .cls-18 {
        fill: #3d52aa;
      }

      .cls-19, .cls-7 {
        fill: #bec12c;
      }

      .cls-9, .cls-20 {
        fill: #2f3109;
      }

      .cls-10, .cls-21 {
        fill: #dedf91;
      }

      .cls-11 {
        fill: #c8cb11;
      }

      .cls-12, .cls-22 {
        fill: #6d701a;
      }

      .cls-13 {
        fill: #feff01;
      }

      .cls-14 {
        fill: #4468d8;
      }
    </style>
  </defs>
  <polygon class="cls-10" points="15 6 15 5 14 5 14 4 14 3 13 3 13 2 12 2 12 1 11 1 10 1 10 0 9 0 8 0 7 0 6 0 6 1 5 1 4 1 4 2 3 2 3 3 2 3 2 4 2 5 1 5 1 6 0 6 0 6.75 0 7.5 0 8.25 0 9 0 10 1 10 1 10.67 1 11 1 11.33 1 12 2 12 2 13 3 13 3 14 4 14 4 15 5 15 6 15 6 16 7 16 8 16 9 16 10 16 10 15 11 15 12 15 12 14 13 14 13 13 14 13 14 12 15 12 15 11.33 15 11 15 10.67 15 10 16 10 16 9.43 16 8.86 16 8.29 16 7.71 16 7.14 16 6.57 16 6 15 6"/>
  <polygon class="cls-11" points="8 3 7 3 7 4 8 4 9 4 9 3 8 3"/>
  <g>
    <polygon class="cls-2" points="9 1 8 1 7 1 6 1 6 2 7 2 8 2 9 2 10 2 10 1 9 1"/>
    <polygon class="cls-2" points="4 2 4 3 5 3 6 3 6 2 5 2 4 2"/>
    <polygon class="cls-2" points="12 2 11 2 10 2 10 3 11 3 12 3 12 2"/>
    <polygon class="cls-2" points="3 4 3 5 4 5 4 4 4 3 3 3 3 4"/>
    <rect class="cls-1" x="12" y="4" width="1" height="1"/>
  </g>
  <polygon class="cls-13" points="9 4 8 4 7 4 6 4 6 5 6 6 7 6 7 7 8 7 9 7 9 6 10 6 10 5 10 4 9 4"/>
  <g>
    <polygon class="cls-14" points="6 5 5 5 5 6 5 7 5 8 6 8 7 8 7 7 7 6 6 6 6 5"/>
    <polygon class="cls-14" points="11 5 11 4 10 4 10 5 10 6 9 6 9 7 10 7 10 8 11 8 12 8 12 7 12 6 12 5 11 5"/>
  </g>
  <g>
    <polygon class="cls-6" points="12 3 11 3 10 3 10 2 9 2 8 2 7 2 6 2 6 3 5 3 4 3 4 4 4 5 3 5 3 6 3 7 3 8 4 8 5 8 5 7 5 6 5 5 6 5 6 4 7 4 7 3 8 3 9 3 9 4 10 4 11 4 11 5 12 5 12 4 12 3"/>
    <polygon class="cls-6" points="12 5 12 6 12 7 12 8 13 8 13 7 13 6 13 5 12 5"/>
    <rect class="cls-18" x="9" y="7" width="1" height="1"/>
  </g>
  <g>
    <polygon class="cls-5" points="5 8 4 8 4 9 5 9 6 9 7 9 7 8 6 8 5 8"/>
    <polygon class="cls-5" points="11 8 10 8 9 8 9 9 10 9 11 9 12 9 12 8 11 8"/>
  </g>
  <g>
    <rect class="cls-15" x="12" y="3" width="1" height="1"/>
    <polygon class="cls-4" points="13 5 13 6 13 7 13 8 14 8 14 7 14 6 14 5 13 5"/>
    <rect class="cls-15" x="7" y="7" width="1" height="1"/>
    <rect class="cls-15" x="3" y="8" width="1" height="1"/>
    <rect class="cls-15" x="12" y="8" width="1" height="1"/>
    <polygon class="cls-4" points="5 9 4 9 4 10 5 10 6 10 7 10 7 9 6 9 5 9"/>
    <polygon class="cls-4" points="10 9 9 9 9 10 10 10 11 10 12 10 12 9 11 9 10 9"/>
  </g>
  <g>
    <polygon class="cls-10" points="13 8 13 9 12 9 12 10 11 10 10 10 9 10 9 9 9 8 9 7 8 7 8 8 7 8 7 9 7 10 6 10 5 10 4 10 4 9 3 9 3 8 3 7 3 6 3 5 2 5 2 6 2 7 2 8 2 9 2 10 3 10 3 11 4 11 4 12 5 12 6 12 6 13 7 13 8 13 9 13 10 13 10 12 11 12 12 12 12 11 13 11 13 10 14 10 14 9 14 8 13 8"/>
    <rect class="cls-21" x="2" y="11" width="1" height="1"/>
    <rect class="cls-21" x="3" y="12" width="1" height="1"/>
  </g>
  <polygon class="cls-3" points="4 13 5 13 5 14 4 14 4 13 4 13"/>
  <g>
    <rect class="cls-22" x="2" y="10" width="1" height="1"/>
    <rect class="cls-22" x="13" y="10" width="1" height="1"/>
    <rect class="cls-22" x="3" y="11" width="1" height="1"/>
    <rect class="cls-22" x="12" y="11" width="1" height="1"/>
    <polygon class="cls-12" points="5 12 4 12 4 13 5 13 6 13 6 12 5 12"/>
    <polygon class="cls-12" points="10 12 10 13 11 13 12 13 12 12 11 12 10 12"/>
    <polygon class="cls-12" points="8 13 7 13 6 13 6 14 7 14 8 14 9 14 10 14 10 13 9 13 8 13"/>
  </g>
  <g>
    <rect class="cls-16" x="13" y="11" width="1" height="1"/>
    <rect class="cls-16" x="12" y="12" width="1" height="1"/>
    <rect class="cls-16" x="11" y="13" width="1" height="1"/>
  </g>
  <g>
    <rect class="cls-19" x="5" y="13" width="1" height="1"/>
    <rect class="cls-19" x="10" y="13" width="1" height="1"/>
    <polygon class="cls-7" points="8 14 7 14 6 14 6 15 7 15 8 15 9 15 10 15 10 14 9 14 8 14"/>
  </g>
  <g>
    <polygon class="cls-8" points="9 .02 8 .02 7 .02 6 .02 6 1.02 7 1.02 8 1.02 9 1.02 10 1.02 10 .02 9 .02"/>
    <polygon class="cls-8" points="4 1.02 4 2.02 5 2.02 6 2.02 6 1.02 5 1.02 4 1.02"/>
    <polygon class="cls-8" points="11 1.02 10 1.02 10 2.02 11 2.02 12 2.02 12 1.02 11 1.02"/>
    <rect class="cls-17" x="3" y="2.02" width="1" height="1"/>
    <rect class="cls-17" x="12" y="2.02" width="1" height="1"/>
    <rect class="cls-17" x="13" y="3.02" width="1" height="1"/>
    <polygon class="cls-8" points="0 6.77 0 7.52 0 8.27 0 9.02 1 9.02 1 8.27 1 7.52 1 6.77 1 6.02 0 6.02 0 6.77"/>
    <polygon class="cls-8" points="2 4 1 4 1 5 1 6 2 6 2 5 2 4.02 3 4.02 3 3.02 2 3.02 2 4"/>
  </g>
  <g>
    <polygon class="cls-9" points="15 4 14 4 14 5 14 6 15 6 15 5 15 4"/>
    <polygon class="cls-9" points="15 6 15 6.57 15 7.14 15 7.71 15 8.29 15 8.86 15 9.43 15 10 16 10 16 9.43 16 8.86 16 8.29 16 7.71 16 7.14 16 6.57 16 6 15 6"/>
    <polygon class="cls-9" points="2 10.67 2 10 1 10 1 10.67 1 11.33 1 12 2 12 2 11.33 2 10.67"/>
    <rect class="cls-20" x="2" y="12" width="1" height="1"/>
    <rect class="cls-20" x="13" y="12" width="1" height="1"/>
    <rect class="cls-20" x="3" y="13" width="1" height="1"/>
    <rect class="cls-20" x="12" y="13" width="1" height="1"/>
    <polygon class="cls-9" points="5 14 4 14 4 15 5 15 6 15 6 14 5 14"/>
    <polygon class="cls-9" points="10 14 10 15 11 15 12 15 12 14 11 14 10 14"/>
    <polygon class="cls-9" points="8 15 7 15 6 15 6 16 7 16 8 16 9 16 10 16 10 15 9 15 8 15"/>
    <rect class="cls-20" y="9" width="1" height="1"/>
    <polygon class="cls-9" points="14 10.67 14 11.33 14 12 15 12 15 11.33 15 10.67 15 10 14 10 14 10.67"/>
  </g>
</svg>