<?xml version="1.0" ?>
<svg height="24" viewBox="-12 -12 48 48" width="24" xmlns="http://www.w3.org/2000/svg">
    <path transform="translate(24,24)rotate(180)"
        d="M6.15675 5.25C6.57853 3.94437 7.80398 3 9.25 3H17.75C19.5449 3 21 4.45507 21 6.25V14.8382C21 16.1902 20.1745 17.3494 19 17.8392V17.9751C19 19.0247 18.4705 19.82 17.6913 20.3191C16.9414 20.7995 15.9737 21.0045 14.9977 20.9999L14.9963 20.9999L10.9191 20.9952L7 20.9951C5.84332 20.9951 4.83555 20.6327 4.11066 19.9496C3.38287 19.2639 3 18.3103 3 17.25V8.5C3 7.63484 3.21573 6.81725 3.73399 6.20358C4.26793 5.57135 5.04354 5.25 5.95588 5.25H6.15675ZM6 6.75H5.95588C5.41235 6.75 5.08501 6.92865 4.87998 7.17142C4.65927 7.43275 4.5 7.86516 4.5 8.5V17.25C4.5 17.9397 4.74213 18.4837 5.13934 18.8579C5.53944 19.2349 6.15669 19.4951 7 19.4951L10.9191 19.4952L15.0009 19.4999L15.0037 19.4999C15.7919 19.5038 16.4486 19.3338 16.8822 19.0561C17.254 18.8179 17.4641 18.5061 17.4958 18.0882H9.25C7.45508 18.0882 6 16.6332 6 14.8382V6.75ZM9.25 4.5C8.2835 4.5 7.5 5.2835 7.5 6.25V14.8382C7.5 15.8047 8.2835 16.5882 9.25 16.5882H17.75C18.7165 16.5882 19.5 15.8047 19.5 14.8382V6.25C19.5 5.2835 18.7165 4.5 17.75 4.5H9.25Z"
        fill="#FFF" />
</svg>