<svg width="259" height="260" xmlns="http://www.w3.org/2000/svg" xmlns:xlink="http://www.w3.org/1999/xlink" xml:space="preserve" overflow="hidden">
    <g transform="translate(-3695 -1577)">
        <path d="M3754.8 1741.49 3773.59 1741.49 3773.59 1760.33 3754.8 1760.33ZM3912.09 1731.01 3933 1731.01 3933 1751.97 3912.09 1751.97ZM3870.28 1689.1 3891.19 1689.1 3891.19 1751.97 3912.09 1751.97 3912.09 1772.92 3891.19 1772.92 3891.19 1793.88 3870.28 1793.88 3870.28 1772.92 3849.37 1772.92 3849.37 1751.97 3828.47 1751.97 3828.47 1731.01 3849.38 1731.01 3849.38 1751.97 3870.28 1751.97ZM3783.73 1666.14 3802.52 1666.14 3802.52 1684.98 3783.73 1684.98ZM3754.8 1666.14 3773.59 1666.14 3773.59 1684.98 3754.8 1684.98ZM3716 1621 3888.59 1621 3888.59 1657.04 3869.41 1657.04 3869.41 1640.22 3735.18 1640.22 3735.18 1697.89 3802.29 1697.89 3808.94 1697.89 3821.47 1697.89 3840.65 1697.89 3840.65 1717.11 3821.47 1717.11 3808.94 1717.11 3802.29 1717.11 3735.18 1717.11 3735.18 1774.78 3808.94 1774.78 3808.94 1794 3716 1794Z" 
              fill="#FFFFFF" fill-rule="evenodd"/>
    </g>
</svg>