<svg width="83" height="83" xmlns="http://www.w3.org/2000/svg" xmlns:xlink="http://www.w3.org/1999/xlink" xml:space="preserve" overflow="hidden">
    <g transform="translate(-1948 -1084)">
        <path d="M1982.6 1132.5 1989.5 1132.5 1989.5 1139.38 1982.6 1139.38ZM1989.5 1125.63 1996.4 1125.63 1996.4 1132.5 1989.5 1132.5ZM1961.9 1104.87 1961.9 1146.12 1989.5 1146.12 1989.5 1139.38 1996.4 1139.38 1996.4 1146.12 2017.1 1146.12 2017.1 1111.75 1996.4 1111.75 1996.4 1118.75 1989.5 1118.75 1989.5 1125.63 1982.6 1125.63 1982.6 1118.75 1982.6 1111.75 1982.6 1105 1982.6 1104.87ZM1955 1098 1961.9 1098 1989.5 1098 1989.5 1104.87 2024 1104.87 2024 1153 1955 1153Z" 
              fill="#FFFFFF" fill-rule="evenodd"/>
    </g>
</svg>