<svg width="24" height="24" xmlns="http://www.w3.org/2000/svg" xmlns:xlink="http://www.w3.org/1999/xlink" xml:space="preserve" overflow="hidden">
    <g transform="translate(-628 -348)">
        <path d="M638 352 644 352 644 354 638 354 638 352ZM636 356 636 354 638 354 638 356 636 356ZM632 358 632 356 636 356 636 358 632 358ZM630 360 630 358 632 358 632 360 630 360ZM630 366 628 366 628 360 630 360 630 366ZM630 366 635 366 635 368 630 368 630 366ZM646 356 644 356 644 354 646 354 646 356ZM650 360 646 360 646 356 648 356 648 358 650 358 650 360ZM650 366 650 360 652 360 652 366 650 366ZM650 366 650 368 645 368 645 366 650 366ZM639 368 641 368 641 366 643 366 643 364 645 364 645 362 641 362 641 357 639 357 639 362 635 362 635 364 637 364 637 366 639 366 639 368Z" 
              fill="#FFFFFF"/>
    </g>
</svg>