<svg xmlns="http://www.w3.org/2000/svg" viewBox="0 0 512 512"><defs><style>.prefix__cls-11,.prefix__cls-12{opacity:.3}.prefix__cls-12{fill:#fff}</style></defs><path fill="#a667f3" d="M0 0h512v512H0z" stroke="none" stroke-width="0" id="prefix__Buttoned"/><g stroke="none" stroke-width="0" id="prefix__item4" fill-rule="evenodd"><path fill="#ca9cfd" d="M448 0h64v64h-64V0z"/><path d="M64 0h64v64H64V0zm64 0v64h64V0h-64zM64 64v64h64V64H64zm64 0v64h64V64h-64zm-64 64v64h64v-64H64zm64 0v64h64v-64h-64z" fill="#a563f1"/><path d="M0 0h64v64H0V0zm320 0v64h64V0h-64zm64 0v64h64V0h-64zm-64 64v64h64V64h-64zm64 64v64h64v-64h-64zm64 0v64h64v-64h-64z" fill="#975ae8"/><path d="M0 192h64v64H0v-64zm0 64v64h64v-64H0zm448 64v64h64v-64h-64z" fill="#8b38f2"/><path d="M64 256h64v64H64v-64zm128 0v64h64v-64h-64zm64 0v64h64v-64h-64zM0 320v64h64v-64H0zm64 0v64h64v-64H64zm192 0v64h64v-64h-64zm64 0v64h64v-64h-64zm-128 64v64h64v-64h-64z" fill="#ac66f2"/><path d="M192 0h64v64h-64V0zm64 0v64h64V0h-64zM0 64v64h64V64H0zm192 0v64h64V64h-64zm64 0v64h64V64h-64zm128 0v64h64V64h-64zm64 0v64h64V64h-64zM0 128v64h64v-64H0zm192 0v64h64v-64h-64zm64 0v64h64v-64h-64zm64 0v64h64v-64h-64zM64 192v64h64v-64H64zm64 0v64h64v-64h-64zm64 0v64h64v-64h-64zm64 0v64h64v-64h-64zm64 0v64h64v-64h-64zm64 0v64h64v-64h-64zm64 0v64h64v-64h-64zm-320 64v64h64v-64h-64zm192 0v64h64v-64h-64zm64 0v64h64v-64h-64zm64 0v64h64v-64h-64zm-320 64v64h64v-64h-64zm64 0v64h64v-64h-64zm192 0v64h64v-64h-64zM0 384v64h64v-64H0zm64 0v64h64v-64H64zm192 0v64h64v-64h-64zm64 0v64h64v-64h-64zm64 0v64h64v-64h-64zm64 0v64h64v-64h-64z" fill="#a667f3"/><path d="M128 384h64v64h-64v-64zm-64 64v64h64v-64H64zm64 0v64h64v-64h-64z" fill="#b37df7"/><path d="M0 448h64v64H0v-64zm192 0v64h64v-64h-64zm64 0v64h64v-64h-64zm128 0v64h64v-64h-64z" fill="#a264f2"/><path d="M320 448h64v64h-64v-64zm128 0v64h64v-64h-64z" fill="#955bea"/></g><g stroke="none" stroke-width="0" id="prefix__Topped"><path class="prefix__cls-12" d="M0 0h16v512H0z"/><path class="prefix__cls-12" transform="rotate(-90 264 8)" d="M256-240h16v496h-16z"/><path class="prefix__cls-11" transform="rotate(-90 248 504)" d="M240 256h16v496h-16z"/><path class="prefix__cls-11" d="M496 0h16v512h-16z"/></g></svg>