<?xml version="1.0" encoding="UTF-8"?>
<svg xmlns="http://www.w3.org/2000/svg" viewBox="0 0 512 512">
  <defs>
    <style>
      .cls-1 {
        fill: #955bea;
      }

      .cls-1, .cls-2, .cls-3, .cls-4, .cls-5, .cls-6, .cls-7, .cls-8, .cls-9 {
        fill-rule: evenodd;
      }

      .cls-2 {
        fill: #b37df7;
      }

      .cls-10, .cls-3 {
        fill: #a667f3;
      }

      .cls-11, .cls-12 {
        opacity: .3;
      }

      .cls-4 {
        fill: #ac66f2;
      }

      .cls-12 {
        fill: #fff;
      }

      .cls-5 {
        fill: #8b38f2;
      }

      .cls-6 {
        fill: #975ae8;
      }

      .cls-7 {
        fill: #a264f2;
      }

      .cls-8 {
        fill: #ca9cfd;
      }

      .cls-9 {
        fill: #a563f1;
      }
    </style>
  </defs>
  <g id="Buttoned">
    <rect class="cls-10" x="0" y="0" width="512" height="512"/>
  </g>
  <g id="item4">
    <polygon class="cls-8" points="448 0 512 0 512 64 448 64 448 0 448 0"/>
    <path class="cls-9" d="M64,0h64v64h-64V0h0ZM128,0v64h64V0h-64ZM64,64v64h64v-64h-64ZM128,64v64h64v-64h-64ZM64,128v64h64v-64h-64ZM128,128v64h64v-64h-64Z"/>
    <path class="cls-6" d="M0,0h64v64H0V0h0ZM320,0v64h64V0h-64ZM384,0v64h64V0h-64ZM320,64v64h64v-64h-64ZM384,128v64h64v-64h-64ZM448,128v64h64v-64h-64Z"/>
    <path class="cls-5" d="M0,192h64v64H0v-64h0ZM0,256v64h64v-64H0ZM448,320v64h64v-64h-64Z"/>
    <path class="cls-4" d="M64,256h64v64h-64v-64h0ZM192,256v64h64v-64h-64ZM256,256v64h64v-64h-64ZM0,320v64h64v-64H0ZM64,320v64h64v-64h-64ZM256,320v64h64v-64h-64ZM320,320v64h64v-64h-64ZM192,384v64h64v-64h-64Z"/>
    <path class="cls-3" d="M192,0h64v64h-64V0h0ZM256,0v64h64V0h-64ZM0,64v64h64v-64H0ZM192,64v64h64v-64h-64ZM256,64v64h64v-64h-64ZM384,64v64h64v-64h-64ZM448,64v64h64v-64h-64ZM0,128v64h64v-64H0ZM192,128v64h64v-64h-64ZM256,128v64h64v-64h-64ZM320,128v64h64v-64h-64ZM64,192v64h64v-64h-64ZM128,192v64h64v-64h-64ZM192,192v64h64v-64h-64ZM256,192v64h64v-64h-64ZM320,192v64h64v-64h-64ZM384,192v64h64v-64h-64ZM448,192v64h64v-64h-64ZM128,256v64h64v-64h-64ZM320,256v64h64v-64h-64ZM384,256v64h64v-64h-64ZM448,256v64h64v-64h-64ZM128,320v64h64v-64h-64ZM192,320v64h64v-64h-64ZM384,320v64h64v-64h-64ZM0,384v64h64v-64H0ZM64,384v64h64v-64h-64ZM256,384v64h64v-64h-64ZM320,384v64h64v-64h-64ZM384,384v64h64v-64h-64ZM448,384v64h64v-64h-64Z"/>
    <path class="cls-2" d="M128,384h64v64h-64v-64h0ZM64,448v64h64v-64h-64ZM128,448v64h64v-64h-64Z"/>
    <path class="cls-7" d="M0,448h64v64H0v-64h0ZM192,448v64h64v-64h-64ZM256,448v64h64v-64h-64ZM384,448v64h64v-64h-64Z"/>
    <path class="cls-1" d="M320,448h64v64h-64v-64h0ZM448,448v64h64v-64h-64Z"/>
  </g>
  <g id="Topped">
    <rect class="cls-12" x="0" y="0" width="16" height="512"/>
    <rect class="cls-12" x="256" y="-240" width="16" height="496" transform="translate(256 272) rotate(-90)"/>
    <rect class="cls-11" x="240" y="256" width="16" height="496" transform="translate(-256 752) rotate(-90)"/>
    <rect class="cls-11" x="496" width="16" height="512"/>
  </g>
</svg>