<svg xmlns="http://www.w3.org/2000/svg" viewBox="0 0 512 512"><defs><style>.prefix__cls-10,.prefix__cls-9{opacity:.3}.prefix__cls-10{fill:#fff}</style></defs><path fill="#3bb28f" d="M0 0h512v512H0z" stroke="none" stroke-width="0" id="prefix__Buttoned"/><g stroke="none" stroke-width="0" id="prefix__item3" fill-rule="evenodd"><path fill="#58ebbc" d="M0 0h64v64H0V0z"/><path d="M64 0h64v64H64V0zM0 64v64h64V64H0zm64 0v64h64V64H64zm0 256v64h64v-64H64z" fill="#30b18a"/><path d="M128 0h64v64h-64V0zm64 0v64h64V0h-64zm-64 64v64h64V64h-64zm64 0v64h64V64h-64zM0 128v64h64v-64H0zm64 0v64h64v-64H64zm64 0v64h64v-64h-64zm128 0v64h64v-64h-64zm64 0v64h64v-64h-64zm-64 64v64h64v-64h-64zm64 0v64h64v-64h-64zm-64 64v64h64v-64h-64zm0 64v64h64v-64h-64z" fill="#3ab68c"/><path d="M384 0h64v64h-64V0zm64 0v64h64V0h-64zm-64 64v64h64V64h-64zm-192 64v64h64v-64h-64zm256 0v64h64v-64h-64zM0 192v64h64v-64H0zm64 0v64h64v-64H64zm64 0v64h64v-64h-64zm64 0v64h64v-64h-64zm192 0v64h64v-64h-64zm64 0v64h64v-64h-64zM0 256v64h64v-64H0zm64 0v64h64v-64H64zm64 0v64h64v-64h-64zm64 0v64h64v-64h-64zm128 0v64h64v-64h-64zm64 0v64h64v-64h-64zm64 0v64h64v-64h-64zM0 320v64h64v-64H0zm128 0v64h64v-64h-64zm64 0v64h64v-64h-64zm192 0v64h64v-64h-64zm64 0v64h64v-64h-64zM0 384v64h64v-64H0zm128 0v64h64v-64h-64zm256 0v64h64v-64h-64zm64 0v64h64v-64h-64z" fill="#3bb28f"/><path d="M0 448h64v64H0v-64zm64 0v64h64v-64H64z" fill="#31af87"/><path d="M448 64h64v64h-64V64zm-64 64v64h64v-64h-64zM64 384v64h64v-64H64zm64 64v64h64v-64h-64z" fill="#40c89a"/><path d="M256 0h64v64h-64V0zm64 0v64h64V0h-64zm-64 64v64h64V64h-64zm64 0v64h64V64h-64zm0 256v64h64v-64h-64zm-128 64v64h64v-64h-64zm64 0v64h64v-64h-64zm64 0v64h64v-64h-64zm0 64v64h64v-64h-64zm64 0v64h64v-64h-64z" fill="#2faf86"/><path d="M192 448h64v64h-64v-64zm64 0v64h64v-64h-64zm192 0v64h64v-64h-64z" fill="#36b38a"/></g><g stroke="none" stroke-width="0" id="prefix__Topped"><path class="prefix__cls-10" d="M0 0h16v512H0z"/><path class="prefix__cls-10" transform="rotate(-90 264 8)" d="M256-240h16v496h-16z"/><path class="prefix__cls-9" transform="rotate(-90 248 504)" d="M240 256h16v496h-16z"/><path class="prefix__cls-9" d="M496 0h16v512h-16z"/></g></svg>