<svg width="464" height="464" xmlns="http://www.w3.org/2000/svg" xmlns:xlink="http://www.w3.org/1999/xlink" xml:space="preserve" overflow="hidden"><g transform="translate(-1434 -851)"><rect x="1434" y="851" width="464" height="464" fill="#1C1D1D"/><rect x="1466" y="883" width="400" height="400" fill="#3B3C3F"/><rect x="1466" y="1083" width="202" height="200" fill="#6AA4EE"/><rect x="1466" y="1083" width="202" height="29.9999" fill="#95BDF3"/><rect x="1638" y="1083" width="29.9999" height="200" fill="#4F92EB"/><rect x="1638" y="1083" width="29.9999" height="29.9999" fill="#307FE8"/><rect x="1665" y="1083" width="201" height="200" fill="#926AE0"/><rect x="1665" y="1083" width="201" height="29.9999" fill="#B093E9"/><rect x="1837" y="1083" width="28.9999" height="200" fill="#7F51DB"/><rect x="1837" y="1083" width="28.9999" height="29.9999" fill="#6730D4"/><rect x="1564" y="883" width="201" height="200" fill="#E4A064"/><rect x="1564" y="883" width="201" height="29.9999" fill="#EAB686"/><rect x="1736" y="883" width="29.0002" height="200" fill="#E0924C"/><rect x="1736" y="883" width="29.0002" height="29.9999" fill="#DB802D"/><path d="M1646.33 944 1659.67 944 1659.67 1024.57 1673 1024.57 1673 1038 1633 1038 1633 1024.57 1646.33 1024.57 1646.33 970.857 1633 970.857 1633 957.428 1646.33 957.428Z" fill="#FFFFFF" fill-rule="evenodd"/><path d="M1521 1216.14 1534.4 1216.14 1534.4 1229.57 1588 1229.57 1588 1243 1521 1243ZM1534.4 1202.71 1547.8 1202.71 1547.8 1216.14 1534.4 1216.14ZM1547.8 1189.29 1574.6 1189.29 1574.6 1202.71 1547.8 1202.71ZM1574.6 1162.43 1588 1162.43 1588 1189.29 1574.6 1189.29ZM1521 1162.43 1534.4 1162.43 1534.4 1175.86 1521 1175.86ZM1534.4 1149 1574.6 1149 1574.6 1162.43 1534.4 1162.43Z" fill="#FFFFFF" fill-rule="evenodd"/><path d="M1737.4 1229.57 1777.6 1229.57 1777.6 1243 1737.4 1243ZM1724 1216.14 1737.4 1216.14 1737.4 1229.57 1724 1229.57ZM1777.6 1202.71 1791 1202.71 1791 1229.57 1777.6 1229.57ZM1750.8 1189.29 1777.6 1189.29 1777.6 1202.71 1750.8 1202.71ZM1777.6 1162.43 1791 1162.43 1791 1189.29 1777.6 1189.29ZM1724 1162.43 1737.4 1162.43 1737.4 1175.86 1724 1175.86ZM1737.4 1149 1777.6 1149 1777.6 1162.43 1737.4 1162.43Z" fill="#FFFFFF" fill-rule="evenodd"/></g></svg>