<svg width="464" height="464" xmlns="http://www.w3.org/2000/svg" xmlns:xlink="http://www.w3.org/1999/xlink" xml:space="preserve" overflow="hidden"><g transform="translate(-1434 -851)"><rect x="1434" y="851" width="464" height="464" fill="#1C1D1D"/><rect x="1466" y="883" width="400" height="400" fill="#3B3C3F"/><path d="M1520 1262 1539.25 1262 1539.25 1282 1520 1282ZM1808.75 1242 1828 1242 1828 1262 1808.75 1262Z" fill="#09111F" fill-rule="evenodd"/><path d="M1788.8 1242 1808 1242 1808 1262 1788.8 1262ZM1520 1242 1539.2 1242 1539.2 1262 1520 1262Z" fill="#F2F2F2" fill-rule="evenodd"/><path d="M1501.21 1242 1520.42 1242 1520.42 1262 1501.21 1262ZM1482 1222 1501.21 1222 1501.21 1242 1482 1242ZM1827.79 1222 1847 1222 1847 1242 1827.79 1242ZM1789.37 1262 1808.58 1262 1808.58 1282 1789.37 1282ZM1827.79 1202 1847 1202 1847 1222 1827.79 1222ZM1482 1202 1501.21 1202 1501.21 1222 1482 1222Z" fill="#09111F" fill-rule="evenodd"/><path d="M1501 1222 1520.24 1222 1520.24 1242 1501 1242ZM1808.77 1222 1828 1222 1828 1242 1808.77 1242Z" fill="#F2F2F2" fill-rule="evenodd"/><path d="M1827.62 1122 1846.81 1122 1846.81 1142 1827.62 1142ZM1846.81 1082 1866 1082 1866 1102 1846.81 1102ZM1846.81 1102 1866 1102 1866 1122 1846.81 1122ZM1846.81 1062 1866 1062 1866 1082 1846.81 1082ZM1827.62 1042 1846.81 1042 1846.81 1062 1827.62 1062ZM1482.19 1122 1501.38 1122 1501.38 1142 1482.19 1142ZM1463 1082 1482.19 1082 1482.19 1102 1463 1102ZM1463 1102 1482.19 1102 1482.19 1122 1463 1122ZM1463 1062 1482.19 1062 1482.19 1082 1463 1082ZM1482.19 1042 1501.38 1042 1501.38 1062 1482.19 1062Z" fill="#09111F" fill-rule="evenodd"/><path d="M1655 942 1674 942 1674 962 1655 962ZM1655 902 1674 902 1674 922.001 1655 922.001Z" fill="#F2F2F2" fill-rule="evenodd"/><path d="M1655 922.001 1674 922.001 1674 942 1655 942ZM1674 902 1693 902 1693 922.001 1674 922.001ZM1674 942 1693 942 1693 962 1674 962Z" fill="#F2F2F2" fill-rule="evenodd"/><path d="M1674 922.001 1693 922.001 1693 942 1674 942ZM1636 942 1655 942 1655 962 1636 962ZM1636 902 1655 902 1655 922.001 1636 922.001Z" fill="#F2F2F2" fill-rule="evenodd"/><path d="M1636 922 1655 922 1655 942 1636 942Z" fill="#F2F2F2" fill-rule="evenodd"/><path d="M1616 1122 1635.33 1122 1635.33 1142 1616 1142ZM1616 1062 1635.33 1062 1635.33 1082 1616 1082ZM1616 1042 1635.33 1042 1635.33 1062 1616 1062ZM1616 1102 1635.33 1102 1635.33 1122 1616 1122ZM1616 1082 1635.33 1082 1635.33 1102 1616 1102ZM1712.67 1062 1732 1062 1732 1082 1712.67 1082ZM1712.67 1082 1732 1082 1732 1102 1712.67 1102ZM1712.67 1042 1732 1042 1732 1062 1712.67 1062ZM1693.33 1122 1712.67 1122 1712.67 1142 1693.33 1142ZM1712.67 1102 1732 1102 1732 1122 1712.67 1122ZM1635.33 1122 1654.67 1122 1654.67 1142 1635.33 1142ZM1674 1122 1693.33 1122 1693.33 1142 1674 1142ZM1654.67 1042 1674 1042 1674 1062 1654.67 1062ZM1693.33 1042 1712.67 1042 1712.67 1062 1693.33 1062ZM1674 1042 1693.33 1042 1693.33 1062 1674 1062ZM1654.67 1122 1674 1122 1674 1142 1654.67 1142ZM1635.33 1042 1654.67 1042 1654.67 1062 1635.33 1062Z" fill="#F2F2F2" fill-rule="evenodd"/><path d="M1693 1062 1712 1062 1712 1082 1693 1082ZM1693 1082 1712 1082 1712 1102 1693 1102ZM1693 1102 1712 1102 1712 1122 1693 1122ZM1636 1062 1655 1062 1655 1082 1636 1082ZM1636 1082 1655 1082 1655 1102 1636 1102ZM1674 1102 1693 1102 1693 1122 1674 1122ZM1655 1102 1674 1102 1674 1122 1655 1122ZM1674 1062 1693 1062 1693 1082 1674 1082ZM1674 1082 1693 1082 1693 1102 1674 1102Z" fill="#262626" fill-rule="evenodd"/><path d="M1636 1102 1655 1102 1655 1122 1636 1122Z" fill="#FFFFFF" fill-rule="evenodd"/><path d="M1655 1082 1674 1082 1674 1102 1655 1102ZM1655 1062 1674 1062 1674 1082 1655 1082Z" fill="#0D0D0D" fill-rule="evenodd"/><path d="M1731.71 1142 1751 1142 1751 1162 1731.71 1162ZM1616 1142 1635.29 1142 1635.29 1162 1616 1162ZM1731.71 1042 1751 1042 1751 1062 1731.71 1062Z" fill="#595959" fill-rule="evenodd"/><path d="M1712 1122 1732 1122 1732 1142 1712 1142Z" fill="#F2F2F2" fill-rule="evenodd"/><path d="M1693 1142 1712.33 1142 1712.33 1162 1693 1162ZM1731.67 1122 1751 1122 1751 1142 1731.67 1142ZM1712.33 1142 1731.67 1142 1731.67 1162 1712.33 1162ZM1731.67 1102 1751 1102 1751 1122 1731.67 1122Z" fill="#595959" fill-rule="evenodd"/><path d="M1732 1022 1751 1022 1751 1042 1732 1042Z" fill="#FFFFFF" fill-rule="evenodd"/><path d="M1712.4 1022 1731.6 1022 1731.6 1042 1712.4 1042ZM1731.6 1082 1750.8 1082 1750.8 1102 1731.6 1102ZM1731.6 1062 1750.8 1062 1750.8 1082 1731.6 1082ZM1654.8 1142 1674 1142 1674 1162 1654.8 1162ZM1693.2 1022 1712.4 1022 1712.4 1042 1693.2 1042ZM1674 1142 1693.2 1142 1693.2 1162 1674 1162ZM1635.6 1142 1654.8 1142 1654.8 1162 1635.6 1162ZM1674 1022 1693.2 1022 1693.2 1042 1674 1042ZM1654.8 1022 1674 1022 1674 1042 1654.8 1042ZM1635.6 1022 1654.8 1022 1654.8 1042 1635.6 1042ZM1616.4 1022 1635.6 1022 1635.6 1042 1616.4 1042ZM1597.2 1042 1616.4 1042 1616.4 1062 1597.2 1062ZM1597.2 1102 1616.4 1102 1616.4 1122 1597.2 1122ZM1597.2 1142 1616.4 1142 1616.4 1162 1597.2 1162ZM1597.2 1122 1616.4 1122 1616.4 1142 1597.2 1142ZM1597.2 1082 1616.4 1082 1616.4 1102 1597.2 1102ZM1597.2 1062 1616.4 1062 1616.4 1082 1597.2 1082ZM1597.2 1022 1616.4 1022 1616.4 1042 1597.2 1042ZM1578 1042 1597.2 1042 1597.2 1062 1578 1062ZM1578 1022 1597.2 1022 1597.2 1042 1578 1042ZM1578 1102 1597.2 1102 1597.2 1122 1578 1122ZM1578 1142 1597.2 1142 1597.2 1162 1578 1162ZM1578 1122 1597.2 1122 1597.2 1142 1578 1142ZM1578 1082 1597.2 1082 1597.2 1102 1578 1102ZM1578 1062 1597.2 1062 1597.2 1082 1578 1082ZM1616.4 1162 1635.6 1162 1635.6 1182 1616.4 1182ZM1712.4 1162 1731.6 1162 1731.6 1182 1712.4 1182ZM1693.2 1162 1712.4 1162 1712.4 1182 1693.2 1182ZM1731.6 1162 1750.8 1162 1750.8 1182 1731.6 1182ZM1635.6 1162 1654.8 1162 1654.8 1182 1635.6 1182ZM1674 1162 1693.2 1162 1693.2 1182 1674 1182ZM1654.8 1162 1674 1162 1674 1182 1654.8 1182ZM1597.2 1162 1616.4 1162 1616.4 1182 1597.2 1182ZM1750.8 1142 1770 1142 1770 1162 1750.8 1162ZM1750.8 1122 1770 1122 1770 1142 1750.8 1142ZM1750.8 1082 1770 1082 1770 1102 1750.8 1102ZM1750.8 1102 1770 1102 1770 1122 1750.8 1122ZM1750.8 1062 1770 1062 1770 1082 1750.8 1082ZM1750.8 1042 1770 1042 1770 1062 1750.8 1062ZM1750.8 1022 1770 1022 1770 1042 1750.8 1042Z" fill="#7F7F7F" fill-rule="evenodd"/><path d="M1712.5 1002 1731.75 1002 1731.75 1022 1712.5 1022ZM1731.75 1002 1751 1002 1751 1022 1731.75 1022ZM1693.25 1002 1712.5 1002 1712.5 1022 1693.25 1022ZM1674 1002 1693.25 1002 1693.25 1022 1674 1022Z" fill="#FFFFFF" fill-rule="evenodd"/><path d="M1654.75 1002 1674 1002 1674 1022 1654.75 1022ZM1635.5 1002 1654.75 1002 1654.75 1022 1635.5 1022ZM1616.25 1002 1635.5 1002 1635.5 1022 1616.25 1022ZM1597 1002 1616.25 1002 1616.25 1022 1597 1022Z" fill="#595959" fill-rule="evenodd"/><path d="M1751.08 1002 1770.31 1002 1770.31 1022 1751.08 1022ZM1578 1002 1597.23 1002 1597.23 1022 1578 1022ZM1751.08 1162 1770.31 1162 1770.31 1182 1751.08 1182ZM1578 1162 1597.23 1162 1597.23 1182 1578 1182ZM1578 982 1597.23 982 1597.23 1002 1578 1002ZM1808.77 1102 1828 1102 1828 1122 1808.77 1122ZM1808.77 1082 1828 1082 1828 1102 1808.77 1102ZM1808.77 1062 1828 1062 1828 1082 1808.77 1082ZM1789.54 1102 1808.77 1102 1808.77 1122 1789.54 1122ZM1789.54 1062 1808.77 1062 1808.77 1082 1789.54 1082ZM1789.54 1042 1808.77 1042 1808.77 1062 1789.54 1062ZM1789.54 1122 1808.77 1122 1808.77 1142 1789.54 1142ZM1789.54 1082 1808.77 1082 1808.77 1102 1789.54 1102ZM1770.31 1022 1789.54 1022 1789.54 1042 1770.31 1042ZM1770.31 1142 1789.54 1142 1789.54 1162 1770.31 1162ZM1770.31 1062 1789.54 1062 1789.54 1082 1770.31 1082ZM1770.31 1082 1789.54 1082 1789.54 1102 1770.31 1102ZM1770.31 1042 1789.54 1042 1789.54 1062 1770.31 1062ZM1770.31 1002 1789.54 1002 1789.54 1022 1770.31 1022ZM1770.31 1102 1789.54 1102 1789.54 1122 1770.31 1122ZM1770.31 1162 1789.54 1162 1789.54 1182 1770.31 1182ZM1770.31 1122 1789.54 1122 1789.54 1142 1770.31 1142ZM1770.31 982 1789.54 982 1789.54 1002 1770.31 1002ZM1751.08 982 1770.31 982 1770.31 1002 1751.08 1002ZM1731.85 982 1751.08 982 1751.08 1002 1731.85 1002ZM1712.62 982 1731.85 982 1731.85 1002 1712.62 1002ZM1674.15 982 1693.39 982 1693.39 1002 1674.15 1002ZM1654.92 982 1674.15 982 1674.15 1002 1654.92 1002ZM1693.39 982 1712.62 982 1712.62 1002 1693.39 1002ZM1635.69 982 1654.92 982 1654.92 1002 1635.69 1002ZM1616.46 982 1635.69 982 1635.69 1002 1616.46 1002ZM1597.23 982 1616.46 982 1616.46 1002 1597.23 1002ZM1808.77 962 1828 962 1828 982 1808.77 982ZM1789.54 962 1808.77 962 1808.77 982 1789.54 982ZM1789.54 982 1808.77 982 1808.77 1002 1789.54 1002ZM1789.54 942 1808.77 942 1808.77 962 1789.54 962ZM1770.31 962 1789.54 962 1789.54 982 1770.31 982ZM1770.31 942 1789.54 942 1789.54 962 1770.31 962Z" fill="#F2F2F2" fill-rule="evenodd"/><path d="M1769.67 922 1788.83 922 1788.83 942 1769.67 942ZM1578 961.999 1597.17 961.999 1597.17 982 1578 982ZM1731.33 961.999 1750.5 961.999 1750.5 982 1731.33 982ZM1750.5 942 1769.67 942 1769.67 961.999 1750.5 961.999ZM1750.5 961.999 1769.67 961.999 1769.67 982 1750.5 982ZM1712.17 961.999 1731.33 961.999 1731.33 982 1712.17 982ZM1673.83 961.999 1693 961.999 1693 982 1673.83 982ZM1654.67 961.999 1673.83 961.999 1673.83 982 1654.67 982ZM1693 961.999 1712.17 961.999 1712.17 982 1693 982ZM1635.5 961.999 1654.67 961.999 1654.67 982 1635.5 982ZM1616.33 961.999 1635.5 961.999 1635.5 982 1616.33 982ZM1597.17 961.999 1616.33 961.999 1616.33 982 1597.17 982ZM1769.67 1222 1788.83 1222 1788.83 1242 1769.67 1242ZM1750.5 1202 1769.67 1202 1769.67 1222 1750.5 1222ZM1769.67 1202 1788.83 1202 1788.83 1222 1769.67 1222ZM1788.83 1202 1808 1202 1808 1222 1788.83 1222Z" fill="#F2F2F2" fill-rule="evenodd"/><path d="M1789 1182 1808 1182 1808 1202 1789 1202Z" fill="#FFFFFF" fill-rule="evenodd"/><path d="M1769.79 1182 1789 1182 1789 1202 1769.79 1202ZM1750.57 1182 1769.79 1182 1769.79 1202 1750.57 1202ZM1731.36 1182 1750.57 1182 1750.57 1202 1731.36 1202ZM1712.14 1182 1731.36 1182 1731.36 1202 1712.14 1202ZM1692.93 1202 1712.14 1202 1712.14 1222 1692.93 1222ZM1692.93 1182 1712.14 1182 1712.14 1202 1692.93 1202ZM1654.5 1182 1673.71 1182 1673.71 1202 1654.5 1202ZM1673.71 1182 1692.93 1182 1692.93 1202 1673.71 1202ZM1673.71 1222 1692.93 1222 1692.93 1242 1673.71 1242ZM1673.71 1202 1692.93 1202 1692.93 1222 1673.71 1222ZM1654.5 1202 1673.71 1202 1673.71 1222 1654.5 1222ZM1654.5 1222 1673.71 1222 1673.71 1242 1654.5 1242ZM1673.71 1242 1692.93 1242 1692.93 1262 1673.71 1262ZM1654.5 1242 1673.71 1242 1673.71 1262 1654.5 1262ZM1635.29 1222 1654.5 1222 1654.5 1242 1635.29 1242ZM1635.29 1242 1654.5 1242 1654.5 1262 1635.29 1262ZM1635.29 1202 1654.5 1202 1654.5 1222 1635.29 1222ZM1616.07 1202 1635.29 1202 1635.29 1222 1616.07 1222ZM1616.07 1182 1635.29 1182 1635.29 1202 1616.07 1202ZM1577.64 1182 1596.86 1182 1596.86 1202 1577.64 1202ZM1635.29 1182 1654.5 1182 1654.5 1202 1635.29 1202ZM1596.86 1182 1616.07 1182 1616.07 1202 1596.86 1202ZM1539.21 1222 1558.43 1222 1558.43 1242 1539.21 1242ZM1520 1202 1539.21 1202 1539.21 1222 1520 1222ZM1539.21 1202 1558.43 1202 1558.43 1222 1539.21 1222ZM1539.21 1162 1558.43 1162 1558.43 1182 1539.21 1182ZM1520 1182 1539.21 1182 1539.21 1202 1520 1202ZM1539.21 1182 1558.43 1182 1558.43 1202 1539.21 1202ZM1558.43 1202 1577.64 1202 1577.64 1222 1558.43 1222ZM1558.43 1182 1577.64 1182 1577.64 1202 1558.43 1202ZM1558.43 1162 1577.64 1162 1577.64 1182 1558.43 1182ZM1558.43 1142 1577.64 1142 1577.64 1162 1558.43 1162ZM1520 1122 1539.21 1122 1539.21 1142 1520 1142ZM1539.21 1102 1558.43 1102 1558.43 1122 1539.21 1122ZM1520 1102 1539.21 1102 1539.21 1122 1520 1122Z" fill="#F2F2F2" fill-rule="evenodd"/><path d="M1501 1102 1520.33 1102 1520.33 1122 1501 1122ZM1520.33 1082 1539.67 1082 1539.67 1102 1520.33 1102ZM1539.67 1082 1559 1082 1559 1102 1539.67 1102Z" fill="#F2F2F2" fill-rule="evenodd"/><path d="M1501 1082 1520.25 1082 1520.25 1102 1501 1102ZM1558.75 1102 1578 1102 1578 1122 1558.75 1122ZM1558.75 1062 1578 1062 1578 1082 1558.75 1082ZM1558.75 1122 1578 1122 1578 1142 1558.75 1142ZM1558.75 1082 1578 1082 1578 1102 1558.75 1102ZM1539.5 1122 1558.75 1122 1558.75 1142 1539.5 1142ZM1539.5 1142 1558.75 1142 1558.75 1162 1539.5 1162ZM1558.75 1022 1578 1022 1578 1042 1558.75 1042ZM1539.5 1022 1558.75 1022 1558.75 1042 1539.5 1042ZM1539.5 1042 1558.75 1042 1558.75 1062 1539.5 1062ZM1558.75 1042 1578 1042 1578 1062 1558.75 1062ZM1520.25 1042 1539.5 1042 1539.5 1062 1520.25 1062ZM1539.5 1062 1558.75 1062 1558.75 1082 1539.5 1082ZM1520.25 1062 1539.5 1062 1539.5 1082 1520.25 1082Z" fill="#F2F2F2" fill-rule="evenodd"/><path d="M1501 1062 1520.25 1062 1520.25 1082 1501 1082ZM1558.75 1002 1578 1002 1578 1022 1558.75 1022ZM1539.5 1002 1558.75 1002 1558.75 1022 1539.5 1022ZM1539.5 982 1558.75 982 1558.75 1002 1539.5 1002Z" fill="#F2F2F2" fill-rule="evenodd"/><path d="M1559 982 1578 982 1578 1002 1559 1002Z" fill="#FFFFFF" fill-rule="evenodd"/><path d="M1520 982 1539.33 982 1539.33 1002 1520 1002ZM1558.67 962 1578 962 1578 982 1558.67 982ZM1539.33 962 1558.67 962 1558.67 982 1539.33 982ZM1520 962 1539.33 962 1539.33 982 1520 982ZM1558.67 942 1578 942 1578 962 1558.67 962ZM1539.33 942 1558.67 942 1558.67 962 1539.33 962Z" fill="#F2F2F2" fill-rule="evenodd"/><path d="M1539.67 922 1559 922 1559 942 1539.67 942ZM1520.33 942 1539.67 942 1539.67 961.999 1520.33 961.999ZM1501 961.999 1520.33 961.999 1520.33 982 1501 982Z" fill="#F2F2F2" fill-rule="evenodd"/><path d="M1577.75 942 1597 942 1597 962 1577.75 962ZM1558.5 922.001 1577.75 922.001 1577.75 942 1558.5 942ZM1539.25 902 1558.5 902 1558.5 922.001 1539.25 922.001ZM1520 922.001 1539.25 922.001 1539.25 942 1520 942Z" fill="#09111F" fill-rule="evenodd"/><path d="M1501.33 942 1520.67 942 1520.67 962 1501.33 962ZM1482 962 1501.33 962 1501.33 982 1482 982ZM1501.33 982 1520.67 982 1520.67 1002 1501.33 1002ZM1520.67 1022 1540 1022 1540 1042 1520.67 1042ZM1520.67 1002 1540 1002 1540 1022 1520.67 1022ZM1501.33 1042 1520.67 1042 1520.67 1062 1501.33 1062Z" fill="#09111F" fill-rule="evenodd"/><path d="M1482 1082 1501 1082 1501 1102 1482 1102ZM1482 1102 1501 1102 1501 1122 1482 1122ZM1482 1062 1501 1062 1501 1082 1482 1082Z" fill="#F2F2F2" fill-rule="evenodd"/><path d="M1501 1122 1520.5 1122 1520.5 1142 1501 1142ZM1520.5 1142 1540 1142 1540 1162 1520.5 1162ZM1520.5 1162 1540 1162 1540 1182 1520.5 1182ZM1501 1182 1520.5 1182 1520.5 1202 1501 1202Z" fill="#09111F" fill-rule="evenodd"/><path d="M1501 1202 1520.5 1202 1520.5 1222 1501 1222ZM1520.5 1222 1540 1222 1540 1242 1520.5 1242Z" fill="#F2F2F2" fill-rule="evenodd"/><path d="M1540 1242 1559.16 1242 1559.16 1262 1540 1262ZM1559.16 1222 1578.31 1222 1578.31 1242 1559.16 1242ZM1578.31 1202 1597.46 1202 1597.46 1222 1578.31 1222ZM1597.46 1202 1616.62 1202 1616.62 1222 1597.46 1222ZM1616.62 1222 1635.77 1222 1635.77 1242 1616.62 1242ZM1616.62 1242 1635.77 1242 1635.77 1262 1616.62 1262ZM1674.08 1262 1693.23 1262 1693.23 1282 1674.08 1282ZM1654.92 1262 1674.08 1262 1674.08 1282 1654.92 1282ZM1635.77 1262 1654.92 1262 1654.92 1282 1635.77 1282ZM1693.23 1242 1712.39 1242 1712.39 1262 1693.23 1262ZM1693.23 1222 1712.39 1222 1712.39 1242 1693.23 1242ZM1712.39 1202 1731.54 1202 1731.54 1222 1712.39 1222ZM1731.54 1202 1750.69 1202 1750.69 1222 1731.54 1222ZM1750.69 1222 1769.85 1222 1769.85 1242 1750.69 1242ZM1769.85 1242 1789 1242 1789 1262 1769.85 1262Z" fill="#09111F" fill-rule="evenodd"/><path d="M1789 1222 1808.5 1222 1808.5 1242 1789 1242ZM1808.5 1202 1828 1202 1828 1222 1808.5 1222Z" fill="#F2F2F2" fill-rule="evenodd"/><path d="M1808.5 1182 1828 1182 1828 1202 1808.5 1202ZM1789 1162 1808.5 1162 1808.5 1182 1789 1182ZM1789 1142 1808.5 1142 1808.5 1162 1789 1162ZM1808.5 1122 1828 1122 1828 1142 1808.5 1142Z" fill="#09111F" fill-rule="evenodd"/><path d="M1828 1102 1847 1102 1847 1122 1828 1122ZM1828 1082 1847 1082 1847 1102 1828 1102ZM1828 1062 1847 1062 1847 1082 1828 1082Z" fill="#F2F2F2" fill-rule="evenodd"/><path d="M1827.71 962 1847 962 1847 982.001 1827.71 982.001ZM1808.43 1042 1827.71 1042 1827.71 1062 1808.43 1062ZM1808.43 982.001 1827.71 982.001 1827.71 1002 1808.43 1002ZM1808.43 942 1827.71 942 1827.71 962 1808.43 962ZM1789.14 1022 1808.43 1022 1808.43 1042 1789.14 1042ZM1789.14 1002 1808.43 1002 1808.43 1022 1789.14 1022ZM1789.14 922.001 1808.43 922.001 1808.43 942 1789.14 942ZM1769.86 902 1789.14 902 1789.14 922.001 1769.86 922.001ZM1750.57 922.001 1769.86 922.001 1769.86 942 1750.57 942ZM1731.29 942 1750.57 942 1750.57 962 1731.29 962ZM1712 942 1731.29 942 1731.29 962 1712 962Z" fill="#09111F" fill-rule="evenodd"/><path d="M1693 942 1712 942 1712 962.001 1693 962.001Z" fill="#F2F2F2" fill-rule="evenodd"/><path d="M1693 922 1712 922 1712 942 1693 942ZM1693 902 1712 902 1712 922 1693 922ZM1674 882 1693 882 1693 902 1674 902ZM1655 882 1674 882 1674 902 1655 902ZM1636 882 1655 882 1655 902 1636 902Z" fill="#09111F" fill-rule="evenodd"/><path d="M1616 942 1636 942 1636 962.001 1616 962.001Z" fill="#F2F2F2" fill-rule="evenodd"/><path d="M1616.5 922.001 1636 922.001 1636 942 1616.5 942ZM1616.5 902 1636 902 1636 922.001 1616.5 922.001ZM1597 942 1616.5 942 1616.5 962 1597 962Z" fill="#09111F" fill-rule="evenodd"/></g></svg>