<svg width="464" height="464" xmlns="http://www.w3.org/2000/svg" xmlns:xlink="http://www.w3.org/1999/xlink" xml:space="preserve" overflow="hidden"><defs><clipPath id="clip0"><rect x="347" y="1370" width="464" height="464"/></clipPath></defs><g clip-path="url(#clip0)" transform="translate(-347 -1370)"><rect x="347" y="1370" width="464" height="464" fill="#1C1D1D"/><rect x="379" y="1402" width="400" height="400" fill="#3B3C3F"/><path d="M463.8 1520.29 502.2 1520.29 502.2 1533 463.8 1533ZM451 1507.57 463.8 1507.57 463.8 1520.29 451 1520.29ZM502.2 1494.86 515 1494.86 515 1520.29 502.2 1520.29ZM476.6 1482.14 502.2 1482.14 502.2 1494.86 476.6 1494.86ZM502.2 1456.71 515 1456.71 515 1482.14 502.2 1482.14ZM451 1456.71 463.8 1456.71 463.8 1469.43 451 1469.43ZM463.8 1444 502.2 1444 502.2 1456.71 463.8 1456.71Z" fill="#FFFFFF" fill-rule="evenodd"/><rect x="415" y="1439" width="108" height="109" fill="#8ED973"/><rect x="468" y="1493" width="55" height="55" fill="#3B7D23"/><rect x="634" y="1439" width="109" height="109" fill="#8ED973"/><rect x="634" y="1493" width="55" height="55" fill="#3B7D23"/><rect x="524" y="1547" width="109" height="55" fill="#8ED973"/><rect x="468" y="1602" width="221" height="54" fill="#8ED973"/><rect x="523" y="1602" width="110" height="54" fill="#3B7D23"/><rect x="468" y="1655" width="221" height="54" fill="#3B7D23"/><rect x="468" y="1708" width="55" height="55" fill="#8ED973"/><rect x="633" y="1709" width="56.0001" height="54" fill="#8ED973"/></g></svg>