<svg width="465" height="464" xmlns="http://www.w3.org/2000/svg" xmlns:xlink="http://www.w3.org/1999/xlink" xml:space="preserve" overflow="hidden"><g transform="translate(-1435 -1369)"><rect x="1435" y="1369" width="465" height="464" fill="#1C1D1D"/><rect x="1467" y="1401" width="400" height="400" fill="#FFAB5B"/><rect x="1467" y="1401" width="170" height="200" fill="#FFD677"/><rect x="1698" y="1601" width="169" height="200" fill="#FFD677"/><rect x="1496" y="1433" width="339" height="338" fill="#3B3C3F"/><path d="M1656.5 1483.04C1659.54 1478.08 1666.03 1476.51 1671 1479.55 1672.42 1480.42 1673.62 1481.62 1674.5 1483.04L1710.02 1541.14C1710.15 1541.34 1710.35 1541.49 1710.59 1541.55L1776.9 1557.33C1782.56 1558.68 1786.06 1564.36 1784.71 1570.01 1784.32 1571.64 1783.55 1573.15 1782.46 1574.42L1738.1 1626.11C1737.95 1626.3 1737.87 1626.53 1737.89 1626.78L1743.35 1694.63C1743.81 1700.42 1739.48 1705.5 1733.68 1705.96 1732.01 1706.1 1730.33 1705.83 1728.79 1705.19L1665.85 1679.04C1665.62 1678.95 1665.37 1678.95 1665.15 1679.04L1602.21 1705.19C1596.83 1707.42 1590.66 1704.88 1588.43 1699.51 1587.78 1697.97 1587.52 1696.29 1587.65 1694.63L1593.11 1626.78C1593.13 1626.53 1593.05 1626.3 1592.89 1626.11L1548.54 1574.42C1544.75 1570.01 1545.26 1563.36 1549.68 1559.58 1550.96 1558.49 1552.47 1557.72 1554.1 1557.33L1620.41 1541.55C1620.65 1541.49 1620.85 1541.34 1620.97 1541.14L1656.5 1483.04Z" fill="#FFD677" fill-rule="evenodd"/><path d="M1665 1478 1665 1603 1620 1541.67 1620.12 1541.64C1620.35 1541.58 1620.55 1541.43 1620.68 1541.23L1656.1 1483.05C1658 1479.94 1661.36 1478.03 1665 1478Z" fill="#FFD677" fill-rule="evenodd"/><path d="M1592.76 1626C1592.75 1625.99 1592.74 1625.98 1592.73 1625.96L1548.53 1574.5C1546.28 1571.88 1545.47 1568.33 1546.35 1565L1665 1602.78 1592.76 1626Z" fill="#FFE387" fill-rule="evenodd"/><path d="M1592.39 1704 1592.3 1703.93C1589.36 1701.78 1587.74 1698.24 1588.03 1694.59L1593.43 1626.9C1593.45 1626.67 1593.39 1626.45 1593.25 1626.27L1665 1603 1592.39 1704Z" fill="#FFBF51" fill-rule="evenodd"/><path d="M1666 1679.03C1665.83 1679 1665.65 1679.02 1665.49 1679.09L1602.21 1705.19C1598.84 1706.59 1594.98 1706.16 1592 1704.06L1665.77 1603 1666 1679.03Z" fill="#FFC97D" fill-rule="evenodd"/><path d="M1739 1704.1C1736.02 1706.16 1732.19 1706.57 1728.83 1705.19L1665.43 1679.09C1665.36 1679.06 1665.3 1679.04 1665.23 1679.03L1665 1603 1739 1704.1Z" fill="#FFAB5B" fill-rule="evenodd"/><path d="M1737.52 1626.65C1737.5 1626.73 1737.5 1626.82 1737.51 1626.91L1742.97 1694.65C1743.26 1698.3 1741.63 1701.84 1738.65 1703.99L1738.64 1704 1665 1603 1737.52 1626.65Z" fill="#FFC76D" fill-rule="evenodd"/><path d="M1784.35 1564C1785.67 1567.6 1784.95 1571.64 1782.45 1574.56L1737.94 1626.64C1737.86 1626.74 1737.8 1626.84 1737.76 1626.96L1737.75 1627 1665 1603.17 1784.35 1564Z" fill="#FFBE51" fill-rule="evenodd"/><path d="M1709.72 1541C1709.84 1541.14 1710.01 1541.24 1710.19 1541.29L1776.54 1557.18C1779.98 1558.01 1782.78 1560.51 1784 1563.84L1665 1603 1709.72 1541Z" fill="#FFD684" fill-rule="evenodd"/><path d="M1710 1541.34 1665 1603 1665 1478 1665.07 1478C1668.77 1478 1672.21 1479.91 1674.14 1483.05L1709.92 1541.23C1709.95 1541.27 1709.97 1541.3 1710 1541.34Z" fill="#FFAB5B" fill-rule="evenodd"/><path d="M1546 1565.21C1546.99 1561.48 1549.97 1558.59 1553.74 1557.69L1619.9 1542 1665 1603 1546 1565.21Z" fill="#FFF9E7" fill-rule="evenodd"/></g></svg>