<svg viewBox="64 64 384 384" xmlns="http://www.w3.org/2000/svg"><path stroke="none" stroke-width="0" d="M417.3 233.8c-6.7-3-16.9-7.6-17.9-11.4-1-3.8 5.7-12.8 10.1-18.7 6.9-9.2 12.8-17.1 10.4-25.2-.8-2.8-3.1-6.7-9-8.9-19.7-7.4-43.3-8.2-66.6-2.2-8.4 2.2-16.6 5.2-24.1 9 2-8.8 3-18 3-27.3 0-24-6.7-46.8-18.8-63.9-3.7-5.2-7.9-6.4-10.9-6.4-8.5-.2-14.6 7.5-21.8 16.4-4.6 5.8-11.6 14.5-15.5 14.5s-10.9-8.7-15.5-14.5c-7.2-8.9-13.3-16.6-21.8-16.4-3 .1-7.3 1.3-10.9 6.4-12.2 17.2-18.8 39.9-18.8 63.9 0 9.3 1 18.5 3 27.3-7.6-3.8-15.7-6.8-24.1-9-23.3-6-46.9-5.3-66.6 2.2-5.9 2.2-8.2 6.1-9 8.9-2.4 8.1 3.5 16.1 10.4 25.2 4.4 5.9 11.1 14.9 10.1 18.7-1 3.8-11.2 8.4-17.9 11.4-10.5 4.7-19.5 8.7-21.4 17-.7 2.9-.6 7.3 3.5 12.2 13.6 16.1 33.9 28.3 57.1 34.3 5.6 1.4 11.2 2.5 16.7 3.2-4 4.4-7.7 9.2-11.2 14.3-13.4 20-20.4 42.6-19.9 63.6.2 6.3 3.1 9.7 5.5 11.4 6.9 4.9 16.3 1.9 27.3-1.5 7-2.2 17.7-5.6 21-3.4 3.3 2.2 4.2 13.3 4.9 20.7 1 11.4 1.8 21.3 9 25.8 1.6 1 3.8 1.9 6.7 1.9 1.7 0 3.7-.3 6-1.2 19.7-7.5 37.8-22.7 51.2-42.7 1.7-2.6 3.3-5.2 4.8-7.8 1.5 2.7 3.1 5.3 4.8 7.8 13.4 20 31.5 35.1 51.2 42.7 2.2.9 4.2 1.2 6 1.2 2.9 0 5.1-.9 6.7-1.9 7.2-4.5 8-14.3 9-25.8.6-7.4 1.6-18.5 4.9-20.7 3.3-2.2 13.9 1.2 21 3.4 10.9 3.4 20.4 6.4 27.3 1.5 2.4-1.7 5.3-5.1 5.5-11.4.5-21-6.5-43.6-19.9-63.6-3.4-5.1-7.2-9.9-11.2-14.4 5.6-.7 11.2-1.7 16.7-3.2 23.3-6.1 43.6-18.2 57.1-34.3 4.1-4.8 4.2-9.3 3.5-12.2-2.1-8.1-11.2-12.2-21.6-16.9zM219.6 94.3c2.5 1.9 6.5 7 9.1 10.2 7.6 9.4 16.1 20.1 27.2 20.1s19.7-10.7 27.2-20.1c2.6-3.2 6.7-8.3 9.1-10.2 10.2 14.6 15.7 34 15.7 54.8 0 14.7-2.9 29-8.3 41.4-2.2 5-4.8 9.7-7.8 13.9-4.3 6.1-9.3 11.1-14.7 14.7-4.4 3-9.1 5-13.8 6v-17.8c11.1-3.3 19.3-13.6 19.3-25.7 0-14.8-12-26.8-26.8-26.8s-26.8 12-26.8 26.8c0 12.2 8.2 22.5 19.3 25.7V225c-4.1-.9-8.1-2.5-12-4.9-2.8-6.4-6.7-12.6-11.6-18.5-3.9-4.6-8.4-8.9-13.4-12.9-5-12-7.6-25.6-7.6-39.7.2-20.6 5.8-40.1 15.9-54.7zm52.7 161.1c.6 2.4 1.4 4.7 2.4 6.9v.1c1.1 2.5 2.3 4.9 3.8 7.2-4.6 1.4-8.9 3.5-12.8 6.2l-.1.1c-.4.3-.9.6-1.3.9-3 2.2-5.7 4.6-8.2 7.4-2.5-2.8-5.2-5.2-8.2-7.4-.4-.3-.9-.6-1.3-.9l-.1-.1c-4-2.7-8.3-4.7-12.8-6.2 1.5-2.3 2.7-4.7 3.8-7.3 1-2.3 1.8-4.6 2.4-7 1.4-5.4 1.9-11.1 1.4-16.8 4.9 1.5 9.8 2.3 14.8 2.3s10-.8 14.8-2.3c-.5 5.8 0 11.5 1.4 16.9zM256 193.3c-6.6 0-11.9-5.3-11.9-11.8 0-6.5 5.3-11.8 11.8-11.8s11.8 5.3 11.8 11.8c.1 6.5-5.2 11.8-11.7 11.8zM88.7 253.8c2.4-1.9 8.4-4.6 12.2-6.3 11-4.9 23.5-10.5 26.3-21.3 2.8-10.8-5.4-21.7-12.6-31.4-2.5-3.3-6.4-8.5-7.6-11.4 16.7-6.2 36.9-6.7 57-1.5 13.7 3.6 26.4 9.6 36.8 17.5 4.8 3.7 9.1 7.7 12.7 11.9 4.5 5.3 7.8 10.8 10 16.6 2.9 7.6 3.6 15.2 2 22.4l-24.7-6.8c-.2-11.6-7.9-22.2-19.7-25.5-2.3-.6-4.7-1-7.1-1-12 0-22.6 8.1-25.8 19.7-3.9 14.3 4.5 29 18.7 33 2.3.6 4.7 1 7.1 1 9.4 0 18-5 22.8-12.7l22.3 6.2c-.7 1-1.6 2-2.4 3-8.4 0-17.1 1.7-26 5-8.6 3.3-16.9 8.1-24.8 14.2-9.3.1-18.8-1.1-28.2-3.5-20-5.3-37.4-15.6-49-29.1zm96.7-6.8c0 .1 0 .1 0 0 0 .1 0 .1 0 0-1.4 5.1-6.1 8.7-11.4 8.7-1.1 0-2.1-.1-3.2-.4-6.3-1.7-10-8.3-8.2-14.5 1.4-5.1 6.1-8.7 11.4-8.7 1.1 0 2.1.1 3.2.4 6.3 1.8 10 8.3 8.2 14.5zm9.8 170.9c-1-2.9-1.6-9.4-1.9-13.5-1-12-2.2-25.7-11.5-31.8-9.3-6.2-22.3-2.1-33.8 1.6-3.9 1.2-10.2 3.2-13.3 3.4-.3-17.8 5.8-37 17.4-54.3 6.1-9.1 13.3-17 21.3-23.6 7.2-5.9 14.9-10.4 22.8-13.4 8.1-3.1 15.9-4.4 23.2-4 4.6.3 8.9 1.3 12.8 3l-18.3 23.8c-3.1-1.2-6.4-1.9-9.7-1.9-8.4 0-16.1 3.8-21.3 10.5-9 11.7-6.8 28.6 4.9 37.6 4.7 3.6 10.4 5.6 16.3 5.6 8.4 0 16.1-3.8 21.3-10.5 4.4-5.7 6.3-12.7 5.3-19.8-.6-4.5-2.3-8.8-4.9-12.4l18.7-24.3c1 1.1 2 2.3 2.9 3.5-3.9 8.3-6.1 18.1-6.4 28.5-.3 12.4 2.1 25.7 6.9 38.6-2.5 5.7-5.6 11.3-9.2 16.7-11.5 17.1-27 30.2-43.5 36.7zm16.1-93.4c2.5 1.9 4.1 4.7 4.5 7.9.4 3.1-.4 6.2-2.4 8.7-2.3 2.9-5.7 4.6-9.4 4.6-2.6 0-5.1-.8-7.2-2.5-5.2-4-6.1-11.4-2.2-16.6 2.3-2.9 5.7-4.6 9.4-4.6 2.8.1 5.2.9 7.3 2.5zm166 52.9c-3.1-.2-9.3-2.2-13.3-3.4-11.5-3.6-24.5-7.7-33.8-1.5-9.3 6.2-10.4 19.8-11.5 31.8-.4 4.1-.9 10.6-1.9 13.5-16.6-6.5-32-19.5-43.5-36.8-4.2-6.2-7.6-12.8-10.4-19.4-4.9-11.9-7.3-24.1-7-35.4.3-9.7 2.5-18.5 6.6-25.5 1.4-2.5 3.1-4.8 5-6.9l18.7 24.3c-2.6 3.6-4.3 7.8-4.9 12.4-.9 7.1 1 14.1 5.3 19.8 5.1 6.6 12.9 10.5 21.3 10.5 6 0 11.6-1.9 16.3-5.6 11.7-9 13.9-25.9 4.9-37.6-5.1-6.6-12.9-10.5-21.3-10.5-3.4 0-6.7.6-9.7 1.9l-18.3-23.8c3.1-1.3 6.3-2.2 9.8-2.7 6.1 5.2 13.4 9.5 21.8 12.7 9 3.4 18.7 5.4 29.1 6 7.3 6.2 13.9 13.6 19.5 22 11.5 17.2 17.6 36.5 17.3 54.2zm-76.6-52.9c2.1-1.6 4.6-2.5 7.2-2.5 3.7 0 7.1 1.7 9.4 4.6 4 5.2 3 12.6-2.2 16.6-2.1 1.6-4.6 2.5-7.2 2.5-3.7 0-7.1-1.7-9.4-4.6-1.9-2.5-2.8-5.6-2.4-8.7.5-3.1 2.1-5.9 4.6-7.9zm73.5-41.7c-10.3 2.7-20.5 3.8-30.6 3.5-9.7-.3-18.7-2.1-26.9-5.2-7.7-2.9-14.2-6.9-19.3-11.8l-.6-.6c-1.4-1.5-2.8-3-3.9-4.6l22.3-6.2c4.8 7.7 13.4 12.7 22.8 12.7 2.4 0 4.8-.3 7.1-1 14.3-3.9 22.6-18.7 18.7-33-3.2-11.6-13.8-19.7-25.8-19.7-2.4 0-4.8.3-7.1 1-11.7 3.2-19.5 13.9-19.7 25.5l-24.7 6.8c-1.4-6.6-1-13.4 1.3-20.3 6.1-4.4 11.6-10.2 16.5-17 3.2-4.5 6-9.4 8.4-14.6 10.1-7.4 22.3-13.1 35.4-16.5 20.1-5.2 40.3-4.7 57 1.5-1.2 2.9-5.1 8.1-7.6 11.4-7.2 9.7-15.4 20.6-12.6 31.4 2.8 10.8 15.3 16.4 26.3 21.3 3.8 1.7 9.7 4.4 12.2 6.3-11.7 13.6-29.1 23.9-49.2 29.1zm-39.4-50.3c1-.3 2.1-.4 3.2-.4 5.3 0 10 3.6 11.4 8.7 1.7 6.3-2 12.8-8.2 14.5-1 .3-2.1.4-3.2.4-5.3 0-10-3.6-11.4-8.7-1.8-6.2 1.9-12.7 8.2-14.5z"/></svg>