<?xml version="1.0" encoding="utf-8"?>
<svg version="1.1" xmlns="http://www.w3.org/2000/svg" viewBox="0 0 100 100">
    <path stroke="black" stroke-width="3" fill="#dbdbdb" stroke-miterlimit="10" d="M25.5,18.5c5.83-1.93,10.89-1.29,21,0
	c8.35,1.06,17.95,2.37,29,8c7.23,3.69,12.84,8.08,17,12c0.33,10.33,0.67,20.67,1,31c0.02,0.17,0.22,1.78-1,3s-2.83,1.02-3,1
	c-23.33,0-46.67,0-70,0c-1.72-3.4-3.41-7.06-5-11c-3.96-9.77-6.44-18.94-8-27C8.8,31.3,14.67,22.08,25.5,18.5z" />
        <g style="stroke:#000000;stroke-width:2;stroke-miterlimit:10;">
		<path class="st2" d="M30,62.3V33h9c2,0,3.8,0.3,5.3,0.8s2.7,1.4,3.6,2.6c0.9,1.2,1.3,2.8,1.3,4.7c0,1.9-0.4,3.5-1.3,4.8
			c-0.9,1.3-2,2.2-3.6,2.8c-1.5,0.6-3.3,0.9-5.3,0.9h-5.6v12.6H30z M33.3,46.9h5.1c2.4,0,4.2-0.5,5.4-1.5c1.3-1,1.9-2.4,1.9-4.4
			c0-2-0.6-3.4-1.9-4.2c-1.3-0.8-3.1-1.2-5.4-1.2h-5.1V46.9z M46.1,62.3l-7.8-13.6l2.7-1.6l8.8,15.2H46.1z"/>
		<path class="st2" d="M55.1,62.3V33h8.5c2,0,3.7,0.2,5.2,0.7c1.5,0.5,2.7,1.2,3.5,2.3c0.8,1.1,1.3,2.4,1.3,4.1c0,1-0.2,1.9-0.5,2.7
			c-0.3,0.9-0.8,1.6-1.5,2.2c-0.6,0.6-1.4,1.1-2.4,1.4v0.2c1.8,0.3,3.2,1.1,4.4,2.3c1.1,1.2,1.7,2.8,1.7,4.8c0,1.9-0.5,3.5-1.4,4.7
			c-0.9,1.3-2.2,2.2-3.9,2.9c-1.6,0.6-3.6,1-5.8,1H55.1z M58.4,45.5h4.5c2.6,0,4.5-0.4,5.7-1.3c1.1-0.9,1.7-2.1,1.7-3.7
			c0-1.8-0.6-3.1-1.8-3.8c-1.2-0.7-3-1.1-5.4-1.1h-4.7V45.5z M58.4,59.6h5.3c2.6,0,4.7-0.5,6.1-1.5s2.2-2.5,2.2-4.5
			c0-1.9-0.7-3.3-2.2-4.2c-1.4-0.9-3.5-1.3-6.2-1.3h-5.3V59.6z"/> 
	</g>
</svg>