<?xml version="1.0" encoding="utf-8"?>
<svg version="1.1" xmlns="http://www.w3.org/2000/svg" xmlns:xlink="http://www.w3.org/1999/xlink" viewBox="0 0 100 100">
    <rect x="40.5" y="37.5" fill="#dbdbdb" width="14" height="37" />
    <g>
        <ellipse fill="#dbdbdb" cx="47.5" cy="29.65" rx="29.78" ry="7.96" />
        <path d="M47.5,23.19c7.81,0,15.18,0.89,20.76,2.5c5.99,1.73,7.46,3.57,7.52,3.95c-0.07,0.4-1.53,2.24-7.52,3.97
		c-5.58,1.61-12.96,2.5-20.76,2.5s-15.18-0.89-20.76-2.5c-5.99-1.73-7.46-3.57-7.52-3.95c0.07-0.4,1.53-2.24,7.52-3.97
		C32.32,24.08,39.69,23.19,47.5,23.19 M47.5,20.19c-17.28,0-31.28,4.23-31.28,9.46s14.01,9.46,31.28,9.46s31.28-4.23,31.28-9.46
		S64.78,20.19,47.5,20.19L47.5,20.19z" />
    </g>
    <g>
        <ellipse fill="#dbdbdb" cx="47.5" cy="22.36" rx="22.85" ry="5.86" />
        <path d="M47.5,18c12.87,0,19.93,2.9,21.22,4.36c-1.29,1.46-8.35,4.36-21.22,4.36s-19.93-2.9-21.22-4.36
		C27.57,20.9,34.63,18,47.5,18 M47.5,15c-13.45,0-24.35,3.3-24.35,7.36s10.9,7.36,24.35,7.36s24.35-3.3,24.35-7.36S60.95,15,47.5,15
		L47.5,15z" />
    </g>
    <g>
        <path fill="none" d="M47.5,76.08c-3.44,0-5.76-0.65-6.68-1.15c0.92-0.5,3.24-1.15,6.68-1.15s5.76,0.65,6.68,1.15
		C53.26,75.42,50.94,76.08,47.5,76.08z" />
        <path d="M47.5,72.27c-4.69,0-8.49,1.19-8.49,2.65c0,1.47,3.8,2.65,8.49,2.65s8.49-1.19,8.49-2.65
		C55.99,73.46,52.19,72.27,47.5,72.27L47.5,72.27z" />
    </g>
    <line fill="none" stroke="#000" stroke-width="3" x1="84.26" y1="84.85" x2="64.63" y2="56" />
    <g fill="none" stroke="#000" stroke-width="3" stroke-linecap="round">
        <line x1="84.26" y1="84.85" x2="77.47" y2="81.88" />
        <line x1="71.42" y1="58.97" x2="64.63" y2="56" />
        <line x1="87" y1="81.88" x2="84.26" y2="84.85" />
        <line x1="64.63" y1="56" x2="61.89" y2="58.97" />
    </g>
    <g fill="none" stroke="#000" stroke-width="3" stroke-linecap="round" stroke-linejoin="round">
        <line x1="40.71" y1="74.45" x2="40.71" y2="37.65" />
        <line x1="54.29" y1="74.45" x2="54.29" y2="37.65" />
    </g>
</svg>