<?xml version="1.0" encoding="utf-8"?>
<svg version="1.1" xmlns="http://www.w3.org/2000/svg" xmlns:xlink="http://www.w3.org/1999/xlink" viewBox="0 0 100 100">
    <rect x="43.5" y="31.5" fill="#dbdbdb" width="14" height="37" />
    <g>
        <ellipse fill="#dbdbdb" cx="50.5" cy="23.65" rx="29.78" ry="7.96" />
        <path d="M50.5,17.19c7.81,0,15.18,0.89,20.76,2.5c5.99,1.73,7.46,3.57,7.52,3.95c-0.07,0.4-1.53,2.24-7.52,3.97
		c-5.58,1.61-12.96,2.5-20.76,2.5s-15.18-0.89-20.76-2.5c-5.99-1.73-7.46-3.57-7.52-3.95c0.07-0.4,1.53-2.24,7.52-3.97
		C35.32,18.08,42.69,17.19,50.5,17.19 M50.5,14.19c-17.28,0-31.28,4.23-31.28,9.46s14.01,9.46,31.28,9.46s31.28-4.23,31.28-9.46
		S67.78,14.19,50.5,14.19L50.5,14.19z" />
    </g>
    <g>
        <ellipse fill="#dbdbdb" cx="50.5" cy="16.36" rx="22.85" ry="5.86" />
        <path d="M50.5,12c12.87,0,19.93,2.9,21.22,4.36c-1.29,1.46-8.35,4.36-21.22,4.36s-19.93-2.9-21.22-4.36
		C30.57,14.9,37.63,12,50.5,12 M50.5,9c-13.45,0-24.35,3.3-24.35,7.36s10.9,7.36,24.35,7.36s24.35-3.3,24.35-7.36S63.95,9,50.5,9
		L50.5,9z" />
    </g>
    <g>
        <path fill="none" d="M50.5,70.08c-3.44,0-5.76-0.65-6.68-1.15c0.92-0.5,3.24-1.15,6.68-1.15c3.44,0,5.76,0.65,6.68,1.15
		C56.26,69.42,53.94,70.08,50.5,70.08z" />
        <path d="M50.5,66.27c-4.69,0-8.49,1.19-8.49,2.65c0,1.47,3.8,2.65,8.49,2.65s8.49-1.19,8.49-2.65
		C58.99,67.46,55.19,66.27,50.5,66.27L50.5,66.27z" />
    </g>
    <g fill="none" stroke="#000" stroke-width="3">
        <line x1="12" y1="82.04" x2="89" y2="82.04" />
    </g>
    <g fill="none" stroke="#000" stroke-width="3" stroke-linecap="round">
        <line x1="12" y1="82.04" x2="19.93" y2="74.11" />
        <line x1="81.07" y1="89.96" x2="89" y2="82.04" />
        <line x1="19.93" y1="89.96" x2="12" y2="82.04" />
        <line x1="89" y1="82.04" x2="81.07" y2="74.11" />
    </g>
    <g fill="none" stroke="#000" stroke-width="3" stroke-linecap="round">
        <line class="st3" x1="43.71" y1="68.45" x2="43.71" y2="31.65" />
        <line class="st3" x1="57.29" y1="68.45" x2="57.29" y2="31.65" />
    </g>
</svg>