<?xml version="1.0" encoding="utf-8"?>
<svg version="1.1" xmlns="http://www.w3.org/2000/svg" viewBox="0 0 100 100">
    <path stroke="black" stroke-width="3" fill="#dbdbdb" d="M74.53,18.5c-5.83-1.93-10.89-1.29-21,0c-8.35,1.06-17.95,2.37-29,8c-7.23,3.69-12.84,8.08-17,12
	c-0.33,10.33-0.67,20.67-1,31c-0.02,0.17-0.22,1.78,1,3s2.83,1.02,3,1c23.33,0,46.67,0,70,0c1.72-3.4,3.41-7.06,5-11
	c3.96-9.77,6.44-18.94,8-27C91.22,31.3,85.36,22.08,74.53,18.5z" />
    <g style="stroke:#000000;stroke-width:2;stroke-miterlimit:10;">
        <path d="M31.7,62.3V33H35v26.5h13v2.8H31.7z" />
        <path d="M53.2,62.3V33h8.5c2,0,3.7,0.2,5.2,0.7c1.5,0.5,2.7,1.2,3.5,2.3s1.3,2.4,1.3,4.1c0,1-0.2,1.9-0.5,2.7
			c-0.3,0.9-0.8,1.6-1.5,2.2c-0.6,0.6-1.4,1.1-2.4,1.4v0.2c1.8,0.3,3.2,1.1,4.4,2.3c1.1,1.2,1.7,2.8,1.7,4.8c0,1.9-0.5,3.5-1.4,4.7
			c-0.9,1.3-2.2,2.2-3.9,2.9c-1.6,0.6-3.6,1-5.8,1H53.2z M56.5,45.5H61c2.6,0,4.5-0.4,5.7-1.3c1.1-0.9,1.7-2.1,1.7-3.7
			c0-1.8-0.6-3.1-1.8-3.8c-1.2-0.7-3-1.1-5.4-1.1h-4.7V45.5z M56.5,59.6h5.3c2.6,0,4.7-0.5,6.1-1.5c1.5-1,2.2-2.5,2.2-4.5
			c0-1.9-0.7-3.3-2.2-4.2c-1.4-0.9-3.5-1.3-6.2-1.3h-5.3V59.6z" />
    </g>
</svg>