<?xml version="1.0" encoding="utf-8"?>
<svg version="1.1" xmlns="http://www.w3.org/2000/svg" viewBox="0 0 100 100">
    <path stroke="black" stroke-width="3" fill="#dbdbdb" d="M18.5,16.5c21.08,0,42.16,0,63.24,0c9.75,23.66,7.95,47.37-5.24,60c-2.8,2.68-7.21,5.91-14,8
	c-17.43,0-34.85,0-52.28,0c3.83-6.65,8.65-18.75,10.28-35C21.93,35.2,20.53,23.56,18.5,16.5z" />
    <g style="stroke:#000000;stroke-width:2;stroke-miterlimit:10;">
        <path d="M31.1,62.4V33.2h9c2,0,3.8,0.3,5.3,0.8s2.7,1.4,3.6,2.6c0.9,1.2,1.3,2.8,1.3,4.7c0,1.9-0.4,3.5-1.3,4.8
			c-0.9,1.3-2,2.2-3.6,2.8c-1.5,0.6-3.3,0.9-5.3,0.9h-5.6v12.6H31.1z M34.4,47.1h5.1c2.4,0,4.2-0.5,5.4-1.5c1.3-1,1.9-2.4,1.9-4.4
			c0-2-0.6-3.4-1.9-4.2c-1.3-0.8-3.1-1.2-5.4-1.2h-5.1V47.1z M47.2,62.4l-7.8-13.6l2.7-1.6l8.8,15.2H47.2z" />
        <path d="M62.3,62.4V36h-8.9v-2.8h21.2V36h-9v26.5H62.3z" />
    </g>
</svg>