<svg width="100" height="100" xmlns="http://www.w3.org/2000/svg">
  <circle cx="50" cy="50" r="40" stroke="black" stroke-width="3" fill="#00c" />
  <path fill="#fff" style="enable-background:new;stroke:#fff;stroke-width:4;stroke-miterlimit:10;" d="M34.6,70.4l12.9-22.7L35.4,26.5h5.5l6.2,11.6c0.6,1,1.1,2,1.6,3c0.5,1,1.1,2.1,1.8,3.3h0.2
			c0.6-1.2,1.2-2.3,1.7-3.3c0.5-1,1-2,1.5-3l6.2-11.6h5.2L53.4,48l12.9,22.4h-5.4l-6.8-12.2c-0.6-1.1-1.2-2.2-1.8-3.4
			s-1.3-2.4-2.1-3.7H50c-0.6,1.3-1.3,2.6-1.8,3.7c-0.6,1.2-1.2,2.3-1.7,3.4l-6.7,12.2H34.6z" />
</svg>