<svg width="100" height="100" xmlns="http://www.w3.org/2000/svg">
  <circle cx="50" cy="50" r="40" stroke="black" stroke-width="3" fill="#c00" />
  <path fill="#fff" d="M37.2,70.4V26.5H50c3,0,5.6,0.4,7.8,1.1c2.2,0.7,4,1.9,5.2,3.5c1.3,1.6,1.9,3.7,1.9,6.2
			c0,1.4-0.3,2.8-0.8,4.1c-0.5,1.3-1.2,2.4-2.2,3.3c-0.9,0.9-2.1,1.6-3.6,2.1V47c2.7,0.5,4.9,1.7,6.5,3.4c1.7,1.8,2.5,4.1,2.5,7.1
			c0,2.8-0.7,5.2-2.1,7.1C64,66.6,62,68,59.6,69s-5.4,1.4-8.7,1.4H37.2z M42.2,45.3H49c4,0,6.8-0.7,8.5-2c1.7-1.3,2.5-3.2,2.5-5.5
			c0-2.7-0.9-4.6-2.7-5.7c-1.8-1.1-4.5-1.7-8.1-1.7h-7V45.3z M42.2,66.5h7.9c3.9,0,7-0.7,9.2-2.2c2.2-1.5,3.3-3.7,3.3-6.8
			c0-2.9-1.1-5-3.2-6.3c-2.2-1.3-5.2-2-9.2-2h-7.9V66.5z" style="enable-background:new;stroke:#fff;stroke-width:4;stroke-miterlimit:10;"/>
</svg>