<?xml version="1.0" ?>
<svg viewBox="0 0 96 96" xmlns="http://www.w3.org/2000/svg">
    <defs>
        <linearGradient id="grad1" x1="0%" y1="0%" x2="100%" y2="100%">
            <stop offset="0%" style="stop-color:#f3bb0c;stop-opacity:1" />
            <stop offset="100%" style="stop-color:#ecdd3e;stop-opacity:1" />
        </linearGradient>
    </defs>
    <polyline stroke="none" stroke-width="0" fill="url(#grad1)"
        points="9 9 9 86.2 14 86.2 48 56 81.1 85.7 86 85.7 86 9 9 9" />
    <path stroke="none" stroke-width="0" fill="url(#grad1)"
        d="M84,89.36a5.92,5.92,0,0,1-4.2-1.77L49.41,57.24a2,2,0,0,0-2.83,0L16.24,87.59A6,6,0,0,1,6,83.34V12a6,6,0,0,1,6-6H84a6,6,0,0,1,6,6V83.34a5.92,5.92,0,0,1-3.7,5.55A6.26,6.26,0,0,1,84,89.36ZM48,52.66a6,6,0,0,1,4.24,1.75L82.59,84.76A2,2,0,0,0,86,83.34V12a2,2,0,0,0-2-2H12a2,2,0,0,0-2,2V83.34a2,2,0,0,0,3.41,1.42L43.76,54.41A6,6,0,0,1,48,52.66Z" />
</svg>